<?xml version="1.0" ?><svg style="enable-background:new 0 0 48 48;" version="1.1" viewBox="0 0 48 48" xml:space="preserve" xmlns="http://www.w3.org/2000/svg" xmlns:xlink="http://www.w3.org/1999/xlink"><g id="Icons"><g><path d="M34.44105,35.43705h-20.8821c-1.2449,0-2.2541-1.0092-2.2541-2.2542v-13.7078h25.3903v13.7079    C36.69515,34.42785,35.68595,35.43705,34.44105,35.43705z" style="fill:#F4F4F4;"/><path d="M34.14645,14.59715h-20.2931c-1.4075,0-2.5485,1.1409-2.5485,2.5484v2.3296h25.39v-2.3296    C36.69485,15.73805,35.55385,14.59715,34.14645,14.59715z" style="fill:#F43734;"/><path d="M15.80185,16.63125L15.80185,16.63125c-0.4634,0-0.8425-0.3791-0.8425-0.8424v-2.3834    c0-0.4634,0.3791-0.8425,0.8425-0.8425l0,0c0.4633,0,0.8424,0.3791,0.8424,0.8425v2.3834    C16.64425,16.25215,16.26515,16.63125,15.80185,16.63125z" style="fill:#DBDBDB;"/><path d="M32.19795,16.63125L32.19795,16.63125c-0.4633,0-0.8424-0.3791-0.8424-0.8424v-2.3834    c0-0.4634,0.3791-0.8425,0.8424-0.8425l0,0c0.4633,0,0.8424,0.3791,0.8424,0.8425v2.3834    C33.04035,16.25215,32.66125,16.63125,32.19795,16.63125z" style="fill:#DBDBDB;"/><g><rect height="1.9886" style="fill:#DBDBDB;" width="3.5472" x="15.88175" y="24.33415"/><rect height="1.9886" style="fill:#DBDBDB;" width="3.5472" x="22.30125" y="24.33415"/><rect height="1.9886" style="fill:#DBDBDB;" width="3.5472" x="22.30125" y="28.29655"/><rect height="1.9886" style="fill:#DBDBDB;" width="3.5472" x="28.57075" y="24.33415"/><rect height="1.9886" style="fill:#DBDBDB;" width="3.5472" x="28.57075" y="28.29655"/><rect height="1.9886" style="fill:#DBDBDB;" width="3.5472" x="15.97505" y="28.29655"/></g></g></g></svg>