<svg width="289" height="49" viewBox="0 0 289 49" fill="none" xmlns="http://www.w3.org/2000/svg">
<path d="M68.2969 17.9624C67.9844 17.9546 67.5938 17.9507 67.125 17.9507C66.6562 17.9429 66.1445 17.9351 65.5898 17.9272C65.043 17.9194 64.4688 17.9155 63.8672 17.9155C63.2734 17.9077 62.6914 17.9038 62.1211 17.9038C61.5508 17.896 61.0078 17.896 60.4922 17.9038C59.9766 17.9116 59.5273 17.9233 59.1445 17.939V21.4194C59.1445 22.0835 59.1523 22.6655 59.168 23.1655C59.1914 23.6577 59.2148 24.0835 59.2383 24.4429C59.2695 24.8022 59.3047 25.103 59.3438 25.3452C59.3906 25.5874 59.4375 25.7905 59.4844 25.9546V26.0015H56.6719V25.9546C56.7188 25.7905 56.7617 25.5874 56.8008 25.3452C56.8477 25.103 56.8867 24.8022 56.918 24.4429C56.9492 24.0835 56.9727 23.6577 56.9883 23.1655C57.0039 22.6655 57.0117 22.0835 57.0117 21.4194V13.7905C57.0117 13.1265 57.0039 12.5483 56.9883 12.0562C56.9727 11.5562 56.9492 11.1265 56.918 10.7671C56.8867 10.3999 56.8477 10.0952 56.8008 9.85303C56.7617 9.61084 56.7188 9.40771 56.6719 9.24365V9.19678H59.4844V9.24365C59.4375 9.40771 59.3906 9.61084 59.3438 9.85303C59.3047 10.0952 59.2695 10.3999 59.2383 10.7671C59.2148 11.1265 59.1914 11.5562 59.168 12.0562C59.1523 12.5483 59.1445 13.1265 59.1445 13.7905V16.7905C59.5508 16.8062 60.0117 16.8179 60.5273 16.8257C61.043 16.8257 61.582 16.8257 62.1445 16.8257C62.707 16.8179 63.2773 16.8101 63.8555 16.8022C64.4414 16.7944 65.0039 16.7866 65.543 16.7788C66.0898 16.7632 66.5977 16.7476 67.0664 16.7319C67.543 16.7163 67.9531 16.7007 68.2969 16.6851V13.7905C68.2969 13.1265 68.2852 12.5483 68.2617 12.0562C68.2461 11.5562 68.2227 11.1265 68.1914 10.7671C68.168 10.3999 68.1328 10.0952 68.0859 9.85303C68.0469 9.61084 68.0039 9.40771 67.957 9.24365V9.19678H70.7695V9.24365C70.7227 9.40771 70.6758 9.61084 70.6289 9.85303C70.5898 10.0952 70.5547 10.3999 70.5234 10.7671C70.4922 11.1265 70.4688 11.5562 70.4531 12.0562C70.4375 12.5483 70.4297 13.1265 70.4297 13.7905V21.4194C70.4297 22.0835 70.4375 22.6655 70.4531 23.1655C70.4688 23.6577 70.4922 24.0835 70.5234 24.4429C70.5547 24.8022 70.5898 25.103 70.6289 25.3452C70.6758 25.5874 70.7227 25.7905 70.7695 25.9546V26.0015H67.957V25.9546C68.0039 25.7905 68.0469 25.5874 68.0859 25.3452C68.1328 25.103 68.168 24.8022 68.1914 24.4429C68.2227 24.0835 68.2461 23.6577 68.2617 23.1655C68.2852 22.6655 68.2969 22.0835 68.2969 21.4194V17.9624ZM80.7117 26.2124C79.8445 26.2124 79.032 26.0757 78.2742 25.8022C77.5164 25.5288 76.8563 25.1304 76.2938 24.6069C75.7313 24.0757 75.2859 23.4233 74.9578 22.6499C74.6375 21.8687 74.4773 20.978 74.4773 19.978C74.4773 19.0952 74.6258 18.2788 74.9227 17.5288C75.2195 16.771 75.6297 16.1147 76.1531 15.5601C76.6766 15.0054 77.2859 14.5718 77.9813 14.2593C78.6844 13.9468 79.4422 13.7905 80.2547 13.7905C81.0594 13.7905 81.8055 13.9312 82.493 14.2124C83.1805 14.4858 83.7742 14.8882 84.2742 15.4194C84.782 15.9429 85.1805 16.5952 85.4695 17.3765C85.7664 18.1499 85.9266 19.0327 85.95 20.0249C85.0672 20.0093 84.1844 19.9976 83.3016 19.9897C82.4188 19.9819 81.5008 19.978 80.5477 19.978C79.868 19.978 79.2039 19.9819 78.5555 19.9897C77.9148 19.9976 77.3367 20.0093 76.8211 20.0249C76.868 20.8374 76.993 21.5718 77.1961 22.228C77.407 22.8843 77.6922 23.4468 78.0516 23.9155C78.4188 24.3765 78.8602 24.7319 79.3758 24.9819C79.8992 25.2319 80.4891 25.3569 81.1453 25.3569C81.5984 25.3569 82.0242 25.3062 82.4227 25.2046C82.8289 25.0952 83.1961 24.9468 83.5242 24.7593C83.8523 24.5718 84.1453 24.353 84.4031 24.103C84.6609 23.8452 84.8797 23.5679 85.0594 23.271L85.2 23.3413L84.3328 25.4272C83.9109 25.646 83.407 25.8335 82.8211 25.9897C82.2352 26.1382 81.532 26.2124 80.7117 26.2124ZM79.1531 19.064C79.9344 19.064 80.7156 19.064 81.4969 19.064C82.2859 19.0562 83.0008 19.0405 83.6414 19.0171C83.5711 18.3374 83.4383 17.728 83.243 17.189C83.0477 16.6499 82.7977 16.1929 82.493 15.8179C82.1883 15.4429 81.8289 15.1538 81.4148 14.9507C81.0008 14.7476 80.5438 14.646 80.0438 14.646C79.5906 14.646 79.1727 14.7476 78.7898 14.9507C78.4148 15.146 78.0867 15.4312 77.8055 15.8062C77.5242 16.1812 77.2977 16.6421 77.1258 17.189C76.9539 17.728 76.8523 18.3452 76.8211 19.0405C77.1727 19.0562 77.5438 19.064 77.9344 19.064C78.325 19.064 78.7313 19.064 79.1531 19.064ZM97.4859 18.103C97.4859 17.5874 97.4313 17.1421 97.3219 16.7671C97.2203 16.3921 97.068 16.0835 96.8648 15.8413C96.6695 15.5913 96.4313 15.4077 96.15 15.2905C95.8688 15.1655 95.5563 15.103 95.2125 15.103C94.9781 15.103 94.7164 15.1499 94.4273 15.2437C94.1383 15.3374 93.8375 15.4663 93.525 15.6304C93.2203 15.7866 92.9117 15.9702 92.5992 16.1812C92.2945 16.3921 92.0055 16.6187 91.732 16.8608C91.7164 17.1108 91.7086 17.3804 91.7086 17.6694C91.7086 17.9507 91.7086 18.2554 91.7086 18.5835V21.4194C91.7086 22.0835 91.7164 22.6655 91.732 23.1655C91.7477 23.6577 91.7711 24.0835 91.8023 24.4429C91.8336 24.8022 91.8688 25.103 91.9078 25.3452C91.9469 25.5874 91.9898 25.7905 92.0367 25.9546V26.0015H89.3297V25.9546C89.3766 25.7905 89.4195 25.5874 89.4586 25.3452C89.5055 25.103 89.5406 24.8022 89.5641 24.4429C89.5953 24.0835 89.6188 23.6577 89.6344 23.1655C89.6578 22.6655 89.6695 22.0835 89.6695 21.4194V18.5835C89.6695 17.9194 89.6578 17.3413 89.6344 16.8491C89.6188 16.3491 89.5953 15.9194 89.5641 15.5601C89.5406 15.2007 89.5055 14.8999 89.4586 14.6577C89.4195 14.4155 89.3766 14.2124 89.3297 14.0483V14.0015H92.0367V14.0483C91.9742 14.228 91.9234 14.4585 91.8844 14.7397C91.8531 15.0132 91.818 15.3608 91.7789 15.7827C92.0914 15.5327 92.4273 15.2866 92.7867 15.0444C93.1461 14.8022 93.5133 14.5874 93.8883 14.3999C94.2711 14.2124 94.6539 14.0601 95.0367 13.9429C95.4195 13.8257 95.7984 13.7671 96.1734 13.7671C96.6188 13.7671 97.0133 13.8257 97.357 13.9429C97.7008 14.0601 98.0016 14.2202 98.2594 14.4233C98.5172 14.6265 98.732 14.8647 98.9039 15.1382C99.0836 15.4116 99.2203 15.7046 99.3141 16.0171C99.6344 15.7437 99.982 15.4741 100.357 15.2085C100.74 14.9351 101.13 14.6929 101.529 14.4819C101.935 14.271 102.345 14.0991 102.759 13.9663C103.181 13.8335 103.591 13.7671 103.99 13.7671C104.599 13.7671 105.115 13.8726 105.537 14.0835C105.966 14.2944 106.314 14.5718 106.58 14.9155C106.853 15.2593 107.048 15.6538 107.166 16.0991C107.291 16.5366 107.353 16.9819 107.353 17.4351V21.4194C107.353 22.0835 107.361 22.6655 107.377 23.1655C107.392 23.6577 107.416 24.0835 107.447 24.4429C107.478 24.8022 107.513 25.103 107.552 25.3452C107.599 25.5874 107.646 25.7905 107.693 25.9546V26.0015H104.974V25.9546C105.021 25.7905 105.064 25.5874 105.103 25.3452C105.15 25.103 105.189 24.8022 105.22 24.4429C105.252 24.0835 105.275 23.6577 105.291 23.1655C105.306 22.6655 105.314 22.0835 105.314 21.4194V18.103C105.314 17.0718 105.107 16.314 104.693 15.8296C104.279 15.3452 103.724 15.103 103.029 15.103C102.787 15.103 102.517 15.1499 102.22 15.2437C101.931 15.3374 101.63 15.4663 101.318 15.6304C101.005 15.7944 100.693 15.9858 100.38 16.2046C100.068 16.4155 99.775 16.6421 99.5016 16.8843C99.5172 16.978 99.525 17.0718 99.525 17.1655C99.525 17.2593 99.525 17.3491 99.525 17.4351V21.4194C99.525 22.0835 99.5328 22.6655 99.5484 23.1655C99.5719 23.6577 99.5953 24.0835 99.6188 24.4429C99.65 24.8022 99.6852 25.103 99.7242 25.3452C99.7711 25.5874 99.818 25.7905 99.8648 25.9546V26.0015H97.1578V25.9546C97.2047 25.7905 97.2477 25.5874 97.2867 25.3452C97.3258 25.103 97.3609 24.8022 97.3922 24.4429C97.4234 24.0835 97.4469 23.6577 97.4625 23.1655C97.4781 22.6655 97.4859 22.0835 97.4859 21.4194V18.103ZM111.096 19.978C111.096 19.0952 111.26 18.2788 111.588 17.5288C111.916 16.771 112.366 16.1147 112.936 15.5601C113.514 15.0054 114.194 14.5718 114.975 14.2593C115.756 13.9468 116.596 13.7905 117.495 13.7905C118.377 13.7905 119.205 13.939 119.979 14.2358C120.76 14.5249 121.44 14.939 122.018 15.478C122.596 16.0171 123.049 16.6733 123.377 17.4468C123.713 18.2202 123.881 19.0874 123.881 20.0483C123.881 20.853 123.741 21.6265 123.459 22.3687C123.178 23.1108 122.764 23.7671 122.217 24.3374C121.67 24.9077 120.998 25.3647 120.202 25.7085C119.412 26.0444 118.502 26.2124 117.471 26.2124C116.596 26.2124 115.772 26.0679 114.998 25.7788C114.225 25.4897 113.549 25.0757 112.971 24.5366C112.393 23.9976 111.936 23.3452 111.6 22.5796C111.264 21.8062 111.096 20.939 111.096 19.978ZM117.741 25.3569C118.295 25.3569 118.803 25.2476 119.264 25.0288C119.733 24.8101 120.135 24.4937 120.471 24.0796C120.807 23.6655 121.069 23.1616 121.256 22.5679C121.444 21.9741 121.537 21.3022 121.537 20.5522C121.537 19.7085 121.448 18.9272 121.268 18.2085C121.088 17.4819 120.819 16.8569 120.459 16.3335C120.108 15.8022 119.662 15.3882 119.123 15.0913C118.584 14.7944 117.955 14.646 117.237 14.646C116.682 14.646 116.174 14.7554 115.713 14.9741C115.252 15.1851 114.85 15.4937 114.506 15.8999C114.17 16.3062 113.909 16.8062 113.721 17.3999C113.534 17.9858 113.44 18.6538 113.44 19.4038C113.44 20.2476 113.53 21.0327 113.709 21.7593C113.897 22.4858 114.17 23.1187 114.53 23.6577C114.889 24.189 115.334 24.6069 115.866 24.9116C116.405 25.2085 117.03 25.3569 117.741 25.3569ZM127.718 18.3491C127.718 17.6851 127.706 17.1069 127.683 16.6147C127.667 16.1147 127.644 15.6851 127.613 15.3257C127.589 14.9663 127.554 14.6655 127.507 14.4233C127.468 14.1812 127.425 13.978 127.378 13.814V13.7671H130.085V13.814C130.046 13.9312 130.011 14.064 129.98 14.2124C129.948 14.3608 129.921 14.5288 129.898 14.7163C130.359 14.4507 130.866 14.228 131.421 14.0483C131.984 13.8608 132.605 13.7671 133.284 13.7671C134.152 13.7671 134.941 13.9155 135.652 14.2124C136.37 14.5015 136.984 14.9194 137.491 15.4663C138.007 16.0132 138.405 16.6733 138.687 17.4468C138.968 18.2202 139.109 19.0874 139.109 20.0483C139.109 20.853 138.968 21.6265 138.687 22.3687C138.413 23.1108 138.007 23.7671 137.468 24.3374C136.937 24.9077 136.28 25.3647 135.499 25.7085C134.718 26.0444 133.82 26.2124 132.804 26.2124C132.195 26.2124 131.64 26.1655 131.14 26.0718C130.64 25.978 130.179 25.8569 129.757 25.7085V27.4194C129.757 28.0835 129.765 28.6616 129.78 29.1538C129.796 29.6538 129.82 30.0835 129.851 30.4429C129.882 30.8022 129.917 31.103 129.956 31.3452C129.995 31.5874 130.038 31.7905 130.085 31.9546V32.0015H127.378V31.9546C127.425 31.7905 127.468 31.5874 127.507 31.3452C127.554 31.103 127.589 30.8022 127.613 30.4429C127.644 30.0835 127.667 29.6538 127.683 29.1538C127.706 28.6616 127.718 28.0835 127.718 27.4194V18.3491ZM132.874 14.646C132.609 14.646 132.335 14.6812 132.054 14.7515C131.78 14.814 131.507 14.9077 131.234 15.0327C130.968 15.1499 130.71 15.3022 130.46 15.4897C130.218 15.6694 129.999 15.8765 129.804 16.1108C129.788 16.4077 129.777 16.7437 129.769 17.1187C129.761 17.4937 129.757 17.9038 129.757 18.3491V24.4897C129.913 24.6069 130.089 24.7163 130.284 24.8179C130.48 24.9194 130.698 25.0132 130.941 25.0991C131.191 25.1772 131.468 25.2397 131.773 25.2866C132.085 25.3335 132.429 25.3569 132.804 25.3569C133.413 25.3569 133.964 25.2476 134.456 25.0288C134.948 24.8101 135.363 24.4937 135.698 24.0796C136.042 23.6655 136.304 23.1616 136.484 22.5679C136.671 21.9741 136.765 21.3022 136.765 20.5522C136.765 19.7085 136.695 18.9272 136.554 18.2085C136.413 17.4819 136.187 16.8569 135.874 16.3335C135.57 15.8022 135.171 15.3882 134.679 15.0913C134.187 14.7944 133.585 14.646 132.874 14.646ZM150.996 18.103C150.996 17.0718 150.789 16.314 150.375 15.8296C149.961 15.3452 149.406 15.103 148.711 15.103C148.453 15.103 148.164 15.1577 147.844 15.2671C147.531 15.3687 147.207 15.5093 146.871 15.689C146.543 15.8687 146.215 16.0796 145.887 16.3218C145.559 16.5562 145.254 16.8062 144.973 17.0718V21.4194C144.973 22.0835 144.98 22.6655 144.996 23.1655C145.012 23.6577 145.035 24.0835 145.066 24.4429C145.098 24.8022 145.133 25.103 145.172 25.3452C145.211 25.5874 145.254 25.7905 145.301 25.9546V26.0015H142.594V25.9546C142.641 25.7905 142.684 25.5874 142.723 25.3452C142.77 25.103 142.805 24.8022 142.828 24.4429C142.859 24.0835 142.883 23.6577 142.898 23.1655C142.922 22.6655 142.934 22.0835 142.934 21.4194V13.064C142.934 12.3999 142.922 11.8218 142.898 11.3296C142.883 10.8296 142.859 10.3999 142.828 10.0405C142.805 9.68115 142.77 9.38037 142.723 9.13818C142.684 8.896 142.641 8.69287 142.594 8.52881V8.48193H145.301V8.52881C145.254 8.69287 145.211 8.896 145.172 9.13818C145.133 9.38037 145.098 9.68115 145.066 10.0405C145.035 10.3999 145.012 10.8296 144.996 11.3296C144.98 11.8218 144.973 12.3999 144.973 13.064V16.064C145.285 15.7827 145.629 15.5054 146.004 15.2319C146.387 14.9585 146.781 14.7124 147.188 14.4937C147.594 14.2749 148.008 14.0991 148.43 13.9663C148.852 13.8335 149.266 13.7671 149.672 13.7671C150.281 13.7671 150.797 13.8726 151.219 14.0835C151.648 14.2944 151.996 14.5718 152.262 14.9155C152.535 15.2593 152.73 15.6538 152.848 16.0991C152.973 16.5366 153.035 16.9819 153.035 17.4351V21.4194C153.035 22.0835 153.043 22.6655 153.059 23.1655C153.074 23.6577 153.098 24.0835 153.129 24.4429C153.16 24.8022 153.195 25.103 153.234 25.3452C153.273 25.5874 153.316 25.7905 153.363 25.9546V26.0015H150.656V25.9546C150.703 25.7905 150.746 25.5874 150.785 25.3452C150.832 25.103 150.867 24.8022 150.891 24.4429C150.922 24.0835 150.945 23.6577 150.961 23.1655C150.984 22.6655 150.996 22.0835 150.996 21.4194V18.103ZM157.845 18.5835C157.845 17.9194 157.833 17.3413 157.809 16.8491C157.794 16.3491 157.77 15.9194 157.739 15.5601C157.716 15.2007 157.68 14.8999 157.634 14.6577C157.595 14.4155 157.552 14.2124 157.505 14.0483V14.0015H160.212V14.0483C160.165 14.2124 160.122 14.4155 160.083 14.6577C160.044 14.8999 160.009 15.2007 159.977 15.5601C159.946 15.9194 159.923 16.3491 159.907 16.8491C159.891 17.3413 159.884 17.9194 159.884 18.5835V21.4194C159.884 22.0835 159.891 22.6655 159.907 23.1655C159.923 23.6577 159.946 24.0835 159.977 24.4429C160.009 24.8022 160.044 25.103 160.083 25.3452C160.122 25.5874 160.165 25.7905 160.212 25.9546V26.0015H157.505V25.9546C157.552 25.7905 157.595 25.5874 157.634 25.3452C157.68 25.103 157.716 24.8022 157.739 24.4429C157.77 24.0835 157.794 23.6577 157.809 23.1655C157.833 22.6655 157.845 22.0835 157.845 21.4194V18.5835ZM157.598 10.4507C157.598 10.2788 157.63 10.1187 157.692 9.97021C157.762 9.81396 157.852 9.68115 157.962 9.57178C158.071 9.45459 158.2 9.36475 158.348 9.30225C158.505 9.23193 158.673 9.19678 158.852 9.19678C159.032 9.19678 159.196 9.23193 159.345 9.30225C159.501 9.36475 159.634 9.45459 159.743 9.57178C159.86 9.68115 159.95 9.81396 160.012 9.97021C160.083 10.1187 160.118 10.2788 160.118 10.4507C160.118 10.8101 159.997 11.1108 159.755 11.353C159.512 11.5952 159.212 11.7163 158.852 11.7163C158.673 11.7163 158.505 11.6851 158.348 11.6226C158.2 11.5522 158.071 11.4624 157.962 11.353C157.852 11.2358 157.762 11.103 157.692 10.9546C157.63 10.7983 157.598 10.6304 157.598 10.4507ZM164.834 13.064C164.834 12.3999 164.822 11.8218 164.798 11.3296C164.783 10.8296 164.759 10.3999 164.728 10.0405C164.705 9.68115 164.67 9.38037 164.623 9.13818C164.584 8.896 164.541 8.69287 164.494 8.52881V8.48193H167.201V8.52881C167.154 8.69287 167.111 8.896 167.072 9.13818C167.033 9.38037 166.998 9.68115 166.966 10.0405C166.935 10.3999 166.912 10.8296 166.896 11.3296C166.88 11.8218 166.873 12.3999 166.873 13.064V21.4194C166.873 22.0835 166.88 22.6655 166.896 23.1655C166.912 23.6577 166.935 24.0835 166.966 24.4429C166.998 24.8022 167.033 25.103 167.072 25.3452C167.111 25.5874 167.154 25.7905 167.201 25.9546V26.0015H164.494V25.9546C164.541 25.7905 164.584 25.5874 164.623 25.3452C164.67 25.103 164.705 24.8022 164.728 24.4429C164.759 24.0835 164.783 23.6577 164.798 23.1655C164.822 22.6655 164.834 22.0835 164.834 21.4194V13.064ZM171.823 18.5835C171.823 17.9194 171.811 17.3413 171.787 16.8491C171.772 16.3491 171.748 15.9194 171.717 15.5601C171.694 15.2007 171.659 14.8999 171.612 14.6577C171.573 14.4155 171.53 14.2124 171.483 14.0483V14.0015H174.19V14.0483C174.143 14.2124 174.1 14.4155 174.061 14.6577C174.022 14.8999 173.987 15.2007 173.955 15.5601C173.924 15.9194 173.901 16.3491 173.885 16.8491C173.87 17.3413 173.862 17.9194 173.862 18.5835V21.4194C173.862 22.0835 173.87 22.6655 173.885 23.1655C173.901 23.6577 173.924 24.0835 173.955 24.4429C173.987 24.8022 174.022 25.103 174.061 25.3452C174.1 25.5874 174.143 25.7905 174.19 25.9546V26.0015H171.483V25.9546C171.53 25.7905 171.573 25.5874 171.612 25.3452C171.659 25.103 171.694 24.8022 171.717 24.4429C171.748 24.0835 171.772 23.6577 171.787 23.1655C171.811 22.6655 171.823 22.0835 171.823 21.4194V18.5835ZM171.577 10.4507C171.577 10.2788 171.608 10.1187 171.67 9.97021C171.741 9.81396 171.83 9.68115 171.94 9.57178C172.049 9.45459 172.178 9.36475 172.327 9.30225C172.483 9.23193 172.651 9.19678 172.83 9.19678C173.01 9.19678 173.174 9.23193 173.323 9.30225C173.479 9.36475 173.612 9.45459 173.721 9.57178C173.838 9.68115 173.928 9.81396 173.991 9.97021C174.061 10.1187 174.096 10.2788 174.096 10.4507C174.096 10.8101 173.975 11.1108 173.733 11.353C173.491 11.5952 173.19 11.7163 172.83 11.7163C172.651 11.7163 172.483 11.6851 172.327 11.6226C172.178 11.5522 172.049 11.4624 171.94 11.353C171.83 11.2358 171.741 11.103 171.67 10.9546C171.608 10.7983 171.577 10.6304 171.577 10.4507ZM177.804 22.5444C177.804 21.9272 177.929 21.3921 178.179 20.939C178.437 20.4858 178.777 20.0991 179.198 19.7788C179.62 19.4585 180.101 19.2007 180.64 19.0054C181.179 18.8022 181.738 18.646 182.316 18.5366C182.894 18.4194 183.464 18.3413 184.027 18.3022C184.589 18.2554 185.105 18.228 185.573 18.2202V17.6226C185.573 17.1069 185.507 16.6616 185.374 16.2866C185.241 15.9116 185.054 15.603 184.812 15.3608C184.57 15.1108 184.277 14.9272 183.933 14.8101C183.597 14.6851 183.226 14.6226 182.82 14.6226C182.538 14.6226 182.261 14.646 181.988 14.6929C181.714 14.7397 181.429 14.8179 181.132 14.9272C180.843 15.0366 180.534 15.1851 180.206 15.3726C179.886 15.5601 179.538 15.7983 179.163 16.0874L179.046 16.0171L179.843 14.3647C180.101 14.2476 180.355 14.1538 180.605 14.0835C180.855 14.0054 181.109 13.9429 181.366 13.896C181.624 13.8491 181.886 13.8179 182.152 13.8022C182.425 13.7788 182.71 13.7671 183.007 13.7671C183.827 13.7671 184.527 13.8687 185.105 14.0718C185.691 14.2671 186.167 14.5405 186.534 14.8921C186.909 15.2358 187.183 15.6421 187.355 16.1108C187.527 16.5718 187.613 17.0679 187.613 17.5991V21.4194C187.613 22.0835 187.62 22.6655 187.636 23.1655C187.659 23.6577 187.683 24.0835 187.706 24.4429C187.738 24.8022 187.773 25.103 187.812 25.3452C187.859 25.5874 187.905 25.7905 187.952 25.9546V26.0015H185.363V25.9546C185.402 25.8296 185.429 25.689 185.445 25.5327C185.468 25.3765 185.488 25.189 185.503 24.9702C185.339 25.1108 185.144 25.2554 184.917 25.4038C184.698 25.5522 184.445 25.689 184.155 25.814C183.874 25.9312 183.558 26.0249 183.206 26.0952C182.863 26.1733 182.484 26.2124 182.07 26.2124C180.71 26.2124 179.659 25.896 178.917 25.2632C178.175 24.6226 177.804 23.7163 177.804 22.5444ZM185.573 19.1343C184.863 19.1421 184.179 19.1851 183.523 19.2632C182.866 19.3335 182.284 19.4858 181.777 19.7202C181.277 19.9546 180.874 20.2905 180.57 20.728C180.273 21.1577 180.124 21.7319 180.124 22.4507C180.124 23.3726 180.355 24.0757 180.816 24.5601C181.277 25.0444 181.913 25.2866 182.726 25.2866C183.101 25.2866 183.441 25.2358 183.745 25.1343C184.058 25.0249 184.331 24.8921 184.566 24.7358C184.808 24.5718 185.011 24.396 185.175 24.2085C185.339 24.0132 185.464 23.8257 185.55 23.646C185.566 23.3491 185.573 23.021 185.573 22.6616C185.573 22.2944 185.573 21.8804 185.573 21.4194V19.1343ZM207.637 11.8687H207.38C207.317 11.689 207.216 11.4858 207.075 11.2593C206.942 11.0327 206.762 10.8218 206.536 10.6265C206.317 10.4233 206.048 10.2554 205.727 10.1226C205.415 9.98975 205.044 9.92334 204.614 9.92334C204.231 9.92334 203.891 9.98193 203.595 10.0991C203.298 10.2163 203.048 10.3804 202.845 10.5913C202.649 10.8022 202.501 11.0522 202.399 11.3413C202.298 11.6304 202.247 11.9507 202.247 12.3022C202.247 12.8647 202.403 13.4038 202.716 13.9194C203.036 14.4272 203.434 14.9312 203.911 15.4312C204.387 15.9312 204.903 16.4312 205.458 16.9312C206.012 17.4312 206.528 17.9507 207.005 18.4897C207.481 19.0288 207.876 19.5952 208.188 20.189C208.509 20.7749 208.669 21.4077 208.669 22.0874C208.669 22.5952 208.579 23.1069 208.399 23.6226C208.227 24.1304 207.958 24.5874 207.591 24.9937C207.223 25.3999 206.751 25.7319 206.173 25.9897C205.595 26.2397 204.907 26.3647 204.11 26.3647C203.665 26.3647 203.239 26.3218 202.833 26.2358C202.434 26.1577 202.063 26.0601 201.72 25.9429C201.384 25.8179 201.079 25.6851 200.805 25.5444C200.54 25.4038 200.321 25.2749 200.149 25.1577L200.419 22.5679H200.712C200.798 22.9351 200.938 23.2866 201.134 23.6226C201.329 23.9507 201.567 24.2437 201.848 24.5015C202.137 24.7515 202.466 24.9546 202.833 25.1108C203.2 25.2593 203.602 25.3335 204.04 25.3335C204.438 25.3335 204.794 25.2749 205.106 25.1577C205.427 25.0327 205.7 24.8647 205.927 24.6538C206.153 24.4351 206.325 24.1772 206.442 23.8804C206.567 23.5835 206.63 23.2593 206.63 22.9077C206.63 22.4155 206.54 21.9624 206.36 21.5483C206.18 21.1265 205.942 20.728 205.645 20.353C205.356 19.978 205.024 19.6147 204.649 19.2632C204.282 18.9116 203.903 18.5601 203.512 18.2085C203.122 17.8491 202.739 17.4819 202.364 17.1069C201.997 16.7319 201.665 16.3335 201.368 15.9116C201.079 15.4819 200.845 15.0249 200.665 14.5405C200.485 14.0483 200.395 13.5093 200.395 12.9233C200.395 12.3062 200.512 11.7515 200.747 11.2593C200.989 10.7593 201.305 10.3335 201.696 9.98193C202.095 9.63037 202.544 9.36084 203.044 9.17334C203.544 8.98584 204.059 8.89209 204.591 8.89209C204.981 8.89209 205.341 8.92334 205.669 8.98584C205.997 9.04834 206.29 9.12256 206.548 9.2085C206.813 9.29443 207.044 9.38037 207.239 9.46631C207.434 9.55225 207.595 9.62256 207.72 9.67725L207.637 11.8687ZM211.896 19.978C211.896 19.0952 212.06 18.2788 212.388 17.5288C212.716 16.771 213.166 16.1147 213.736 15.5601C214.314 15.0054 214.994 14.5718 215.775 14.2593C216.556 13.9468 217.396 13.7905 218.295 13.7905C219.177 13.7905 220.005 13.939 220.779 14.2358C221.56 14.5249 222.24 14.939 222.818 15.478C223.396 16.0171 223.849 16.6733 224.177 17.4468C224.513 18.2202 224.681 19.0874 224.681 20.0483C224.681 20.853 224.541 21.6265 224.259 22.3687C223.978 23.1108 223.564 23.7671 223.017 24.3374C222.47 24.9077 221.798 25.3647 221.002 25.7085C220.212 26.0444 219.302 26.2124 218.271 26.2124C217.396 26.2124 216.572 26.0679 215.798 25.7788C215.025 25.4897 214.349 25.0757 213.771 24.5366C213.193 23.9976 212.736 23.3452 212.4 22.5796C212.064 21.8062 211.896 20.939 211.896 19.978ZM218.541 25.3569C219.095 25.3569 219.603 25.2476 220.064 25.0288C220.533 24.8101 220.935 24.4937 221.271 24.0796C221.607 23.6655 221.869 23.1616 222.056 22.5679C222.244 21.9741 222.337 21.3022 222.337 20.5522C222.337 19.7085 222.248 18.9272 222.068 18.2085C221.888 17.4819 221.619 16.8569 221.259 16.3335C220.908 15.8022 220.462 15.3882 219.923 15.0913C219.384 14.7944 218.755 14.646 218.037 14.646C217.482 14.646 216.974 14.7554 216.513 14.9741C216.052 15.1851 215.65 15.4937 215.306 15.8999C214.97 16.3062 214.709 16.8062 214.521 17.3999C214.334 17.9858 214.24 18.6538 214.24 19.4038C214.24 20.2476 214.33 21.0327 214.509 21.7593C214.697 22.4858 214.97 23.1187 215.33 23.6577C215.689 24.189 216.134 24.6069 216.666 24.9116C217.205 25.2085 217.83 25.3569 218.541 25.3569ZM238.256 23.5054L237.389 25.5913C237.178 25.6851 236.936 25.771 236.663 25.8491C236.389 25.9272 236.104 25.9937 235.807 26.0483C235.518 26.103 235.225 26.1421 234.928 26.1655C234.631 26.1968 234.35 26.2124 234.084 26.2124C233.139 26.2124 232.264 26.0757 231.459 25.8022C230.663 25.521 229.971 25.1147 229.385 24.5835C228.807 24.0522 228.354 23.3999 228.026 22.6265C227.698 21.853 227.534 20.9702 227.534 19.978C227.534 19.0952 227.702 18.2788 228.038 17.5288C228.381 16.771 228.854 16.1147 229.455 15.5601C230.065 15.0054 230.78 14.5718 231.6 14.2593C232.42 13.9468 233.311 13.7905 234.272 13.7905C234.709 13.7905 235.178 13.8296 235.678 13.9077C236.178 13.978 236.623 14.0718 237.014 14.189L237.846 16.1812L237.705 16.2632C237.51 16.021 237.276 15.8022 237.002 15.6069C236.737 15.4038 236.44 15.2319 236.112 15.0913C235.791 14.9507 235.452 14.8413 235.092 14.7632C234.733 14.6851 234.366 14.646 233.991 14.646C233.381 14.646 232.827 14.7554 232.327 14.9741C231.827 15.1851 231.397 15.4937 231.038 15.8999C230.678 16.3062 230.397 16.8062 230.194 17.3999C229.998 17.9858 229.901 18.6538 229.901 19.4038C229.901 20.2476 229.995 21.0327 230.182 21.7593C230.377 22.4858 230.663 23.1187 231.038 23.6577C231.42 24.189 231.897 24.6069 232.467 24.9116C233.045 25.2085 233.721 25.3569 234.495 25.3569C234.854 25.3569 235.209 25.314 235.561 25.228C235.92 25.1343 236.256 25.0054 236.569 24.8413C236.889 24.6694 237.182 24.4663 237.448 24.2319C237.713 23.9976 237.936 23.7319 238.116 23.4351L238.256 23.5054ZM241.905 18.5835C241.905 17.9194 241.894 17.3413 241.87 16.8491C241.855 16.3491 241.831 15.9194 241.8 15.5601C241.777 15.2007 241.741 14.8999 241.695 14.6577C241.655 14.4155 241.613 14.2124 241.566 14.0483V14.0015H244.273V14.0483C244.226 14.2124 244.183 14.4155 244.144 14.6577C244.105 14.8999 244.07 15.2007 244.038 15.5601C244.007 15.9194 243.984 16.3491 243.968 16.8491C243.952 17.3413 243.945 17.9194 243.945 18.5835V21.4194C243.945 22.0835 243.952 22.6655 243.968 23.1655C243.984 23.6577 244.007 24.0835 244.038 24.4429C244.07 24.8022 244.105 25.103 244.144 25.3452C244.183 25.5874 244.226 25.7905 244.273 25.9546V26.0015H241.566V25.9546C241.613 25.7905 241.655 25.5874 241.695 25.3452C241.741 25.103 241.777 24.8022 241.8 24.4429C241.831 24.0835 241.855 23.6577 241.87 23.1655C241.894 22.6655 241.905 22.0835 241.905 21.4194V18.5835ZM241.659 10.4507C241.659 10.2788 241.691 10.1187 241.753 9.97021C241.823 9.81396 241.913 9.68115 242.023 9.57178C242.132 9.45459 242.261 9.36475 242.409 9.30225C242.566 9.23193 242.734 9.19678 242.913 9.19678C243.093 9.19678 243.257 9.23193 243.405 9.30225C243.562 9.36475 243.695 9.45459 243.804 9.57178C243.921 9.68115 244.011 9.81396 244.073 9.97021C244.144 10.1187 244.179 10.2788 244.179 10.4507C244.179 10.8101 244.058 11.1108 243.816 11.353C243.573 11.5952 243.273 11.7163 242.913 11.7163C242.734 11.7163 242.566 11.6851 242.409 11.6226C242.261 11.5522 242.132 11.4624 242.023 11.353C241.913 11.2358 241.823 11.103 241.753 10.9546C241.691 10.7983 241.659 10.6304 241.659 10.4507ZM254.074 26.2124C253.207 26.2124 252.395 26.0757 251.637 25.8022C250.879 25.5288 250.219 25.1304 249.656 24.6069C249.094 24.0757 248.648 23.4233 248.32 22.6499C248 21.8687 247.84 20.978 247.84 19.978C247.84 19.0952 247.988 18.2788 248.285 17.5288C248.582 16.771 248.992 16.1147 249.516 15.5601C250.039 15.0054 250.648 14.5718 251.344 14.2593C252.047 13.9468 252.805 13.7905 253.617 13.7905C254.422 13.7905 255.168 13.9312 255.855 14.2124C256.543 14.4858 257.137 14.8882 257.637 15.4194C258.145 15.9429 258.543 16.5952 258.832 17.3765C259.129 18.1499 259.289 19.0327 259.312 20.0249C258.43 20.0093 257.547 19.9976 256.664 19.9897C255.781 19.9819 254.863 19.978 253.91 19.978C253.23 19.978 252.566 19.9819 251.918 19.9897C251.277 19.9976 250.699 20.0093 250.184 20.0249C250.23 20.8374 250.355 21.5718 250.559 22.228C250.77 22.8843 251.055 23.4468 251.414 23.9155C251.781 24.3765 252.223 24.7319 252.738 24.9819C253.262 25.2319 253.852 25.3569 254.508 25.3569C254.961 25.3569 255.387 25.3062 255.785 25.2046C256.191 25.0952 256.559 24.9468 256.887 24.7593C257.215 24.5718 257.508 24.353 257.766 24.103C258.023 23.8452 258.242 23.5679 258.422 23.271L258.562 23.3413L257.695 25.4272C257.273 25.646 256.77 25.8335 256.184 25.9897C255.598 26.1382 254.895 26.2124 254.074 26.2124ZM252.516 19.064C253.297 19.064 254.078 19.064 254.859 19.064C255.648 19.0562 256.363 19.0405 257.004 19.0171C256.934 18.3374 256.801 17.728 256.605 17.189C256.41 16.6499 256.16 16.1929 255.855 15.8179C255.551 15.4429 255.191 15.1538 254.777 14.9507C254.363 14.7476 253.906 14.646 253.406 14.646C252.953 14.646 252.535 14.7476 252.152 14.9507C251.777 15.146 251.449 15.4312 251.168 15.8062C250.887 16.1812 250.66 16.6421 250.488 17.189C250.316 17.728 250.215 18.3452 250.184 19.0405C250.535 19.0562 250.906 19.064 251.297 19.064C251.688 19.064 252.094 19.064 252.516 19.064ZM267.274 25.3101C267.509 25.3101 267.739 25.2671 267.966 25.1812C268.2 25.0952 268.423 24.978 268.634 24.8296C268.852 24.6812 269.059 24.5132 269.255 24.3257C269.458 24.1304 269.645 23.9272 269.817 23.7163L269.934 23.7749L269.173 25.6616C269.079 25.7085 268.962 25.7671 268.821 25.8374C268.688 25.8999 268.524 25.9585 268.329 26.0132C268.141 26.0757 267.919 26.1265 267.661 26.1655C267.403 26.2124 267.098 26.2358 266.747 26.2358C265.7 26.2358 264.884 25.9546 264.298 25.3921C263.72 24.8218 263.43 23.9351 263.43 22.7319V14.9155L261.462 14.9858V13.9546C261.704 13.9702 261.993 13.9819 262.329 13.9897C262.665 13.9976 263.032 14.0015 263.43 14.0015C263.423 13.4468 263.407 12.9585 263.384 12.5366C263.368 12.1069 263.345 11.7358 263.313 11.4233C263.29 11.103 263.259 10.8335 263.22 10.6147C263.18 10.396 263.141 10.2124 263.102 10.064V10.0171H265.809V10.064C265.762 10.2124 265.72 10.396 265.68 10.6147C265.641 10.8335 265.606 11.0991 265.575 11.4116C265.552 11.7241 265.528 12.0952 265.505 12.5249C265.489 12.9468 265.477 13.439 265.47 14.0015C265.962 13.9937 266.442 13.9858 266.911 13.978C267.387 13.9624 267.817 13.9468 268.2 13.9312C268.591 13.9077 268.919 13.8882 269.184 13.8726C269.458 13.8491 269.637 13.8296 269.723 13.814L269.512 15.0093C269.114 15.0015 268.696 14.9897 268.259 14.9741C267.884 14.9585 267.454 14.9468 266.97 14.939C266.485 14.9312 265.985 14.9233 265.47 14.9155V22.978C265.47 23.4624 265.52 23.8569 265.622 24.1616C265.731 24.4585 265.868 24.6929 266.032 24.8647C266.204 25.0366 266.395 25.1538 266.606 25.2163C266.825 25.2788 267.048 25.3101 267.274 25.3101ZM277.205 25.8608L273.08 16.8374C272.931 16.4937 272.771 16.1655 272.599 15.853C272.427 15.5327 272.263 15.2476 272.107 14.9976C271.959 14.7476 271.826 14.5405 271.709 14.3765C271.591 14.2046 271.513 14.0952 271.474 14.0483V14.0015H274.545V14.0483C274.529 14.0874 274.517 14.146 274.509 14.2241C274.502 14.3022 274.498 14.3726 274.498 14.4351C274.498 14.6772 274.533 14.9468 274.603 15.2437C274.681 15.5327 274.822 15.896 275.025 16.3335L278.259 23.3647L281.212 16.4272C281.337 16.1382 281.462 15.8218 281.587 15.478C281.72 15.1343 281.787 14.7866 281.787 14.4351C281.787 14.3335 281.779 14.2515 281.763 14.189C281.748 14.1187 281.732 14.0718 281.716 14.0483V14.0015H283.826V14.0483C283.685 14.1968 283.505 14.4624 283.287 14.8452C283.076 15.2202 282.849 15.6929 282.607 16.2632L277.017 29.5757C276.892 29.8647 276.763 30.1812 276.63 30.5249C276.505 30.8687 276.443 31.2163 276.443 31.5679C276.443 31.6694 276.451 31.7515 276.466 31.814C276.482 31.8843 276.498 31.9312 276.513 31.9546V32.0015H274.322V31.9546C274.47 31.8062 274.65 31.5444 274.861 31.1694C275.08 30.8022 275.31 30.3374 275.552 29.7749L277.205 25.8608Z" fill="#C92B1F"/>
<path d="M57.3564 34.1987L64.3975 41.6909V36.8784C64.3975 36.491 64.3929 36.1538 64.3838 35.8667C64.3747 35.575 64.361 35.3244 64.3428 35.1147C64.3245 34.9006 64.3018 34.7228 64.2744 34.5815C64.2516 34.4403 64.2266 34.3218 64.1992 34.2261V34.1987H65.416V34.2261C65.3887 34.3218 65.3636 34.4403 65.3408 34.5815C65.318 34.7228 65.2975 34.9006 65.2793 35.1147C65.2611 35.3244 65.2474 35.575 65.2383 35.8667C65.2292 36.1538 65.2246 36.491 65.2246 36.8784V44.1382H64.9854L57.9443 36.6528V41.3286C57.9443 41.716 57.9489 42.0555 57.958 42.3472C57.9671 42.6343 57.9808 42.8826 57.999 43.0923C58.0173 43.3019 58.0378 43.4774 58.0605 43.6187C58.0833 43.7599 58.1084 43.8784 58.1357 43.9741V44.0015H56.9189V43.9741C56.9463 43.8784 56.9714 43.7599 56.9941 43.6187C57.0215 43.4774 57.0443 43.3019 57.0625 43.0923C57.0807 42.8826 57.0944 42.6343 57.1035 42.3472C57.1126 42.0555 57.1172 41.716 57.1172 41.3286V36.8784C57.1172 36.491 57.1126 36.1538 57.1035 35.8667C57.0944 35.575 57.0807 35.3244 57.0625 35.1147C57.0443 34.9006 57.0215 34.7228 56.9941 34.5815C56.9714 34.4403 56.9463 34.3218 56.9189 34.2261V34.1987H57.3564ZM67.5516 41.9849C67.5516 41.6248 67.6245 41.3127 67.7703 41.0483C67.9207 40.784 68.1189 40.5584 68.365 40.3716C68.6111 40.1847 68.8914 40.0343 69.2059 39.9204C69.5203 39.8019 69.8462 39.7108 70.1834 39.647C70.5206 39.5786 70.8533 39.533 71.1814 39.5103C71.5096 39.4829 71.8104 39.467 72.0838 39.4624V39.1138C72.0838 38.813 72.0451 38.5532 71.9676 38.3345C71.8901 38.1157 71.7807 37.9357 71.6395 37.7944C71.4982 37.6486 71.3273 37.5415 71.1268 37.4731C70.9308 37.4002 70.7143 37.3638 70.4773 37.3638C70.3133 37.3638 70.1515 37.3774 69.992 37.4048C69.8325 37.4321 69.6661 37.4777 69.493 37.5415C69.3243 37.6053 69.1443 37.6919 68.9529 37.8013C68.7661 37.9106 68.5633 38.0496 68.3445 38.2183L68.2762 38.1772L68.741 37.2134C68.8914 37.145 69.0395 37.0903 69.1854 37.0493C69.3312 37.0037 69.4793 36.9673 69.6297 36.9399C69.7801 36.9126 69.9327 36.8944 70.0877 36.8853C70.2472 36.8716 70.4135 36.8647 70.5867 36.8647C71.0652 36.8647 71.4731 36.924 71.8104 37.0425C72.1521 37.1564 72.4301 37.3159 72.6443 37.521C72.8631 37.7215 73.0226 37.9585 73.1229 38.2319C73.2231 38.5008 73.2732 38.7902 73.2732 39.1001V41.3286C73.2732 41.716 73.2778 42.0555 73.2869 42.3472C73.3006 42.6343 73.3143 42.8826 73.3279 43.0923C73.3462 43.3019 73.3667 43.4774 73.3895 43.6187C73.4168 43.7599 73.4441 43.8784 73.4715 43.9741V44.0015H71.9607V43.9741C71.9835 43.9012 71.9995 43.8192 72.0086 43.728C72.0223 43.6369 72.0337 43.5275 72.0428 43.3999C71.9471 43.4819 71.8331 43.5662 71.701 43.6528C71.5734 43.7394 71.4253 43.8192 71.2566 43.8921C71.0926 43.9604 70.908 44.0151 70.7029 44.0562C70.5024 44.1017 70.2814 44.1245 70.0398 44.1245C69.2469 44.1245 68.6339 43.9399 68.201 43.5708C67.768 43.1971 67.5516 42.6685 67.5516 41.9849ZM72.0838 39.9956C71.6691 40.0002 71.2703 40.0252 70.8875 40.0708C70.5047 40.1118 70.1652 40.2007 69.8689 40.3374C69.5773 40.4741 69.3426 40.6701 69.1648 40.9253C68.9917 41.1759 68.9051 41.5109 68.9051 41.9302C68.9051 42.4679 69.0395 42.8781 69.3084 43.1606C69.5773 43.4432 69.9487 43.5845 70.4227 43.5845C70.6414 43.5845 70.8396 43.5549 71.0174 43.4956C71.1997 43.4318 71.3592 43.3543 71.4959 43.2632C71.6372 43.1675 71.7557 43.0649 71.8514 42.9556C71.9471 42.8416 72.02 42.7323 72.0701 42.6274C72.0792 42.4543 72.0838 42.2629 72.0838 42.0532C72.0838 41.839 72.0838 41.5975 72.0838 41.3286V39.9956ZM78.69 47.1255C79.0592 47.1255 79.3714 47.0845 79.6266 47.0024C79.8818 46.925 80.0914 46.8156 80.2555 46.6743C80.4241 46.533 80.5517 46.3621 80.6383 46.1616C80.7294 45.9657 80.7955 45.7492 80.8365 45.5122C80.8821 45.2752 80.9072 45.0223 80.9117 44.7534C80.9208 44.4845 80.9254 44.2065 80.9254 43.9194V43.6938C80.7021 43.8123 80.4332 43.9149 80.1187 44.0015C79.8043 44.0835 79.4488 44.1245 79.0523 44.1245C78.51 44.1245 78.0178 44.0402 77.5758 43.8716C77.1337 43.703 76.7555 43.4614 76.441 43.147C76.1311 42.8325 75.8919 42.452 75.7232 42.0054C75.5546 41.5542 75.4703 41.0483 75.4703 40.4878C75.4703 39.9728 75.5523 39.4943 75.7164 39.0522C75.885 38.6102 76.1197 38.2274 76.4205 37.9038C76.7258 37.5802 77.0882 37.3273 77.5074 37.145C77.9312 36.9582 78.3984 36.8647 78.9088 36.8647C79.1275 36.8647 79.3281 36.883 79.5104 36.9194C79.6926 36.9559 79.8613 37.006 80.0162 37.0698C80.1757 37.1291 80.3238 37.1997 80.4605 37.2817C80.6018 37.3592 80.7385 37.4435 80.8707 37.5347L80.8023 37.0288V37.0015H82.3131V37.0288C82.2857 37.1245 82.2584 37.243 82.2311 37.3843C82.2083 37.5256 82.1878 37.701 82.1695 37.9106C82.1559 38.1203 82.1422 38.3709 82.1285 38.6626C82.1194 38.9497 82.1148 39.2869 82.1148 39.6743V44.3228C82.1148 44.742 82.0579 45.1499 81.9439 45.5464C81.8346 45.9474 81.6454 46.3029 81.3766 46.6128C81.1122 46.9227 80.7613 47.1711 80.3238 47.3579C79.8863 47.5448 79.3417 47.6382 78.69 47.6382C78.4622 47.6382 78.232 47.6154 77.9996 47.5698C77.7672 47.5288 77.5462 47.4764 77.3365 47.4126C77.1269 47.3534 76.9378 47.2873 76.7691 47.2144C76.6005 47.1414 76.4661 47.0776 76.3658 47.0229L76.1539 45.7104L76.2633 45.6831C76.3727 45.9201 76.5208 46.1274 76.7076 46.3052C76.899 46.4875 77.1064 46.6379 77.3297 46.7563C77.553 46.8794 77.7831 46.9705 78.0201 47.0298C78.2617 47.0936 78.485 47.1255 78.69 47.1255ZM79.36 43.6255C79.6881 43.6255 79.9843 43.5708 80.2486 43.4614C80.5175 43.3521 80.7431 43.2244 80.9254 43.0786V39.6743C80.9254 39.4191 80.9231 39.189 80.9186 38.9839C80.914 38.7743 80.9117 38.5851 80.9117 38.4165C80.8023 38.2479 80.6747 38.0998 80.5289 37.9722C80.3876 37.84 80.235 37.7306 80.0709 37.644C79.9114 37.5529 79.7473 37.4845 79.5787 37.439C79.4101 37.3888 79.2437 37.3638 79.0797 37.3638C78.7333 37.3638 78.4212 37.4276 78.1432 37.5552C77.8652 37.6828 77.6282 37.8674 77.4322 38.1089C77.2408 38.3459 77.0927 38.6375 76.9879 38.9839C76.8876 39.3257 76.8375 39.7153 76.8375 40.1528C76.8375 40.645 76.8922 41.103 77.0016 41.5269C77.1109 41.9507 77.2704 42.3198 77.4801 42.6343C77.6943 42.9442 77.9586 43.188 78.273 43.3657C78.5875 43.5389 78.9498 43.6255 79.36 43.6255ZM84.9203 39.5376C84.9203 39.1502 84.9135 38.813 84.8998 38.5259C84.8907 38.2342 84.877 37.9836 84.8588 37.7739C84.8451 37.5643 84.8246 37.3888 84.7973 37.2476C84.7745 37.1063 84.7494 36.9878 84.7221 36.8921V36.8647H86.3012V36.8921C86.2784 36.9604 86.2579 37.0379 86.2396 37.1245C86.2214 37.2111 86.2055 37.3091 86.1918 37.4185C86.4607 37.2635 86.7569 37.1336 87.0805 37.0288C87.4086 36.9194 87.7709 36.8647 88.1674 36.8647C88.6732 36.8647 89.1335 36.9513 89.5482 37.1245C89.9675 37.2931 90.3253 37.5369 90.6215 37.856C90.9223 38.175 91.1547 38.5601 91.3188 39.0112C91.4828 39.4624 91.5648 39.9683 91.5648 40.5288C91.5648 40.9982 91.4828 41.4494 91.3188 41.8823C91.1592 42.3153 90.9223 42.6981 90.6078 43.0308C90.2979 43.3634 89.9151 43.63 89.4594 43.8306C89.0036 44.0265 88.4796 44.1245 87.8871 44.1245C87.5316 44.1245 87.2081 44.0972 86.9164 44.0425C86.6247 43.9878 86.3559 43.9172 86.1098 43.8306V44.8286C86.1098 45.216 86.1143 45.5532 86.1234 45.8403C86.1326 46.132 86.1462 46.3826 86.1645 46.5923C86.1827 46.8019 86.2032 46.9774 86.226 47.1187C86.2488 47.2599 86.2738 47.3784 86.3012 47.4741V47.5015H84.7221V47.4741C84.7494 47.3784 84.7745 47.2599 84.7973 47.1187C84.8246 46.9774 84.8451 46.8019 84.8588 46.5923C84.877 46.3826 84.8907 46.132 84.8998 45.8403C84.9135 45.5532 84.9203 45.216 84.9203 44.8286V39.5376ZM87.9281 37.3774C87.7732 37.3774 87.6137 37.3979 87.4496 37.439C87.2901 37.4754 87.1306 37.5301 86.9711 37.603C86.8161 37.6714 86.6658 37.7603 86.5199 37.8696C86.3786 37.9744 86.251 38.0952 86.1371 38.2319C86.128 38.4051 86.1212 38.6011 86.1166 38.8198C86.112 39.0386 86.1098 39.2778 86.1098 39.5376V43.1196C86.2009 43.188 86.3035 43.2518 86.4174 43.311C86.5313 43.3703 86.6589 43.425 86.8002 43.4751C86.946 43.5207 87.1078 43.5571 87.2855 43.5845C87.4678 43.6118 87.6684 43.6255 87.8871 43.6255C88.2426 43.6255 88.5639 43.5617 88.851 43.4341C89.1381 43.3065 89.3796 43.1219 89.5756 42.8804C89.7761 42.6388 89.9288 42.3449 90.0336 41.9985C90.143 41.6522 90.1977 41.2603 90.1977 40.8228C90.1977 40.3306 90.1566 39.8748 90.0746 39.4556C89.9926 39.0317 89.8604 38.6672 89.6781 38.3618C89.5004 38.0519 89.268 37.8104 88.9809 37.6372C88.6938 37.464 88.3428 37.3774 87.9281 37.3774ZM94.9445 41.6089C94.9445 42.2104 95.063 42.6525 95.3 42.9351C95.5415 43.2176 95.8651 43.3589 96.2707 43.3589C96.4165 43.3589 96.5806 43.3293 96.7629 43.27C96.9452 43.2062 97.132 43.1242 97.3234 43.0239C97.5194 42.9191 97.7131 42.7983 97.9045 42.6616C98.1005 42.5249 98.2805 42.3791 98.4445 42.2241C98.4536 42.092 98.4582 41.953 98.4582 41.8071C98.4582 41.6567 98.4582 41.4972 98.4582 41.3286V39.6743C98.4582 39.2869 98.4514 38.9497 98.4377 38.6626C98.4286 38.3709 98.4149 38.1203 98.3967 37.9106C98.383 37.701 98.3625 37.5256 98.3352 37.3843C98.3124 37.243 98.2873 37.1245 98.26 37.0288V37.0015H99.8391V37.0288C99.8117 37.1245 99.7867 37.243 99.7639 37.3843C99.7411 37.5256 99.7206 37.701 99.7023 37.9106C99.6841 38.1203 99.6704 38.3709 99.6613 38.6626C99.6522 38.9497 99.6477 39.2869 99.6477 39.6743V41.3286C99.6477 41.716 99.6522 42.0555 99.6613 42.3472C99.6704 42.6343 99.6841 42.8826 99.7023 43.0923C99.7206 43.3019 99.7411 43.4774 99.7639 43.6187C99.7867 43.7599 99.8117 43.8784 99.8391 43.9741V44.0015H98.26V43.9741C98.2873 43.8602 98.3146 43.7144 98.342 43.5366C98.3739 43.3589 98.3967 43.1265 98.4104 42.8394C98.2235 42.9989 98.0207 43.1561 97.802 43.311C97.5878 43.466 97.3622 43.605 97.1252 43.728C96.8928 43.8511 96.6558 43.9491 96.4143 44.022C96.1773 44.0994 95.9426 44.1382 95.7102 44.1382C95.3547 44.1382 95.0516 44.0767 94.801 43.9536C94.5549 43.8306 94.3521 43.6688 94.1926 43.4683C94.0376 43.2677 93.9237 43.0399 93.8508 42.7847C93.7824 42.5295 93.7482 42.2674 93.7482 41.9985V39.6743C93.7482 39.2869 93.7437 38.9497 93.7346 38.6626C93.7255 38.3709 93.7118 38.1203 93.6936 37.9106C93.6753 37.701 93.6548 37.5256 93.632 37.3843C93.6092 37.243 93.5842 37.1245 93.5568 37.0288V37.0015H95.1359V37.0288C95.1086 37.1245 95.0835 37.243 95.0607 37.3843C95.038 37.5256 95.0174 37.701 94.9992 37.9106C94.981 38.1203 94.9673 38.3709 94.9582 38.6626C94.9491 38.9497 94.9445 39.2869 94.9445 39.6743V41.6089ZM102.453 39.6743C102.453 39.2869 102.446 38.9497 102.433 38.6626C102.424 38.3709 102.41 38.1203 102.392 37.9106C102.378 37.701 102.357 37.5256 102.33 37.3843C102.307 37.243 102.282 37.1245 102.255 37.0288V37.0015H103.834V37.0288C103.798 37.1336 103.766 37.2612 103.738 37.4116C103.715 37.562 103.697 37.7557 103.684 37.9927C103.852 37.8514 104.028 37.7124 104.21 37.5757C104.392 37.439 104.579 37.3182 104.771 37.2134C104.962 37.1086 105.156 37.0243 105.352 36.9604C105.552 36.8966 105.753 36.8647 105.953 36.8647C106.076 36.8647 106.183 36.8716 106.274 36.8853C106.366 36.8944 106.448 36.9103 106.521 36.9331C106.593 36.9513 106.66 36.9741 106.719 37.0015C106.778 37.0243 106.835 37.047 106.89 37.0698L106.555 38.3755L106.438 38.3481C106.384 38.1476 106.281 37.9881 106.131 37.8696C105.98 37.7466 105.775 37.6851 105.516 37.6851C105.374 37.6851 105.226 37.7101 105.071 37.7603C104.916 37.8104 104.759 37.881 104.6 37.9722C104.44 38.0588 104.281 38.1613 104.121 38.2798C103.962 38.3937 103.807 38.5145 103.656 38.6421C103.647 38.7743 103.643 38.9178 103.643 39.0728C103.643 39.2277 103.643 39.3918 103.643 39.5649V41.3286C103.643 41.716 103.647 42.0555 103.656 42.3472C103.665 42.6343 103.679 42.8826 103.697 43.0923C103.715 43.3019 103.736 43.4774 103.759 43.6187C103.782 43.7599 103.807 43.8784 103.834 43.9741V44.0015H102.255V43.9741C102.282 43.8784 102.307 43.7599 102.33 43.6187C102.357 43.4774 102.378 43.3019 102.392 43.0923C102.41 42.8826 102.424 42.6343 102.433 42.3472C102.446 42.0555 102.453 41.716 102.453 41.3286V39.6743ZM121.401 35.7026L121.339 35.73C120.984 35.4019 120.556 35.1398 120.054 34.9438C119.558 34.7479 119.011 34.6499 118.414 34.6499C117.839 34.6499 117.313 34.741 116.835 34.9233C116.356 35.1011 115.944 35.3608 115.597 35.7026C115.255 36.0444 114.989 36.4637 114.797 36.9604C114.606 37.4572 114.51 38.0223 114.51 38.6558C114.51 39.353 114.601 40.0047 114.784 40.6108C114.966 41.2124 115.237 41.7342 115.597 42.1763C115.957 42.6183 116.406 42.967 116.944 43.2222C117.486 43.4728 118.117 43.5981 118.838 43.5981C119.097 43.5981 119.357 43.5708 119.617 43.5161C119.877 43.4614 120.125 43.3817 120.362 43.2769C120.603 43.1675 120.829 43.0376 121.039 42.8872C121.253 42.7323 121.447 42.5568 121.62 42.3608L121.695 42.4087L121.148 43.8032C120.806 43.9354 120.428 44.0356 120.013 44.104C119.603 44.1769 119.188 44.2134 118.769 44.2134C117.926 44.2134 117.154 44.0926 116.452 43.8511C115.754 43.605 115.153 43.2586 114.647 42.812C114.146 42.3654 113.754 41.8299 113.471 41.2056C113.193 40.5767 113.054 39.8794 113.054 39.1138C113.054 38.6808 113.109 38.2547 113.218 37.8354C113.332 37.4162 113.496 37.0174 113.711 36.6392C113.925 36.2609 114.189 35.9146 114.504 35.6001C114.818 35.2811 115.176 35.0054 115.577 34.7729C115.982 34.5405 116.427 34.3605 116.91 34.2329C117.397 34.1007 117.924 34.0347 118.489 34.0347C119.368 34.0347 120.184 34.1691 120.936 34.438L121.401 35.7026ZM128.424 39.394C128.424 38.7925 128.303 38.3504 128.062 38.0679C127.82 37.7853 127.497 37.644 127.091 37.644C126.941 37.644 126.772 37.6759 126.585 37.7397C126.403 37.799 126.214 37.881 126.018 37.9858C125.827 38.0907 125.635 38.2137 125.444 38.355C125.252 38.4917 125.075 38.6375 124.911 38.7925V41.3286C124.911 41.716 124.915 42.0555 124.924 42.3472C124.933 42.6343 124.947 42.8826 124.965 43.0923C124.983 43.3019 125.004 43.4774 125.027 43.6187C125.05 43.7599 125.075 43.8784 125.102 43.9741V44.0015H123.523V43.9741C123.55 43.8784 123.575 43.7599 123.598 43.6187C123.625 43.4774 123.646 43.3019 123.66 43.0923C123.678 42.8826 123.691 42.6343 123.701 42.3472C123.714 42.0555 123.721 41.716 123.721 41.3286V36.4546C123.721 36.0672 123.714 35.73 123.701 35.4429C123.691 35.1512 123.678 34.9006 123.66 34.6909C123.646 34.4813 123.625 34.3058 123.598 34.1646C123.575 34.0233 123.55 33.9048 123.523 33.8091V33.7817H125.102V33.8091C125.075 33.9048 125.05 34.0233 125.027 34.1646C125.004 34.3058 124.983 34.4813 124.965 34.6909C124.947 34.9006 124.933 35.1512 124.924 35.4429C124.915 35.73 124.911 36.0672 124.911 36.4546V38.2046C125.093 38.0405 125.293 37.8787 125.512 37.7192C125.735 37.5597 125.966 37.4162 126.203 37.2886C126.44 37.161 126.681 37.0584 126.927 36.981C127.173 36.9035 127.415 36.8647 127.652 36.8647C128.007 36.8647 128.308 36.9263 128.554 37.0493C128.805 37.1724 129.008 37.3341 129.162 37.5347C129.322 37.7352 129.436 37.9653 129.504 38.2251C129.577 38.4803 129.614 38.7401 129.614 39.0044V41.3286C129.614 41.716 129.618 42.0555 129.627 42.3472C129.636 42.6343 129.65 42.8826 129.668 43.0923C129.687 43.3019 129.707 43.4774 129.73 43.6187C129.753 43.7599 129.778 43.8784 129.805 43.9741V44.0015H128.226V43.9741C128.253 43.8784 128.278 43.7599 128.301 43.6187C128.329 43.4774 128.349 43.3019 128.363 43.0923C128.381 42.8826 128.395 42.6343 128.404 42.3472C128.417 42.0555 128.424 41.716 128.424 41.3286V39.394ZM131.831 41.9849C131.831 41.6248 131.904 41.3127 132.05 41.0483C132.2 40.784 132.399 40.5584 132.645 40.3716C132.891 40.1847 133.171 40.0343 133.486 39.9204C133.8 39.8019 134.126 39.7108 134.463 39.647C134.8 39.5786 135.133 39.533 135.461 39.5103C135.789 39.4829 136.09 39.467 136.363 39.4624V39.1138C136.363 38.813 136.325 38.5532 136.247 38.3345C136.17 38.1157 136.06 37.9357 135.919 37.7944C135.778 37.6486 135.607 37.5415 135.406 37.4731C135.21 37.4002 134.994 37.3638 134.757 37.3638C134.593 37.3638 134.431 37.3774 134.272 37.4048C134.112 37.4321 133.946 37.4777 133.773 37.5415C133.604 37.6053 133.424 37.6919 133.233 37.8013C133.046 37.9106 132.843 38.0496 132.624 38.2183L132.556 38.1772L133.021 37.2134C133.171 37.145 133.319 37.0903 133.465 37.0493C133.611 37.0037 133.759 36.9673 133.909 36.9399C134.06 36.9126 134.212 36.8944 134.367 36.8853C134.527 36.8716 134.693 36.8647 134.866 36.8647C135.345 36.8647 135.753 36.924 136.09 37.0425C136.432 37.1564 136.71 37.3159 136.924 37.521C137.143 37.7215 137.302 37.9585 137.403 38.2319C137.503 38.5008 137.553 38.7902 137.553 39.1001V41.3286C137.553 41.716 137.557 42.0555 137.567 42.3472C137.58 42.6343 137.594 42.8826 137.608 43.0923C137.626 43.3019 137.646 43.4774 137.669 43.6187C137.696 43.7599 137.724 43.8784 137.751 43.9741V44.0015H136.24V43.9741C136.263 43.9012 136.279 43.8192 136.288 43.728C136.302 43.6369 136.313 43.5275 136.322 43.3999C136.227 43.4819 136.113 43.5662 135.981 43.6528C135.853 43.7394 135.705 43.8192 135.536 43.8921C135.372 43.9604 135.188 44.0151 134.983 44.0562C134.782 44.1017 134.561 44.1245 134.32 44.1245C133.527 44.1245 132.914 43.9399 132.481 43.5708C132.048 43.1971 131.831 42.6685 131.831 41.9849ZM136.363 39.9956C135.949 40.0002 135.55 40.0252 135.167 40.0708C134.784 40.1118 134.445 40.2007 134.149 40.3374C133.857 40.4741 133.622 40.6701 133.445 40.9253C133.271 41.1759 133.185 41.5109 133.185 41.9302C133.185 42.4679 133.319 42.8781 133.588 43.1606C133.857 43.4432 134.228 43.5845 134.702 43.5845C134.921 43.5845 135.119 43.5549 135.297 43.4956C135.479 43.4318 135.639 43.3543 135.776 43.2632C135.917 43.1675 136.035 43.0649 136.131 42.9556C136.227 42.8416 136.3 42.7323 136.35 42.6274C136.359 42.4543 136.363 42.2629 136.363 42.0532C136.363 41.839 136.363 41.5975 136.363 41.3286V39.9956ZM140.324 39.5376C140.324 39.1502 140.317 38.813 140.304 38.5259C140.295 38.2342 140.281 37.9836 140.263 37.7739C140.249 37.5643 140.229 37.3888 140.201 37.2476C140.178 37.1063 140.153 36.9878 140.126 36.8921V36.8647H141.705V36.8921C141.682 36.9604 141.662 37.0379 141.644 37.1245C141.625 37.2111 141.609 37.3091 141.596 37.4185C141.865 37.2635 142.161 37.1336 142.484 37.0288C142.812 36.9194 143.175 36.8647 143.571 36.8647C144.077 36.8647 144.537 36.9513 144.952 37.1245C145.371 37.2931 145.729 37.5369 146.025 37.856C146.326 38.175 146.559 38.5601 146.723 39.0112C146.887 39.4624 146.969 39.9683 146.969 40.5288C146.969 40.9982 146.887 41.4494 146.723 41.8823C146.563 42.3153 146.326 42.6981 146.012 43.0308C145.702 43.3634 145.319 43.63 144.863 43.8306C144.408 44.0265 143.883 44.1245 143.291 44.1245C142.936 44.1245 142.612 44.0972 142.32 44.0425C142.029 43.9878 141.76 43.9172 141.514 43.8306V44.8286C141.514 45.216 141.518 45.5532 141.527 45.8403C141.536 46.132 141.55 46.3826 141.568 46.5923C141.587 46.8019 141.607 46.9774 141.63 47.1187C141.653 47.2599 141.678 47.3784 141.705 47.4741V47.5015H140.126V47.4741C140.153 47.3784 140.178 47.2599 140.201 47.1187C140.229 46.9774 140.249 46.8019 140.263 46.5923C140.281 46.3826 140.295 46.132 140.304 45.8403C140.317 45.5532 140.324 45.216 140.324 44.8286V39.5376ZM143.332 37.3774C143.177 37.3774 143.018 37.3979 142.854 37.439C142.694 37.4754 142.535 37.5301 142.375 37.603C142.22 37.6714 142.07 37.7603 141.924 37.8696C141.783 37.9744 141.655 38.0952 141.541 38.2319C141.532 38.4051 141.525 38.6011 141.521 38.8198C141.516 39.0386 141.514 39.2778 141.514 39.5376V43.1196C141.605 43.188 141.707 43.2518 141.821 43.311C141.935 43.3703 142.063 43.425 142.204 43.4751C142.35 43.5207 142.512 43.5571 142.689 43.5845C142.872 43.6118 143.072 43.6255 143.291 43.6255C143.646 43.6255 143.968 43.5617 144.255 43.4341C144.542 43.3065 144.784 43.1219 144.979 42.8804C145.18 42.6388 145.333 42.3449 145.438 41.9985C145.547 41.6522 145.602 41.2603 145.602 40.8228C145.602 40.3306 145.561 39.8748 145.479 39.4556C145.396 39.0317 145.264 38.6672 145.082 38.3618C144.904 38.0519 144.672 37.8104 144.385 37.6372C144.098 37.464 143.747 37.3774 143.332 37.3774ZM151.675 43.5981C151.811 43.5981 151.946 43.5731 152.078 43.5229C152.215 43.4728 152.345 43.4045 152.468 43.3179C152.595 43.2313 152.716 43.1333 152.83 43.0239C152.948 42.91 153.058 42.7915 153.158 42.6685L153.226 42.7026L152.782 43.8032C152.727 43.8306 152.659 43.8647 152.577 43.9058C152.499 43.9422 152.404 43.9764 152.29 44.0083C152.18 44.0448 152.051 44.0744 151.9 44.0972C151.75 44.1245 151.572 44.1382 151.367 44.1382C150.756 44.1382 150.28 43.9741 149.938 43.646C149.601 43.3133 149.432 42.7961 149.432 42.0942V37.5347L148.284 37.5757V36.9741C148.425 36.9832 148.594 36.9901 148.79 36.9946C148.986 36.9992 149.2 37.0015 149.432 37.0015C149.428 36.6779 149.419 36.3931 149.405 36.147C149.396 35.8963 149.382 35.6799 149.364 35.4976C149.35 35.3107 149.332 35.1535 149.309 35.0259C149.287 34.8983 149.264 34.7912 149.241 34.7046V34.6772H150.82V34.7046C150.793 34.7912 150.768 34.8983 150.745 35.0259C150.722 35.1535 150.702 35.3084 150.683 35.4907C150.67 35.673 150.656 35.8895 150.642 36.1401C150.633 36.3862 150.626 36.6733 150.622 37.0015C150.909 36.9969 151.189 36.9924 151.463 36.9878C151.741 36.9787 151.991 36.9696 152.215 36.9604C152.443 36.9468 152.634 36.9354 152.789 36.9263C152.948 36.9126 153.053 36.9012 153.103 36.8921L152.98 37.5894C152.748 37.5848 152.504 37.578 152.249 37.5688C152.03 37.5597 151.779 37.5529 151.497 37.5483C151.214 37.5438 150.923 37.5392 150.622 37.5347V42.2378C150.622 42.5203 150.651 42.7505 150.711 42.9282C150.775 43.1014 150.854 43.2381 150.95 43.3384C151.05 43.4386 151.162 43.507 151.285 43.5435C151.413 43.5799 151.542 43.5981 151.675 43.5981ZM158.336 44.1245C157.83 44.1245 157.356 44.0448 156.914 43.8853C156.472 43.7257 156.087 43.4933 155.758 43.188C155.43 42.8781 155.171 42.4976 154.979 42.0464C154.792 41.5907 154.699 41.0711 154.699 40.4878C154.699 39.9728 154.785 39.4966 154.959 39.0591C155.132 38.617 155.371 38.2342 155.676 37.9106C155.982 37.5871 156.337 37.3341 156.743 37.1519C157.153 36.9696 157.595 36.8784 158.069 36.8784C158.538 36.8784 158.974 36.9604 159.375 37.1245C159.776 37.284 160.122 37.5187 160.414 37.8286C160.71 38.134 160.942 38.5145 161.111 38.9702C161.284 39.4214 161.378 39.9364 161.391 40.5151C160.876 40.506 160.361 40.4992 159.846 40.4946C159.331 40.4901 158.796 40.4878 158.24 40.4878C157.843 40.4878 157.456 40.4901 157.078 40.4946C156.704 40.4992 156.367 40.506 156.066 40.5151C156.093 40.9891 156.166 41.4175 156.285 41.8003C156.408 42.1831 156.574 42.5112 156.784 42.7847C156.998 43.0535 157.255 43.2609 157.556 43.4067C157.862 43.5526 158.206 43.6255 158.588 43.6255C158.853 43.6255 159.101 43.5959 159.334 43.5366C159.571 43.4728 159.785 43.3862 159.976 43.2769C160.168 43.1675 160.338 43.0399 160.489 42.894C160.639 42.7437 160.767 42.5819 160.872 42.4087L160.954 42.4497L160.448 43.6665C160.202 43.7941 159.908 43.9035 159.566 43.9946C159.224 44.0812 158.814 44.1245 158.336 44.1245ZM157.426 39.9546C157.882 39.9546 158.338 39.9546 158.794 39.9546C159.254 39.95 159.671 39.9409 160.045 39.9272C160.004 39.5308 159.926 39.1753 159.812 38.8608C159.698 38.5464 159.552 38.2798 159.375 38.061C159.197 37.8423 158.987 37.6737 158.746 37.5552C158.504 37.4367 158.238 37.3774 157.946 37.3774C157.682 37.3774 157.438 37.4367 157.214 37.5552C156.996 37.6691 156.804 37.8354 156.64 38.0542C156.476 38.2729 156.344 38.5418 156.244 38.8608C156.143 39.1753 156.084 39.5353 156.066 39.9409C156.271 39.95 156.488 39.9546 156.715 39.9546C156.943 39.9546 157.18 39.9546 157.426 39.9546ZM163.561 39.6743C163.561 39.2869 163.554 38.9497 163.54 38.6626C163.531 38.3709 163.518 38.1203 163.499 37.9106C163.486 37.701 163.465 37.5256 163.438 37.3843C163.415 37.243 163.39 37.1245 163.363 37.0288V37.0015H164.942V37.0288C164.905 37.1336 164.873 37.2612 164.846 37.4116C164.823 37.562 164.805 37.7557 164.791 37.9927C164.96 37.8514 165.135 37.7124 165.318 37.5757C165.5 37.439 165.687 37.3182 165.878 37.2134C166.07 37.1086 166.263 37.0243 166.459 36.9604C166.66 36.8966 166.86 36.8647 167.061 36.8647C167.184 36.8647 167.291 36.8716 167.382 36.8853C167.473 36.8944 167.555 36.9103 167.628 36.9331C167.701 36.9513 167.767 36.9741 167.827 37.0015C167.886 37.0243 167.943 37.047 167.997 37.0698L167.662 38.3755L167.546 38.3481C167.492 38.1476 167.389 37.9881 167.239 37.8696C167.088 37.7466 166.883 37.6851 166.623 37.6851C166.482 37.6851 166.334 37.7101 166.179 37.7603C166.024 37.8104 165.867 37.881 165.707 37.9722C165.548 38.0588 165.388 38.1613 165.229 38.2798C165.069 38.3937 164.914 38.5145 164.764 38.6421C164.755 38.7743 164.75 38.9178 164.75 39.0728C164.75 39.2277 164.75 39.3918 164.75 39.5649V41.3286C164.75 41.716 164.755 42.0555 164.764 42.3472C164.773 42.6343 164.787 42.8826 164.805 43.0923C164.823 43.3019 164.844 43.4774 164.867 43.6187C164.889 43.7599 164.914 43.8784 164.942 43.9741V44.0015H163.363V43.9741C163.39 43.8784 163.415 43.7599 163.438 43.6187C163.465 43.4774 163.486 43.3019 163.499 43.0923C163.518 42.8826 163.531 42.6343 163.54 42.3472C163.554 42.0555 163.561 41.716 163.561 41.3286V39.6743Z" fill="#090808"/>
<path d="M41.7923 13.8185C43.0275 12.2028 44.2488 10.7507 45.2656 9.59393C44.1942 10.4479 42.8986 11.4439 41.5076 12.4343C39.6798 13.7358 37.6817 15.0317 35.8078 15.9828C33.9451 16.9283 32.1631 17.5555 30.7819 17.47C28.0698 17.3023 25.804 15.641 24.0342 13.8294C23.1465 12.9208 22.3757 11.9661 21.7291 11.1267C21.5137 10.8471 21.3134 10.5822 21.1277 10.3365C21.1181 10.3237 21.1085 10.3111 21.099 10.2985C21.1356 10.3725 21.1733 10.4488 21.2121 10.5271C21.7046 11.522 22.3632 12.8525 23.043 14.349C23.8929 16.2201 24.7795 18.3581 25.4219 20.4392C26.0627 22.5153 26.468 24.5582 26.3366 26.231C26.2051 27.9052 25.4799 29.8404 24.4853 31.7868C23.4883 33.7377 22.2095 35.7208 20.9501 37.4955C19.8368 39.0644 18.7364 40.4736 17.8549 41.5578C18.6287 40.9607 19.5665 40.2836 20.6083 39.6253C22.0547 38.7114 23.7073 37.8301 25.4034 37.2516C27.0978 36.6736 28.852 36.3923 30.4934 36.6981C32.1383 37.0046 34.1018 38.1653 36.0438 39.6174C37.9944 41.076 39.9562 42.8542 41.602 44.4345C42.55 45.3447 43.4045 46.2005 44.0879 46.8883C43.9112 46.6483 43.7295 46.4026 43.5438 46.1514C41.923 43.9596 39.9983 41.3567 38.4094 38.5237C36.3982 34.9377 34.9017 30.945 35.2377 26.8922C35.4069 24.8522 36.2898 22.5769 37.5003 20.3247C38.7128 18.0687 40.2648 15.8165 41.7923 13.8185Z" fill="white" stroke="#5E5C5C" stroke-width="0.5"/>
<path d="M6.26503 13.7793C5.35882 12.375 4.45283 11.0938 3.65147 10.0141C4.43216 10.7593 5.31735 11.5768 6.25454 12.393C7.82363 13.7595 9.54404 15.1273 11.1673 16.1464C12.7775 17.1573 14.3395 17.8563 15.5784 17.8199C17.998 17.7488 20.061 16.1571 21.6797 14.4128C22.4933 13.5361 23.2051 12.6093 23.8033 11.7937C24.0027 11.5218 24.1882 11.2642 24.3602 11.0253C24.4272 10.9323 24.4921 10.8422 24.555 10.7551C24.4705 10.9597 24.3763 11.1853 24.2744 11.4298C23.8575 12.4292 23.3092 13.7436 22.7457 15.2273C22.015 17.1508 21.2555 19.3665 20.7171 21.5669C20.1795 23.7643 19.8581 25.9628 20.0149 27.8468C20.3267 31.5938 22.2665 35.7984 24.1093 39.0467C24.7963 40.2576 25.4725 41.3402 26.051 42.2226C25.4187 41.6337 24.668 40.9778 23.8384 40.3348C22.5923 39.3688 21.1613 38.4267 19.6802 37.7858C18.2007 37.1457 16.6518 36.7976 15.1796 37.0469C13.7053 37.2964 11.9277 38.3927 10.1679 39.7732C8.39781 41.1619 6.60763 42.8694 5.10336 44.3898C4.33697 45.1643 3.63609 45.8995 3.05126 46.5179C3.33107 46.1283 3.62308 45.7272 3.92333 45.3149C5.29947 43.4247 6.84848 41.2971 8.18708 38.9564C10.1081 35.5973 11.6212 31.761 11.6212 27.4578C11.6212 25.2883 10.9429 22.8968 9.9399 20.5418C8.93568 18.184 7.59871 15.8461 6.26503 13.7793Z" fill="#D20F00" stroke="#1A1919" stroke-width="0.5"/>
<path d="M18.8844 9.30754C19.0681 10.9665 18.7315 12.4936 18.0508 13.6208C17.3702 14.7479 16.356 15.4623 15.1789 15.5438C14.0017 15.6253 12.846 15.0612 11.9282 14.0447C11.0102 13.0282 10.3433 11.5706 10.1597 9.91163C9.97603 8.25264 10.3126 6.72562 10.9933 5.59842C11.6739 4.47127 12.6881 3.75689 13.8652 3.67539C15.0424 3.59388 16.1981 4.15802 17.116 5.1745C18.0339 6.19101 18.7008 7.64855 18.8844 9.30754Z" fill="#D20F00" stroke="#0E0E0E" stroke-width="0.5"/>
<path d="M26.8536 9.53194C26.761 11.1981 27.1775 12.7517 27.9141 13.9158C28.6505 15.0798 29.6968 15.8419 30.8723 15.9707C32.0477 16.0995 33.1655 15.5745 34.0216 14.585C34.8778 13.5954 35.4609 12.1513 35.5534 10.4852C35.646 8.81905 35.2295 7.26541 34.4929 6.10129C33.7564 4.93735 32.7102 4.17518 31.5347 4.04639C30.3593 3.9176 29.2415 4.44266 28.3854 5.4321C27.5291 6.42169 26.9461 7.86582 26.8536 9.53194Z" fill="white" stroke="#5E5C5C" stroke-width="0.5"/>
</svg>
