<svg width="380" height="387" viewBox="0 0 380 387" fill="none" xmlns="http://www.w3.org/2000/svg">
<g id="hemoLogo">
<g id="rightHand">
<path d="M250.867 79.1785C247.373 81.0855 237.5 82.8866 233 83.5488L262.778 143.145L290.571 146.721C295.071 148.707 307.882 156.812 323.129 173.34C338.375 189.868 353.039 194 358.466 194C361.113 194 368.154 192.967 375.142 188.835C382.11 184.715 378.076 172.877 375.166 167.426C376.045 169.078 374.713 167.689 362.436 149.104C350.048 130.352 323.658 109.771 312.012 101.825C297.718 90.303 273.101 76 262.778 76C260.264 76.2649 254.361 77.2714 250.867 79.1785Z" fill="white"/>
<path d="M233 83.5488C237.5 82.8866 247.373 81.0855 250.867 79.1785C254.361 77.2714 260.264 76.2649 262.778 76C273.101 76 297.718 90.303 312.012 101.825C323.658 109.771 350.048 130.352 362.436 149.104C374.824 167.857 376.068 169.102 375.142 167.38C378.053 172.81 382.13 184.703 375.142 188.835C368.154 192.967 361.113 194 358.466 194C353.039 194 338.375 189.868 323.129 173.34C307.882 156.812 295.071 148.707 290.571 146.721L262.778 143.145L233 83.5488Z" stroke="black"/>
</g>
<path id="LeftHand" d="M8 188L0 204.5L34 225L69 160L102.5 70H83.5L64.5 76L49 86L34 115L14.5 170L8 188Z" fill="#D20F00"/>
<g id="bodyBoth">
<g id="Vector 2">
<path d="M289.832 149.445C286.385 153.542 280.524 167.764 284.661 191.873C288.798 215.982 302.826 253.732 309.322 269.593L321.255 309.246C323.907 322.067 326.983 351.516 318.073 366.742C309.163 381.969 304.284 381.546 302.958 379.431C295.268 380.621 279.49 377.29 277.899 354.45C276.308 331.61 275.38 301.844 275.115 289.816C274.319 280.035 270.023 257.618 259.204 246.198C245.68 231.923 238.123 284.264 240.509 287.04C242.896 289.816 238.123 350.881 236.134 354.45C234.145 358.019 236.134 379.035 223.008 384.983C212.507 389.741 201.661 376.656 197.551 369.518C193.839 364.628 187.846 343.268 193.573 296.953C200.733 239.06 207.495 183.15 202.722 168.478C197.949 153.806 181.64 117.722 164.537 105.826C155.961 99.8618 152.145 97.4279 150.72 96.6697L150.217 96.7063C149.871 96.3609 149.872 96.2181 150.72 96.6697L204.711 92.741L233.35 86L289.832 149.445Z" fill="white"/>
<path d="M289.832 149.445C286.385 153.542 280.524 167.764 284.661 191.873C288.798 215.982 302.826 253.732 309.322 269.593L321.255 309.246C323.907 322.067 326.983 351.516 318.073 366.742C309.163 381.969 304.284 381.546 302.958 379.431C295.268 380.621 279.49 377.29 277.899 354.45C276.308 331.61 275.38 301.844 275.115 289.816C274.319 280.035 270.023 257.618 259.204 246.198C245.68 231.923 238.123 284.264 240.509 287.04C242.896 289.816 238.123 350.881 236.134 354.45C234.145 358.019 236.134 379.035 223.008 384.983C212.507 389.741 201.661 376.656 197.551 369.518C193.839 364.628 187.846 343.268 193.573 296.953C200.733 239.06 207.495 183.15 202.722 168.478C197.949 153.806 181.64 117.722 164.537 105.826C150.854 96.3097 149.289 95.781 150.217 96.7063L204.711 92.741L233.35 86L289.832 149.445Z" stroke="black"/>
</g>
<path id="whiteHead" d="M185.046 75.9206C188.655 81.2665 199.583 88.8676 204.596 92L237.681 85.1088C237.681 84.0647 237.939 81.6006 238.97 80.0971C240.259 78.2177 241.333 62.1382 240.904 50.8618C240.56 41.8406 235.032 31.65 232.31 27.6823C230.52 25.3157 225.264 19.6635 218.561 15.9882C211.858 12.3129 197.005 12.7862 190.417 13.4823C186.12 15.0137 176.667 19.9976 173.23 27.6823C168.933 37.2882 171.941 50.8618 173.23 57.7529C174.261 63.2659 181.537 72.1618 185.046 75.9206Z" fill="white" stroke="black"/>
<g id="bodyWithoutLhand">
<path id="HeadRed" d="M94 41L103 70.5L142 81L152 70.5L159.5 56.5L162.5 41V25L159.5 15.5L149.5 6L138.5 3L127.5 0L115 3L103 9.5L96.5 21.5L94 31V41Z" fill="#D20F00"/>
<path id="body" d="M40 381.5L69 160.5L102 70L140 80.5L168 108.5L181 122L190.5 140.5L196.5 152L200 163.5L201.5 177V191L156.5 150L185 311.5L189.5 345L198 381.5L156 384.5L119.5 232.5L84 381.5H40Z" fill="#D20F00"/>
</g>
<line id="Line 1" x1="311.098" y1="249.49" x2="306.098" y2="250.49" stroke="black"/>
<line id="Line 3" x1="229.81" y1="83.2759" x2="289.81" y2="146.276" stroke="white" stroke-width="5"/>
<rect id="Rectangle 1" x="206" y="76" width="31" height="16" fill="white"/>
</g>
</g>
</svg>
