<svg width="458" height="465" viewBox="0 0 458 465" fill="none" xmlns="http://www.w3.org/2000/svg">
<g id="hemoLogo">
<g id="rightHand">
<path id="Vector" d="M302.021 95.137C297.801 97.4284 285.875 99.5925 280.439 100.388L316.408 171.996L349.979 176.293C355.415 178.679 370.889 188.418 389.306 208.277C407.721 228.136 425.434 233.101 431.989 233.101C435.186 233.101 443.691 231.86 452.132 226.895C460.549 221.944 455.676 207.72 452.161 201.171C453.223 203.156 451.614 201.487 436.785 179.156C421.821 156.625 389.945 131.895 375.878 122.348C358.612 108.504 328.877 91.3179 316.408 91.3179C313.372 91.6362 306.241 92.8455 302.021 95.137Z" fill="white"/>
<path id="Vector_2" d="M280.439 100.388C285.875 99.5925 297.801 97.4284 302.021 95.137C306.241 92.8455 313.372 91.6362 316.408 91.3179C328.877 91.3179 358.612 108.504 375.878 122.348C389.945 131.895 421.821 156.625 436.785 179.156C451.748 201.689 453.251 203.185 452.132 201.116C455.648 207.64 460.573 221.93 452.132 226.895C443.691 231.86 435.186 233.101 431.989 233.101C425.434 233.101 407.721 228.136 389.306 208.277C370.889 188.418 355.415 178.679 349.979 176.293L316.408 171.996L280.439 100.388Z" stroke="black"/>
</g>
<path id="LeftHand" d="M9.66316 225.892L0 245.717L41.0684 270.349L83.3447 192.248L123.809 84.1086H100.859L77.9092 91.3179L59.1868 103.333L41.0684 138.178L17.5145 204.264L9.66316 225.892Z" fill="#D20F00"/>
<g id="bodyBoth">
<g id="Vector 2">
<path id="Vector_3" d="M349.086 179.566C344.923 184.488 337.843 201.577 342.84 230.545C347.838 259.513 364.782 304.872 372.628 323.929L387.042 371.575C390.245 386.98 393.961 422.364 383.199 440.659C372.436 458.955 366.543 458.447 364.941 455.905C355.653 457.335 336.594 453.333 334.673 425.889C332.751 398.446 331.63 362.681 331.31 348.228C330.348 336.476 325.159 309.541 312.091 295.819C295.756 278.667 286.627 341.557 289.509 344.893C292.393 348.228 286.627 421.601 284.225 425.889C281.822 430.178 284.225 455.43 268.37 462.576C255.686 468.293 242.585 452.571 237.621 443.994C233.137 438.119 225.898 412.454 232.816 356.804C241.464 287.243 249.632 220.064 243.867 202.435C238.101 184.806 218.402 141.449 197.743 127.155C187.384 119.989 182.775 117.064 181.054 116.153L180.446 116.197C180.028 115.782 180.03 115.611 181.054 116.153L246.269 111.433L280.862 103.333L349.086 179.566Z" fill="white"/>
<path id="Vector_4" d="M349.087 179.566C344.923 184.488 337.843 201.577 342.841 230.545C347.838 259.513 364.782 304.872 372.628 323.929L387.042 371.575C390.246 386.98 393.961 422.364 383.199 440.659C372.436 458.955 366.543 458.447 364.941 455.905C355.653 457.335 336.594 453.333 334.673 425.889C332.751 398.446 331.63 362.681 331.31 348.228C330.348 336.476 325.159 309.541 312.091 295.819C295.756 278.667 286.628 341.557 289.51 344.893C292.393 348.228 286.628 421.601 284.225 425.889C281.823 430.178 284.225 455.43 268.37 462.576C255.686 468.293 242.585 452.571 237.621 443.994C233.137 438.119 225.898 412.454 232.816 356.804C241.464 287.243 249.632 220.064 243.867 202.435C238.102 184.806 218.402 141.449 197.743 127.155C181.216 115.721 179.325 115.086 180.446 116.197L246.269 111.433L280.862 103.333L349.087 179.566Z" stroke="black"/>
</g>
<path id="whiteHead" d="M222.516 91.2224C226.875 97.6458 240.075 106.779 246.13 110.543L286.094 102.263C286.094 101.008 286.405 98.0472 287.651 96.2407C289.208 93.9825 290.505 74.6622 289.987 61.113C289.571 50.2736 282.894 38.0291 279.606 33.2617C277.444 30.4181 271.095 23.6267 262.999 19.2106C254.902 14.7946 236.961 15.3633 229.004 16.1997C223.813 18.0397 212.395 24.0281 208.244 33.2617C203.053 44.8036 206.687 61.113 208.244 69.393C209.489 76.0172 218.278 86.706 222.516 91.2224Z" fill="white" stroke="black"/>
<g id="bodyWithoutLhand">
<path id="HeadRed" d="M112.542 49.2636L123.413 84.7093L170.521 97.3256L182.6 84.7093L191.659 67.8876L195.283 49.2636V30.0388L191.659 18.624L179.58 7.2093L166.293 3.60465L153.007 0L137.908 3.60465L123.413 11.4147L115.562 25.8333L112.542 37.2481V49.2636Z" fill="#D20F00"/>
<path id="body" d="M47.3158 458.392L82.3447 192.849L122.205 84.1086L168.105 96.7249L201.926 130.368L217.629 146.589L229.104 168.818L236.351 182.636L240.579 196.454L242.391 212.675V229.496L188.036 180.233L222.461 374.283L227.896 414.535L238.163 458.392L187.432 461.996L143.343 279.361L100.463 458.392H47.3158Z" fill="#D20F00"/>
</g>
<path id="Line 1" d="M374.774 299.775L368.734 300.976" stroke="black"/>
<path id="Line 3" d="M280 101L350 177" stroke="white" stroke-width="9"/>
<path id="Rectangle 1" d="M285.271 91.3179H247.826V110.543H285.271V91.3179Z" fill="white"/>
</g>
</g>
</svg>
