<svg width="101" height="101" viewBox="0 0 101 101" fill="none" xmlns="http://www.w3.org/2000/svg">
<g id="hemoLogo">
<g id="rightHand">
<path id="Vector" d="M66.1178 20.5127C65.1938 21.0067 62.5831 21.4733 61.3932 21.6449L69.2674 37.0843L76.6167 38.0107C77.8066 38.5252 81.1942 40.6249 85.226 44.9068C89.2575 49.1886 93.1351 50.2591 94.5701 50.2591C95.2701 50.2591 97.1319 49.9915 98.9798 48.921C100.822 47.8537 99.7556 44.7868 98.9861 43.3747C99.2185 43.8026 98.8663 43.4428 95.6199 38.628C92.3442 33.77 85.3659 28.4382 82.2863 26.3796C78.5066 23.3946 71.9971 19.6892 69.2674 19.6892C68.6026 19.7578 67.0417 20.0186 66.1178 20.5127Z" fill="white"/>
<path id="Vector_2" d="M61.3932 21.6449C62.5831 21.4733 65.1938 21.0067 66.1178 20.5127C67.0417 20.0186 68.6026 19.7578 69.2674 19.6892C71.9971 19.6892 78.5066 23.3946 82.2863 26.3796C85.3659 28.4382 92.3442 33.77 95.6199 38.628C98.8957 43.4863 99.2246 43.8089 98.9798 43.3627C99.7495 44.7695 100.828 47.8506 98.9798 48.921C97.1319 49.9915 95.2701 50.2591 94.5701 50.2591C93.1351 50.2591 89.2575 49.1886 85.226 44.9068C81.1942 40.6249 77.8066 38.5252 76.6167 38.0107L69.2674 37.0843L61.3932 21.6449Z" stroke="black"/>
</g>
<path id="LeftHand" d="M2.11544 48.7047L0 52.9793L8.99061 58.2901L18.2456 41.4508L27.104 18.1348H22.0799L17.0557 19.6892L12.9571 22.2798L8.99061 29.7928L3.83423 44.0415L2.11544 48.7047Z" fill="#D20F00"/>
<g id="bodyBoth">
<g id="Vector 2">
<path id="Vector_3" d="M76.4215 38.7163C75.51 39.7777 73.9601 43.4621 75.0541 49.708C76.148 55.9538 79.8574 65.7336 81.5752 69.8426L84.7306 80.1154C85.4319 83.4369 86.2453 91.0662 83.8892 95.0107C81.5331 98.9556 80.243 98.846 79.8924 98.298C77.8589 98.6063 73.6867 97.7434 73.266 91.8263C72.8453 85.9092 72.5999 78.1978 72.5298 75.0818C72.3193 72.5478 71.1834 66.7403 68.3225 63.7818C64.7464 60.0836 62.7481 73.6434 63.379 74.3626C64.0102 75.0818 62.7481 90.9017 62.2221 91.8263C61.6962 92.7509 62.2221 98.1954 58.7512 99.7364C55.9744 100.969 53.1064 97.5791 52.0196 95.7299C51.0381 94.4631 49.4533 88.9294 50.9677 76.9307C52.861 61.9326 54.6491 47.4481 53.387 43.6471C52.1249 39.8461 47.8123 30.4979 43.2897 27.416C41.022 25.8709 40.0129 25.2404 39.6361 25.044L39.5031 25.0534C39.4116 24.964 39.4119 24.927 39.6361 25.044L53.9129 24.0262L61.4859 22.2798L76.4215 38.7163Z" fill="white"/>
<path id="Vector_4" d="M76.4213 38.7163C75.5098 39.7777 73.96 43.4621 75.0539 49.708C76.1478 55.9538 79.8573 65.7336 81.575 69.8426L84.7304 80.1154C85.4317 83.4369 86.2451 91.0662 83.889 95.0107C81.533 98.9556 80.2428 98.846 79.8922 98.298C77.8587 98.6063 73.6865 97.7434 73.2658 91.8263C72.8451 85.9092 72.5997 78.1978 72.5297 75.0818C72.3192 72.5478 71.1832 66.7403 68.3223 63.7818C64.7462 60.0836 62.7479 73.6434 63.3788 74.3626C64.01 75.0818 62.7479 90.9017 62.2219 91.8263C61.696 92.7509 62.2219 98.1954 58.751 99.7364C55.9742 100.969 53.1062 97.5791 52.0194 95.7299C51.0379 94.4631 49.4531 88.9294 50.9675 76.9307C52.8608 61.9326 54.6489 47.4481 53.3868 43.6471C52.1247 39.8461 47.8121 30.4979 43.2895 27.416C39.6714 24.9507 39.2575 24.8137 39.5029 25.0534L53.9127 24.0262L61.4857 22.2798L76.4213 38.7163Z" stroke="black"/>
</g>
<path id="whiteHead" d="M48.7127 19.6681C49.6671 21.053 52.5567 23.0222 53.8823 23.8337L62.631 22.0484C62.631 21.7779 62.6992 21.1396 62.9718 20.7501C63.3127 20.2632 63.5967 16.0975 63.4833 13.1762C63.3923 10.8391 61.9305 8.19904 61.2107 7.17114C60.7374 6.55803 59.3476 5.09373 57.5751 4.14158C55.8026 3.18943 51.8751 3.31205 50.133 3.49239C48.9967 3.88912 46.4971 5.18029 45.5882 7.17114C44.452 9.65971 45.2474 13.1762 45.5882 14.9614C45.8609 16.3897 47.7849 18.6943 48.7127 19.6681Z" fill="white" stroke="black"/>
<g id="bodyWithoutLhand">
<path id="HeadRed" d="M24.6375 10.6217L27.0173 18.2642L37.3301 20.9844L39.9744 18.2642L41.9576 14.6373L42.7509 10.6217V6.47667L41.9576 4.01554L39.3133 1.5544L36.4046 0.7772L33.4959 0L30.1905 0.7772L27.0173 2.46113L25.2985 5.56994L24.6375 8.03107V10.6217Z" fill="#D20F00"/>
<path id="body" d="M10.3583 98.8341L18.0267 41.5803L26.7529 18.1348L36.8012 20.855L44.2053 28.1088L47.6429 31.6062L50.1549 36.399L51.7415 39.3782L52.667 42.3575L53.0637 45.8549V49.4819L41.1643 38.8601L48.7006 80.6994L49.8905 89.3781L52.1382 98.8341L41.0321 99.6113L31.3804 60.2331L21.9932 98.8341H10.3583Z" fill="#D20F00"/>
</g>
<path id="Line 1" d="M82.0446 64.6348L80.7225 64.8938" stroke="black"/>
<path id="Line 3" d="M61.297 21.7769L76.6212 38.1633" stroke="white" stroke-width="9"/>
<path id="Rectangle 1" d="M62.4509 19.6892H54.2536V23.8343H62.4509V19.6892Z" fill="white"/>
</g>
</g>
</svg>
