<svg width="150" height="150" viewBox="0 0 235 221" fill="none" xmlns="http://www.w3.org/2000/svg">
<g id="Group 1">
<g id="body white" filter="url(#filter0_d_105_26)">
<path d="M230.39 26.6801C230.39 26.6801 175.032 73.7168 150.803 72.2721C126.574 70.8273 109.902 43.6057 102.511 35.3884C95.1204 27.1711 131.378 83.3785 129.015 112.369C126.652 141.359 81.3669 189.987 81.3669 189.987C81.3669 189.987 119.876 154.97 149.188 160.235C178.5 165.5 232.968 230.268 216.328 208.028C199.688 185.788 169.446 151 172.5 115.5C175.554 80 230.39 26.6801 230.39 26.6801Z" fill="white"/>
<path d="M217.548 210.53C217.114 209.924 216.576 209.193 215.928 208.327C214.184 205.996 212.288 203.524 210.294 200.925C202.798 191.152 193.926 179.585 186.597 166.988C177.318 151.039 170.462 133.358 172.002 115.457C172.774 106.478 176.813 96.4166 182.397 86.4018C187.985 76.379 195.143 66.3626 202.198 57.4668C209.254 48.5697 216.214 40.7848 221.409 35.2246C222.221 34.3554 222.99 33.5404 223.709 32.784C223.067 33.2966 222.386 33.8363 221.671 34.3997C216.097 38.7913 208.411 44.6327 199.965 50.4301C191.522 56.226 182.308 61.9853 173.68 66.2069C165.073 70.4182 156.969 73.1406 150.773 72.7712C138.478 72.038 128.143 64.7696 119.992 56.7258C115.911 52.699 112.363 48.4633 109.377 44.7271C108.394 43.4963 107.474 42.3236 106.617 41.2313C105.107 39.3054 103.793 37.6295 102.67 36.3258C103.063 37.1686 103.62 38.2846 104.312 39.6465C104.777 40.5599 105.3 41.578 105.87 42.6893C108.149 47.1265 111.19 53.0485 114.33 59.7126C118.257 68.0461 122.347 77.5551 125.307 86.8023C128.265 96.0387 130.112 105.063 129.513 112.409C128.914 119.758 125.603 128.305 121.015 136.961C116.421 145.626 110.524 154.444 104.707 162.346C98.89 170.249 93.1475 177.243 88.8597 182.261C87.9798 183.291 87.1611 184.237 86.4155 185.092C86.7725 184.806 87.1451 184.51 87.5328 184.205C91.6119 180.996 97.3582 176.771 104.025 172.71C110.691 168.65 118.288 164.746 126.069 162.188C133.846 159.63 141.838 158.407 149.276 159.743C156.723 161.08 165.701 166.175 174.677 172.646C183.67 179.128 192.723 187.038 200.33 194.079C205.233 198.617 209.564 202.822 212.876 206.037C214.687 207.796 216.193 209.259 217.322 210.318C217.399 210.391 217.475 210.462 217.548 210.53Z" stroke="black"/>
</g>
<g id="body red" filter="url(#filter1_d_105_26)">
<path d="M5.00835 25.3719C5.00835 25.3719 54.3122 72.8527 76 71.6032C87.9474 70.9149 97.8811 62.3859 105.506 53.5C111.723 46.2556 116.405 38.774 119.394 35.1104C126.048 26.9531 95.1463 78.3736 97.5 113C99.8537 147.626 141.5 189.5 141.5 189.5C141.5 189.5 103.878 155.931 77.0126 159.575C50.1469 163.22 1.69974 228.929 16.699 206.824C31.6982 184.72 58.4472 147.5 58.0709 114.802C57.6945 82.1033 5.00835 25.3719 5.00835 25.3719Z" fill="#D20F00"/>
<path d="M5.00835 25.3719L5.35518 25.0118L4.64197 25.7122L5.00835 25.3719ZM5.00835 25.3719C5.35518 25.0118 5.35533 25.0119 5.35566 25.0123L5.35727 25.0138L5.36384 25.0201L5.39033 25.0456L5.49593 25.1467C5.58941 25.236 5.72868 25.3688 5.91139 25.5421C6.27682 25.8886 6.81598 26.397 7.51012 27.0439C8.89841 28.3377 10.9065 30.1851 13.3841 32.3984C18.3398 36.8254 25.1716 42.7137 32.6785 48.5617C40.1877 54.4114 48.3611 60.212 56.0014 64.4699C63.6665 68.7417 70.7041 71.4075 75.9712 71.104C87.7015 70.4283 97.5169 62.0425 105.127 53.1744C108.221 49.5687 110.936 45.901 113.254 42.6709C113.83 41.8692 114.382 41.0928 114.91 40.3503C116.502 38.1122 117.875 36.1818 119.006 34.7944C119.218 34.5347 119.4 34.3254 119.551 34.1696C119.684 34.0325 119.846 33.8801 120.013 33.8046C120.089 33.7705 120.311 33.6858 120.545 33.8173C120.782 33.951 120.822 34.1895 120.831 34.2743C120.849 34.4567 120.796 34.6686 120.747 34.8359C120.53 35.5722 119.858 37.0884 118.904 39.1776C118.632 39.7727 118.336 40.4179 118.018 41.1098C116.083 45.3229 113.353 51.2685 110.522 58.2003C103.923 74.3633 96.8306 95.7792 97.9988 112.966C99.1654 130.128 110.088 149.154 120.788 163.942C126.129 171.324 131.397 177.627 135.331 182.085C137.297 184.314 138.93 186.081 140.07 187.29C140.64 187.895 141.087 188.36 141.391 188.673C141.543 188.83 141.659 188.949 141.737 189.028L141.825 189.118L141.847 189.14L141.853 189.146L141.854 189.147C141.854 189.147 141.855 189.147 141.5 189.5M5.00835 25.3719C4.64197 25.7122 4.64213 25.7124 4.64248 25.7127L4.64419 25.7146L4.65119 25.7221L4.6794 25.7526L4.79158 25.8743C4.89075 25.982 5.03815 26.1427 5.23058 26.3539C5.61545 26.7761 6.18043 27.4002 6.89989 28.2064C8.33884 29.8188 10.3956 32.1594 12.8652 35.0706C17.8047 40.8934 24.3937 48.9963 30.9934 58.118C37.5942 67.2414 44.1987 77.3744 49.1745 87.2584C54.1559 97.1538 57.4781 106.748 57.5709 114.807C57.7576 131.031 51.2111 148.421 42.7085 164.552C35.1689 178.857 26.1193 192.122 18.9319 202.658C18.0172 203.998 17.1327 205.295 16.2852 206.544C15.3473 207.926 14.6538 208.97 14.1867 209.71C13.9535 210.079 13.773 210.378 13.6458 210.607C13.5823 210.722 13.529 210.825 13.4882 210.915C13.4513 210.996 13.4097 211.097 13.3908 211.198C13.3821 211.245 13.3675 211.343 13.3957 211.457C13.431 211.599 13.5386 211.767 13.7469 211.833C13.9074 211.885 14.0435 211.845 14.0953 211.827C14.1598 211.806 14.2136 211.776 14.251 211.753C14.3894 211.669 14.5604 211.517 14.7388 211.346C15.1148 210.986 15.6734 210.394 16.3856 209.618C17.1151 208.823 18.0145 207.825 19.0622 206.662C22.125 203.264 26.4555 198.459 31.5166 193.203C38.3076 186.15 46.3948 178.304 54.4535 171.998C62.5325 165.676 70.5064 160.962 77.0798 160.071C83.6852 159.175 90.9874 160.563 98.253 163.184C105.514 165.802 112.703 169.638 119.067 173.595C125.429 177.552 130.957 181.623 134.894 184.705C136.862 186.246 138.432 187.54 139.509 188.447C140.047 188.901 140.463 189.258 140.743 189.501C140.883 189.623 140.99 189.716 141.061 189.779L141.141 189.85L141.161 189.868L141.166 189.872L141.167 189.873C141.167 189.873 141.167 189.873 141.5 189.5M141.5 189.5L141.855 189.147L141.167 189.873L141.5 189.5Z" stroke="black"/>
</g>
<g id="red face">
<g id="Ellipse 1" filter="url(#filter2_d_105_26)">
<ellipse rx="21.3798" ry="27.7585" transform="matrix(0.990999 -0.133867 0.180937 0.983495 71.5776 38.3295)" fill="#D20F00"/>
<path d="M92.2695 35.5344C95.0168 50.4675 87.825 63.6096 76.5097 65.1381C65.1944 66.6666 53.6331 56.0577 50.8858 41.1247C48.1385 26.1916 55.3303 13.0494 66.6456 11.5209C77.9608 9.99243 89.5222 20.6014 92.2695 35.5344Z" stroke="black"/>
</g>
<path id="Polygon 3" d="M76.1346 56.5704C80.3224 55.4789 83.6338 49.3083 83.6338 49.3083C83.6338 49.3083 79.5329 52.9027 75.8445 54.5293C72.1561 56.156 65.3242 54.1791 65.3242 54.1791C65.3242 54.1791 71.484 57.7825 76.1346 56.5704Z" fill="#671009"/>
</g>
<g id="white face">
<g id="face white" filter="url(#filter3_d_105_26)">
<ellipse rx="21.38" ry="27.76" transform="matrix(-0.948446 -0.316939 -0.271384 0.962471 154.659 40.109)" fill="white"/>
<path d="M134.855 33.4913C130.735 48.106 136.432 62.7271 147.261 66.346C158.091 69.9649 170.342 61.3414 174.463 46.7267C178.583 32.1121 172.886 17.4909 162.057 13.8721C151.227 10.2532 138.976 18.8767 134.855 33.4913Z" stroke="black"/>
</g>
<path id="Polygon 2" d="M149.53 56.3193C153.681 57.5472 160.338 53.8742 160.338 53.8742C160.338 53.8742 153.936 55.3097 150.08 54.2127C146.486 53.1903 142.004 49.0851 142.004 49.0851C142.004 49.0851 145.62 55.1625 149.53 56.3193Z" fill="#C4C4C4"/>
</g>
</g>
<defs>
<filter id="filter0_d_105_26" x="77.3669" y="26.6801" width="157.023" height="193.981" filterUnits="userSpaceOnUse" color-interpolation-filters="sRGB">
<feFlood flood-opacity="0" result="BackgroundImageFix"/>
<feColorMatrix in="SourceAlpha" type="matrix" values="0 0 0 0 0 0 0 0 0 0 0 0 0 0 0 0 0 0 127 0" result="hardAlpha"/>
<feOffset dy="4"/>
<feGaussianBlur stdDeviation="2"/>
<feComposite in2="hardAlpha" operator="out"/>
<feColorMatrix type="matrix" values="0 0 0 0 0 0 0 0 0 0 0 0 0 0 0 0 0 0 0.25 0"/>
<feBlend mode="normal" in2="BackgroundImageFix" result="effect1_dropShadow_105_26"/>
<feBlend mode="normal" in="SourceGraphic" in2="effect1_dropShadow_105_26" result="shape"/>
</filter>
<filter id="filter1_d_105_26" x="0.275597" y="24.6516" width="145.933" height="195.707" filterUnits="userSpaceOnUse" color-interpolation-filters="sRGB">
<feFlood flood-opacity="0" result="BackgroundImageFix"/>
<feColorMatrix in="SourceAlpha" type="matrix" values="0 0 0 0 0 0 0 0 0 0 0 0 0 0 0 0 0 0 127 0" result="hardAlpha"/>
<feOffset dy="4"/>
<feGaussianBlur stdDeviation="2"/>
<feComposite in2="hardAlpha" operator="out"/>
<feColorMatrix type="matrix" values="0 0 0 0 0 0 0 0 0 0 0 0 0 0 0 0 0 0 0.25 0"/>
<feBlend mode="normal" in2="BackgroundImageFix" result="effect1_dropShadow_105_26"/>
<feBlend mode="normal" in="SourceGraphic" in2="effect1_dropShadow_105_26" result="shape"/>
</filter>
<filter id="filter2_d_105_26" x="45.7982" y="10.8773" width="51.5589" height="62.9044" filterUnits="userSpaceOnUse" color-interpolation-filters="sRGB">
<feFlood flood-opacity="0" result="BackgroundImageFix"/>
<feColorMatrix in="SourceAlpha" type="matrix" values="0 0 0 0 0 0 0 0 0 0 0 0 0 0 0 0 0 0 127 0" result="hardAlpha"/>
<feOffset dy="4"/>
<feGaussianBlur stdDeviation="2"/>
<feComposite in2="hardAlpha" operator="out"/>
<feColorMatrix type="matrix" values="0 0 0 0 0 0 0 0 0 0 0 0 0 0 0 0 0 0 0.25 0"/>
<feBlend mode="normal" in2="BackgroundImageFix" result="effect1_dropShadow_105_26"/>
<feBlend mode="normal" in="SourceGraphic" in2="effect1_dropShadow_105_26" result="shape"/>
</filter>
<filter id="filter3_d_105_26" x="129.021" y="12.5383" width="51.2758" height="63.1414" filterUnits="userSpaceOnUse" color-interpolation-filters="sRGB">
<feFlood flood-opacity="0" result="BackgroundImageFix"/>
<feColorMatrix in="SourceAlpha" type="matrix" values="0 0 0 0 0 0 0 0 0 0 0 0 0 0 0 0 0 0 127 0" result="hardAlpha"/>
<feOffset dy="4"/>
<feGaussianBlur stdDeviation="2"/>
<feComposite in2="hardAlpha" operator="out"/>
<feColorMatrix type="matrix" values="0 0 0 0 0 0 0 0 0 0 0 0 0 0 0 0 0 0 0.25 0"/>
<feBlend mode="normal" in2="BackgroundImageFix" result="effect1_dropShadow_105_26"/>
<feBlend mode="normal" in="SourceGraphic" in2="effect1_dropShadow_105_26" result="shape"/>
</filter>
</defs>
</svg>
