<svg width="215" height="44" viewBox="0 0 215 44" fill="none" xmlns="http://www.w3.org/2000/svg">
<path d="M64.9756 15.9707C64.7412 15.9648 64.4482 15.9619 64.0967 15.9619C63.7451 15.9561 63.3613 15.9502 62.9453 15.9443C62.5352 15.9385 62.1045 15.9355 61.6533 15.9355C61.208 15.9297 60.7715 15.9268 60.3438 15.9268C59.916 15.9209 59.5088 15.9209 59.1221 15.9268C58.7354 15.9326 58.3984 15.9414 58.1113 15.9531V18.5635C58.1113 19.0615 58.1172 19.498 58.1289 19.873C58.1465 20.2422 58.1641 20.5615 58.1816 20.8311C58.2051 21.1006 58.2314 21.3262 58.2607 21.5078C58.2959 21.6895 58.3311 21.8418 58.3662 21.9648V22H56.2568V21.9648C56.292 21.8418 56.3242 21.6895 56.3535 21.5078C56.3887 21.3262 56.418 21.1006 56.4414 20.8311C56.4648 20.5615 56.4824 20.2422 56.4941 19.873C56.5059 19.498 56.5117 19.0615 56.5117 18.5635V12.8418C56.5117 12.3438 56.5059 11.9102 56.4941 11.541C56.4824 11.166 56.4648 10.8438 56.4414 10.5742C56.418 10.2988 56.3887 10.0703 56.3535 9.88867C56.3242 9.70703 56.292 9.55469 56.2568 9.43164V9.39648H58.3662V9.43164C58.3311 9.55469 58.2959 9.70703 58.2607 9.88867C58.2314 10.0703 58.2051 10.2988 58.1816 10.5742C58.1641 10.8438 58.1465 11.166 58.1289 11.541C58.1172 11.9102 58.1113 12.3438 58.1113 12.8418V15.0918C58.416 15.1035 58.7617 15.1123 59.1484 15.1182C59.5352 15.1182 59.9395 15.1182 60.3613 15.1182C60.7832 15.1123 61.2109 15.1064 61.6445 15.1006C62.084 15.0947 62.5059 15.0889 62.9102 15.083C63.3203 15.0713 63.7012 15.0596 64.0527 15.0479C64.4102 15.0361 64.7178 15.0244 64.9756 15.0127V12.8418C64.9756 12.3438 64.9668 11.9102 64.9492 11.541C64.9375 11.166 64.9199 10.8438 64.8965 10.5742C64.8789 10.2988 64.8525 10.0703 64.8174 9.88867C64.7881 9.70703 64.7559 9.55469 64.7207 9.43164V9.39648H66.8301V9.43164C66.7949 9.55469 66.7598 9.70703 66.7246 9.88867C66.6953 10.0703 66.6689 10.2988 66.6455 10.5742C66.6221 10.8438 66.6045 11.166 66.5928 11.541C66.5811 11.9102 66.5752 12.3438 66.5752 12.8418V18.5635C66.5752 19.0615 66.5811 19.498 66.5928 19.873C66.6045 20.2422 66.6221 20.5615 66.6455 20.8311C66.6689 21.1006 66.6953 21.3262 66.7246 21.5078C66.7598 21.6895 66.7949 21.8418 66.8301 21.9648V22H64.7207V21.9648C64.7559 21.8418 64.7881 21.6895 64.8174 21.5078C64.8525 21.3262 64.8789 21.1006 64.8965 20.8311C64.9199 20.5615 64.9375 20.2422 64.9492 19.873C64.9668 19.498 64.9756 19.0615 64.9756 18.5635V15.9707ZM73.3867 22.1582C72.7363 22.1582 72.127 22.0557 71.5586 21.8506C70.9902 21.6455 70.4951 21.3467 70.0732 20.9541C69.6514 20.5557 69.3174 20.0664 69.0713 19.4863C68.8311 18.9004 68.7109 18.2324 68.7109 17.4824C68.7109 16.8203 68.8223 16.208 69.0449 15.6455C69.2676 15.0771 69.5752 14.585 69.9678 14.1689C70.3604 13.7529 70.8174 13.4277 71.3389 13.1934C71.8662 12.959 72.4346 12.8418 73.0439 12.8418C73.6475 12.8418 74.207 12.9473 74.7227 13.1582C75.2383 13.3633 75.6836 13.665 76.0586 14.0635C76.4395 14.4561 76.7383 14.9453 76.9551 15.5312C77.1777 16.1113 77.2979 16.7734 77.3154 17.5176C76.6533 17.5059 75.9912 17.4971 75.3291 17.4912C74.667 17.4854 73.9785 17.4824 73.2637 17.4824C72.7539 17.4824 72.2559 17.4854 71.7695 17.4912C71.2891 17.4971 70.8555 17.5059 70.4688 17.5176C70.5039 18.127 70.5977 18.6777 70.75 19.1699C70.9082 19.6621 71.1221 20.084 71.3916 20.4355C71.667 20.7812 71.998 21.0479 72.3848 21.2354C72.7773 21.4229 73.2197 21.5166 73.7119 21.5166C74.0518 21.5166 74.3711 21.4785 74.6699 21.4023C74.9746 21.3203 75.25 21.209 75.4961 21.0684C75.7422 20.9277 75.9619 20.7637 76.1553 20.5762C76.3486 20.3828 76.5127 20.1748 76.6475 19.9521L76.7529 20.0049L76.1025 21.5693C75.7861 21.7334 75.4082 21.874 74.9688 21.9912C74.5293 22.1025 74.002 22.1582 73.3867 22.1582ZM72.2178 16.7969C72.8037 16.7969 73.3896 16.7969 73.9756 16.7969C74.5674 16.791 75.1035 16.7793 75.584 16.7617C75.5312 16.252 75.4316 15.7949 75.2852 15.3906C75.1387 14.9863 74.9512 14.6436 74.7227 14.3623C74.4941 14.0811 74.2246 13.8643 73.9141 13.7119C73.6035 13.5596 73.2607 13.4834 72.8857 13.4834C72.5459 13.4834 72.2324 13.5596 71.9453 13.7119C71.6641 13.8584 71.418 14.0723 71.207 14.3535C70.9961 14.6348 70.8262 14.9805 70.6973 15.3906C70.5684 15.7949 70.4922 16.2578 70.4688 16.7793C70.7324 16.791 71.0107 16.7969 71.3037 16.7969C71.5967 16.7969 71.9014 16.7969 72.2178 16.7969ZM85.0674 16.0762C85.0674 15.6895 85.0264 15.3555 84.9443 15.0742C84.8682 14.793 84.7539 14.5615 84.6016 14.3799C84.4551 14.1924 84.2764 14.0547 84.0654 13.9668C83.8545 13.873 83.6201 13.8262 83.3623 13.8262C83.1865 13.8262 82.9902 13.8613 82.7734 13.9316C82.5566 14.002 82.3311 14.0986 82.0967 14.2217C81.8682 14.3389 81.6367 14.4766 81.4023 14.6348C81.1738 14.793 80.957 14.9629 80.752 15.1445C80.7402 15.332 80.7344 15.5342 80.7344 15.751C80.7344 15.9619 80.7344 16.1904 80.7344 16.4365V18.5635C80.7344 19.0615 80.7402 19.498 80.752 19.873C80.7637 20.2422 80.7812 20.5615 80.8047 20.8311C80.8281 21.1006 80.8545 21.3262 80.8838 21.5078C80.9131 21.6895 80.9453 21.8418 80.9805 21.9648V22H78.9502V21.9648C78.9854 21.8418 79.0176 21.6895 79.0469 21.5078C79.082 21.3262 79.1084 21.1006 79.126 20.8311C79.1494 20.5615 79.167 20.2422 79.1787 19.873C79.1963 19.498 79.2051 19.0615 79.2051 18.5635V16.4365C79.2051 15.9385 79.1963 15.5049 79.1787 15.1357C79.167 14.7607 79.1494 14.4385 79.126 14.1689C79.1084 13.8994 79.082 13.6738 79.0469 13.4922C79.0176 13.3105 78.9854 13.1582 78.9502 13.0352V13H80.9805V13.0352C80.9336 13.1699 80.8955 13.3428 80.8662 13.5537C80.8428 13.7588 80.8164 14.0195 80.7871 14.3359C81.0215 14.1484 81.2734 13.9639 81.543 13.7822C81.8125 13.6006 82.0879 13.4395 82.3691 13.2988C82.6562 13.1582 82.9434 13.0439 83.2305 12.9561C83.5176 12.8682 83.8018 12.8242 84.083 12.8242C84.417 12.8242 84.7129 12.8682 84.9707 12.9561C85.2285 13.0439 85.4541 13.1641 85.6475 13.3164C85.8408 13.4688 86.002 13.6475 86.1309 13.8525C86.2656 14.0576 86.3682 14.2773 86.4385 14.5117C86.6787 14.3066 86.9395 14.1045 87.2207 13.9053C87.5078 13.7002 87.8008 13.5186 88.0996 13.3604C88.4043 13.2021 88.7119 13.0732 89.0225 12.9736C89.3389 12.874 89.6465 12.8242 89.9453 12.8242C90.4023 12.8242 90.7891 12.9033 91.1055 13.0615C91.4277 13.2197 91.6885 13.4277 91.8877 13.6855C92.0928 13.9434 92.2393 14.2393 92.3271 14.5732C92.4209 14.9014 92.4678 15.2354 92.4678 15.5752V18.5635C92.4678 19.0615 92.4736 19.498 92.4854 19.873C92.4971 20.2422 92.5146 20.5615 92.5381 20.8311C92.5615 21.1006 92.5879 21.3262 92.6172 21.5078C92.6523 21.6895 92.6875 21.8418 92.7227 21.9648V22H90.6836V21.9648C90.7188 21.8418 90.751 21.6895 90.7803 21.5078C90.8154 21.3262 90.8447 21.1006 90.8682 20.8311C90.8916 20.5615 90.9092 20.2422 90.9209 19.873C90.9326 19.498 90.9385 19.0615 90.9385 18.5635V16.0762C90.9385 15.3027 90.7832 14.7344 90.4727 14.3711C90.1621 14.0078 89.7461 13.8262 89.2246 13.8262C89.043 13.8262 88.8408 13.8613 88.6182 13.9316C88.4014 14.002 88.1758 14.0986 87.9414 14.2217C87.707 14.3447 87.4727 14.4883 87.2383 14.6523C87.0039 14.8105 86.7842 14.9805 86.5791 15.1621C86.5908 15.2324 86.5967 15.3027 86.5967 15.373C86.5967 15.4434 86.5967 15.5107 86.5967 15.5752V18.5635C86.5967 19.0615 86.6025 19.498 86.6143 19.873C86.6318 20.2422 86.6494 20.5615 86.667 20.8311C86.6904 21.1006 86.7168 21.3262 86.7461 21.5078C86.7812 21.6895 86.8164 21.8418 86.8516 21.9648V22H84.8213V21.9648C84.8564 21.8418 84.8887 21.6895 84.918 21.5078C84.9473 21.3262 84.9736 21.1006 84.9971 20.8311C85.0205 20.5615 85.0381 20.2422 85.0498 19.873C85.0615 19.498 85.0674 19.0615 85.0674 18.5635V16.0762ZM94.375 17.4824C94.375 16.8203 94.498 16.208 94.7441 15.6455C94.9902 15.0771 95.3271 14.585 95.7549 14.1689C96.1885 13.7529 96.6982 13.4277 97.2842 13.1934C97.8701 12.959 98.5 12.8418 99.1738 12.8418C99.8359 12.8418 100.457 12.9531 101.037 13.1758C101.623 13.3926 102.133 13.7031 102.566 14.1074C103 14.5117 103.34 15.0039 103.586 15.584C103.838 16.1641 103.964 16.8145 103.964 17.5352C103.964 18.1387 103.858 18.7188 103.647 19.2754C103.437 19.832 103.126 20.3242 102.716 20.752C102.306 21.1797 101.802 21.5225 101.204 21.7803C100.612 22.0322 99.9297 22.1582 99.1562 22.1582C98.5 22.1582 97.8818 22.0498 97.3018 21.833C96.7217 21.6162 96.2148 21.3057 95.7812 20.9014C95.3477 20.4971 95.0049 20.0078 94.7529 19.4336C94.501 18.8535 94.375 18.2031 94.375 17.4824ZM99.3584 21.5166C99.7744 21.5166 100.155 21.4346 100.501 21.2705C100.853 21.1064 101.154 20.8691 101.406 20.5586C101.658 20.248 101.854 19.8701 101.995 19.4248C102.136 18.9795 102.206 18.4756 102.206 17.9131C102.206 17.2803 102.139 16.6943 102.004 16.1553C101.869 15.6104 101.667 15.1416 101.397 14.749C101.134 14.3506 100.8 14.04 100.396 13.8174C99.9912 13.5947 99.5195 13.4834 98.9805 13.4834C98.5645 13.4834 98.1836 13.5654 97.8379 13.7295C97.4922 13.8877 97.1904 14.1191 96.9326 14.4238C96.6807 14.7285 96.4844 15.1035 96.3438 15.5488C96.2031 15.9883 96.1328 16.4893 96.1328 17.0518C96.1328 17.6846 96.2002 18.2734 96.335 18.8184C96.4756 19.3633 96.6807 19.8379 96.9502 20.2422C97.2197 20.6406 97.5537 20.9541 97.9521 21.1826C98.3564 21.4053 98.8252 21.5166 99.3584 21.5166ZM105.941 16.2607C105.941 15.7627 105.933 15.3291 105.915 14.96C105.903 14.585 105.886 14.2627 105.862 13.9932C105.845 13.7236 105.818 13.498 105.783 13.3164C105.754 13.1348 105.722 12.9824 105.687 12.8594V12.8242H107.717V12.8594C107.688 12.9473 107.661 13.0469 107.638 13.1582C107.614 13.2695 107.594 13.3955 107.576 13.5361C107.922 13.3369 108.303 13.1699 108.719 13.0352C109.141 12.8945 109.606 12.8242 110.116 12.8242C110.767 12.8242 111.358 12.9355 111.892 13.1582C112.431 13.375 112.891 13.6885 113.271 14.0986C113.658 14.5088 113.957 15.0039 114.168 15.584C114.379 16.1641 114.484 16.8145 114.484 17.5352C114.484 18.1387 114.379 18.7188 114.168 19.2754C113.963 19.832 113.658 20.3242 113.254 20.752C112.855 21.1797 112.363 21.5225 111.777 21.7803C111.191 22.0322 110.518 22.1582 109.756 22.1582C109.299 22.1582 108.883 22.123 108.508 22.0527C108.133 21.9824 107.787 21.8916 107.471 21.7803V23.0635C107.471 23.5615 107.477 23.9951 107.488 24.3643C107.5 24.7393 107.518 25.0615 107.541 25.3311C107.564 25.6006 107.591 25.8262 107.62 26.0078C107.649 26.1895 107.682 26.3418 107.717 26.4648V26.5H105.687V26.4648C105.722 26.3418 105.754 26.1895 105.783 26.0078C105.818 25.8262 105.845 25.6006 105.862 25.3311C105.886 25.0615 105.903 24.7393 105.915 24.3643C105.933 23.9951 105.941 23.5615 105.941 23.0635V16.2607ZM109.809 13.4834C109.609 13.4834 109.404 13.5098 109.193 13.5625C108.988 13.6094 108.783 13.6797 108.578 13.7734C108.379 13.8613 108.186 13.9756 107.998 14.1162C107.816 14.251 107.652 14.4062 107.506 14.582C107.494 14.8047 107.485 15.0566 107.479 15.3379C107.474 15.6191 107.471 15.9268 107.471 16.2607V20.8662C107.588 20.9541 107.72 21.0361 107.866 21.1123C108.013 21.1885 108.177 21.2588 108.358 21.3232C108.546 21.3818 108.754 21.4287 108.982 21.4639C109.217 21.499 109.475 21.5166 109.756 21.5166C110.213 21.5166 110.626 21.4346 110.995 21.2705C111.364 21.1064 111.675 20.8691 111.927 20.5586C112.185 20.248 112.381 19.8701 112.516 19.4248C112.656 18.9795 112.727 18.4756 112.727 17.9131C112.727 17.2803 112.674 16.6943 112.568 16.1553C112.463 15.6104 112.293 15.1416 112.059 14.749C111.83 14.3506 111.531 14.04 111.162 13.8174C110.793 13.5947 110.342 13.4834 109.809 13.4834ZM122.5 16.0762C122.5 15.3027 122.345 14.7344 122.034 14.3711C121.724 14.0078 121.308 13.8262 120.786 13.8262C120.593 13.8262 120.376 13.8672 120.136 13.9492C119.901 14.0254 119.658 14.1309 119.406 14.2656C119.16 14.4004 118.914 14.5586 118.668 14.7402C118.422 14.916 118.193 15.1035 117.982 15.3027V18.5635C117.982 19.0615 117.988 19.498 118 19.873C118.012 20.2422 118.029 20.5615 118.053 20.8311C118.076 21.1006 118.103 21.3262 118.132 21.5078C118.161 21.6895 118.193 21.8418 118.229 21.9648V22H116.198V21.9648C116.233 21.8418 116.266 21.6895 116.295 21.5078C116.33 21.3262 116.356 21.1006 116.374 20.8311C116.397 20.5615 116.415 20.2422 116.427 19.873C116.444 19.498 116.453 19.0615 116.453 18.5635V12.2969C116.453 11.7988 116.444 11.3652 116.427 10.9961C116.415 10.6211 116.397 10.2988 116.374 10.0293C116.356 9.75977 116.33 9.53418 116.295 9.35254C116.266 9.1709 116.233 9.01855 116.198 8.89551V8.86035H118.229V8.89551C118.193 9.01855 118.161 9.1709 118.132 9.35254C118.103 9.53418 118.076 9.75977 118.053 10.0293C118.029 10.2988 118.012 10.6211 118 10.9961C117.988 11.3652 117.982 11.7988 117.982 12.2969V14.5469C118.217 14.3359 118.475 14.1279 118.756 13.9229C119.043 13.7178 119.339 13.5332 119.644 13.3691C119.948 13.2051 120.259 13.0732 120.575 12.9736C120.892 12.874 121.202 12.8242 121.507 12.8242C121.964 12.8242 122.351 12.9033 122.667 13.0615C122.989 13.2197 123.25 13.4277 123.449 13.6855C123.654 13.9434 123.801 14.2393 123.889 14.5732C123.982 14.9014 124.029 15.2354 124.029 15.5752V18.5635C124.029 19.0615 124.035 19.498 124.047 19.873C124.059 20.2422 124.076 20.5615 124.1 20.8311C124.123 21.1006 124.149 21.3262 124.179 21.5078C124.208 21.6895 124.24 21.8418 124.275 21.9648V22H122.245V21.9648C122.28 21.8418 122.312 21.6895 122.342 21.5078C122.377 21.3262 122.403 21.1006 122.421 20.8311C122.444 20.5615 122.462 20.2422 122.474 19.873C122.491 19.498 122.5 19.0615 122.5 18.5635V16.0762ZM126.736 16.4365C126.736 15.9385 126.728 15.5049 126.71 15.1357C126.698 14.7607 126.681 14.4385 126.657 14.1689C126.64 13.8994 126.613 13.6738 126.578 13.4922C126.549 13.3105 126.517 13.1582 126.481 13.0352V13H128.512V13.0352C128.477 13.1582 128.444 13.3105 128.415 13.4922C128.386 13.6738 128.359 13.8994 128.336 14.1689C128.312 14.4385 128.295 14.7607 128.283 15.1357C128.271 15.5049 128.266 15.9385 128.266 16.4365V18.5635C128.266 19.0615 128.271 19.498 128.283 19.873C128.295 20.2422 128.312 20.5615 128.336 20.8311C128.359 21.1006 128.386 21.3262 128.415 21.5078C128.444 21.6895 128.477 21.8418 128.512 21.9648V22H126.481V21.9648C126.517 21.8418 126.549 21.6895 126.578 21.5078C126.613 21.3262 126.64 21.1006 126.657 20.8311C126.681 20.5615 126.698 20.2422 126.71 19.873C126.728 19.498 126.736 19.0615 126.736 18.5635V16.4365ZM126.552 10.3369C126.552 10.208 126.575 10.0879 126.622 9.97656C126.675 9.85938 126.742 9.75977 126.824 9.67773C126.906 9.58984 127.003 9.52246 127.114 9.47559C127.231 9.42285 127.357 9.39648 127.492 9.39648C127.627 9.39648 127.75 9.42285 127.861 9.47559C127.979 9.52246 128.078 9.58984 128.16 9.67773C128.248 9.75977 128.315 9.85938 128.362 9.97656C128.415 10.0879 128.441 10.208 128.441 10.3369C128.441 10.6064 128.351 10.832 128.169 11.0137C127.987 11.1953 127.762 11.2861 127.492 11.2861C127.357 11.2861 127.231 11.2627 127.114 11.2158C127.003 11.1631 126.906 11.0957 126.824 11.0137C126.742 10.9258 126.675 10.8262 126.622 10.7148C126.575 10.5977 126.552 10.4717 126.552 10.3369ZM131.078 12.2969C131.078 11.7988 131.069 11.3652 131.052 10.9961C131.04 10.6211 131.022 10.2988 130.999 10.0293C130.981 9.75977 130.955 9.53418 130.92 9.35254C130.891 9.1709 130.858 9.01855 130.823 8.89551V8.86035H132.854V8.89551C132.818 9.01855 132.786 9.1709 132.757 9.35254C132.728 9.53418 132.701 9.75977 132.678 10.0293C132.654 10.2988 132.637 10.6211 132.625 10.9961C132.613 11.3652 132.607 11.7988 132.607 12.2969V18.5635C132.607 19.0615 132.613 19.498 132.625 19.873C132.637 20.2422 132.654 20.5615 132.678 20.8311C132.701 21.1006 132.728 21.3262 132.757 21.5078C132.786 21.6895 132.818 21.8418 132.854 21.9648V22H130.823V21.9648C130.858 21.8418 130.891 21.6895 130.92 21.5078C130.955 21.3262 130.981 21.1006 130.999 20.8311C131.022 20.5615 131.04 20.2422 131.052 19.873C131.069 19.498 131.078 19.0615 131.078 18.5635V12.2969ZM135.42 16.4365C135.42 15.9385 135.411 15.5049 135.394 15.1357C135.382 14.7607 135.364 14.4385 135.341 14.1689C135.323 13.8994 135.297 13.6738 135.262 13.4922C135.232 13.3105 135.2 13.1582 135.165 13.0352V13H137.195V13.0352C137.16 13.1582 137.128 13.3105 137.099 13.4922C137.069 13.6738 137.043 13.8994 137.02 14.1689C136.996 14.4385 136.979 14.7607 136.967 15.1357C136.955 15.5049 136.949 15.9385 136.949 16.4365V18.5635C136.949 19.0615 136.955 19.498 136.967 19.873C136.979 20.2422 136.996 20.5615 137.02 20.8311C137.043 21.1006 137.069 21.3262 137.099 21.5078C137.128 21.6895 137.16 21.8418 137.195 21.9648V22H135.165V21.9648C135.2 21.8418 135.232 21.6895 135.262 21.5078C135.297 21.3262 135.323 21.1006 135.341 20.8311C135.364 20.5615 135.382 20.2422 135.394 19.873C135.411 19.498 135.42 19.0615 135.42 18.5635V16.4365ZM135.235 10.3369C135.235 10.208 135.259 10.0879 135.306 9.97656C135.358 9.85938 135.426 9.75977 135.508 9.67773C135.59 9.58984 135.687 9.52246 135.798 9.47559C135.915 9.42285 136.041 9.39648 136.176 9.39648C136.311 9.39648 136.434 9.42285 136.545 9.47559C136.662 9.52246 136.762 9.58984 136.844 9.67773C136.932 9.75977 136.999 9.85938 137.046 9.97656C137.099 10.0879 137.125 10.208 137.125 10.3369C137.125 10.6064 137.034 10.832 136.853 11.0137C136.671 11.1953 136.445 11.2861 136.176 11.2861C136.041 11.2861 135.915 11.2627 135.798 11.2158C135.687 11.1631 135.59 11.0957 135.508 11.0137C135.426 10.9258 135.358 10.8262 135.306 10.7148C135.259 10.5977 135.235 10.4717 135.235 10.3369ZM139.006 19.4072C139.006 18.9443 139.1 18.543 139.287 18.2031C139.48 17.8633 139.735 17.5732 140.052 17.333C140.368 17.0928 140.729 16.8994 141.133 16.7529C141.537 16.6006 141.956 16.4834 142.39 16.4014C142.823 16.3135 143.251 16.2549 143.673 16.2256C144.095 16.1904 144.481 16.1699 144.833 16.1641V15.7158C144.833 15.3291 144.783 14.9951 144.684 14.7139C144.584 14.4326 144.443 14.2012 144.262 14.0195C144.08 13.832 143.86 13.6943 143.603 13.6064C143.351 13.5127 143.072 13.4658 142.768 13.4658C142.557 13.4658 142.349 13.4834 142.144 13.5186C141.938 13.5537 141.725 13.6123 141.502 13.6943C141.285 13.7764 141.054 13.8877 140.808 14.0283C140.567 14.1689 140.307 14.3477 140.025 14.5645L139.938 14.5117L140.535 13.2725C140.729 13.1846 140.919 13.1143 141.106 13.0615C141.294 13.0029 141.484 12.9561 141.678 12.9209C141.871 12.8857 142.067 12.8623 142.267 12.8506C142.472 12.833 142.686 12.8242 142.908 12.8242C143.523 12.8242 144.048 12.9004 144.481 13.0527C144.921 13.1992 145.278 13.4043 145.554 13.668C145.835 13.9258 146.04 14.2305 146.169 14.582C146.298 14.9277 146.362 15.2998 146.362 15.6982V18.5635C146.362 19.0615 146.368 19.498 146.38 19.873C146.397 20.2422 146.415 20.5615 146.433 20.8311C146.456 21.1006 146.482 21.3262 146.512 21.5078C146.547 21.6895 146.582 21.8418 146.617 21.9648V22H144.675V21.9648C144.704 21.8711 144.725 21.7656 144.736 21.6484C144.754 21.5312 144.769 21.3906 144.78 21.2266C144.657 21.332 144.511 21.4404 144.341 21.5518C144.177 21.6631 143.986 21.7656 143.77 21.8594C143.559 21.9473 143.321 22.0176 143.058 22.0703C142.8 22.1289 142.516 22.1582 142.205 22.1582C141.186 22.1582 140.397 21.9209 139.841 21.4463C139.284 20.9658 139.006 20.2861 139.006 19.4072ZM144.833 16.8496C144.3 16.8555 143.787 16.8877 143.295 16.9463C142.803 16.999 142.366 17.1133 141.985 17.2891C141.61 17.4648 141.309 17.7168 141.08 18.0449C140.857 18.3672 140.746 18.7979 140.746 19.3369C140.746 20.0283 140.919 20.5557 141.265 20.9189C141.61 21.2822 142.088 21.4639 142.697 21.4639C142.979 21.4639 143.233 21.4258 143.462 21.3496C143.696 21.2676 143.901 21.168 144.077 21.0508C144.259 20.9277 144.411 20.7959 144.534 20.6553C144.657 20.5088 144.751 20.3682 144.815 20.2334C144.827 20.0107 144.833 19.7646 144.833 19.4951C144.833 19.2197 144.833 18.9092 144.833 18.5635V16.8496ZM159.581 11.4004H159.388C159.341 11.2656 159.265 11.1133 159.159 10.9434C159.06 10.7734 158.925 10.6152 158.755 10.4688C158.591 10.3164 158.389 10.1904 158.148 10.0908C157.914 9.99121 157.636 9.94141 157.313 9.94141C157.026 9.94141 156.771 9.98535 156.549 10.0732C156.326 10.1611 156.139 10.2842 155.986 10.4424C155.84 10.6006 155.729 10.7881 155.652 11.0049C155.576 11.2217 155.538 11.4619 155.538 11.7256C155.538 12.1475 155.655 12.5518 155.89 12.9385C156.13 13.3193 156.429 13.6973 156.786 14.0723C157.144 14.4473 157.53 14.8223 157.946 15.1973C158.362 15.5723 158.749 15.9619 159.106 16.3662C159.464 16.7705 159.76 17.1953 159.994 17.6406C160.234 18.0801 160.354 18.5547 160.354 19.0645C160.354 19.4453 160.287 19.8291 160.152 20.2158C160.023 20.5967 159.821 20.9395 159.546 21.2441C159.271 21.5488 158.916 21.7979 158.482 21.9912C158.049 22.1787 157.533 22.2725 156.936 22.2725C156.602 22.2725 156.282 22.2402 155.978 22.1758C155.679 22.1172 155.4 22.0439 155.143 21.9561C154.891 21.8623 154.662 21.7627 154.457 21.6572C154.258 21.5518 154.094 21.4551 153.965 21.3672L154.167 19.4248H154.387C154.451 19.7002 154.557 19.9639 154.703 20.2158C154.85 20.4619 155.028 20.6816 155.239 20.875C155.456 21.0625 155.702 21.2148 155.978 21.332C156.253 21.4434 156.555 21.499 156.883 21.499C157.182 21.499 157.448 21.4551 157.683 21.3672C157.923 21.2734 158.128 21.1475 158.298 20.9893C158.468 20.8252 158.597 20.6318 158.685 20.4092C158.778 20.1865 158.825 19.9434 158.825 19.6797C158.825 19.3105 158.758 18.9707 158.623 18.6602C158.488 18.3438 158.31 18.0449 158.087 17.7637C157.87 17.4824 157.621 17.21 157.34 16.9463C157.064 16.6826 156.78 16.4189 156.487 16.1553C156.194 15.8857 155.907 15.6104 155.626 15.3291C155.351 15.0479 155.102 14.749 154.879 14.4326C154.662 14.1104 154.486 13.7676 154.352 13.4043C154.217 13.0352 154.149 12.6309 154.149 12.1914C154.149 11.7285 154.237 11.3125 154.413 10.9434C154.595 10.5684 154.832 10.249 155.125 9.98535C155.424 9.72168 155.761 9.51953 156.136 9.37891C156.511 9.23828 156.897 9.16797 157.296 9.16797C157.589 9.16797 157.858 9.19141 158.104 9.23828C158.351 9.28516 158.57 9.34082 158.764 9.40527C158.963 9.46973 159.136 9.53418 159.282 9.59863C159.429 9.66309 159.549 9.71582 159.643 9.75684L159.581 11.4004ZM161.875 17.4824C161.875 16.8203 161.998 16.208 162.244 15.6455C162.49 15.0771 162.827 14.585 163.255 14.1689C163.688 13.7529 164.198 13.4277 164.784 13.1934C165.37 12.959 166 12.8418 166.674 12.8418C167.336 12.8418 167.957 12.9531 168.537 13.1758C169.123 13.3926 169.633 13.7031 170.066 14.1074C170.5 14.5117 170.84 15.0039 171.086 15.584C171.338 16.1641 171.464 16.8145 171.464 17.5352C171.464 18.1387 171.358 18.7188 171.147 19.2754C170.937 19.832 170.626 20.3242 170.216 20.752C169.806 21.1797 169.302 21.5225 168.704 21.7803C168.112 22.0322 167.43 22.1582 166.656 22.1582C166 22.1582 165.382 22.0498 164.802 21.833C164.222 21.6162 163.715 21.3057 163.281 20.9014C162.848 20.4971 162.505 20.0078 162.253 19.4336C162.001 18.8535 161.875 18.2031 161.875 17.4824ZM166.858 21.5166C167.274 21.5166 167.655 21.4346 168.001 21.2705C168.353 21.1064 168.654 20.8691 168.906 20.5586C169.158 20.248 169.354 19.8701 169.495 19.4248C169.636 18.9795 169.706 18.4756 169.706 17.9131C169.706 17.2803 169.639 16.6943 169.504 16.1553C169.369 15.6104 169.167 15.1416 168.897 14.749C168.634 14.3506 168.3 14.04 167.896 13.8174C167.491 13.5947 167.02 13.4834 166.48 13.4834C166.064 13.4834 165.684 13.5654 165.338 13.7295C164.992 13.8877 164.69 14.1191 164.433 14.4238C164.181 14.7285 163.984 15.1035 163.844 15.5488C163.703 15.9883 163.633 16.4893 163.633 17.0518C163.633 17.6846 163.7 18.2734 163.835 18.8184C163.976 19.3633 164.181 19.8379 164.45 20.2422C164.72 20.6406 165.054 20.9541 165.452 21.1826C165.856 21.4053 166.325 21.5166 166.858 21.5166ZM180.745 20.1279L180.095 21.6924C179.937 21.7627 179.755 21.8271 179.55 21.8857C179.345 21.9443 179.131 21.9941 178.908 22.0352C178.691 22.0762 178.472 22.1055 178.249 22.123C178.026 22.1465 177.815 22.1582 177.616 22.1582C176.907 22.1582 176.251 22.0557 175.647 21.8506C175.05 21.6396 174.531 21.335 174.092 20.9365C173.658 20.5381 173.318 20.0488 173.072 19.4688C172.826 18.8887 172.703 18.2266 172.703 17.4824C172.703 16.8203 172.829 16.208 173.081 15.6455C173.339 15.0771 173.693 14.585 174.145 14.1689C174.602 13.7529 175.138 13.4277 175.753 13.1934C176.368 12.959 177.036 12.8418 177.757 12.8418C178.085 12.8418 178.437 12.8711 178.812 12.9297C179.187 12.9824 179.521 13.0527 179.813 13.1406L180.438 14.6348L180.332 14.6963C180.186 14.5146 180.01 14.3506 179.805 14.2041C179.605 14.0518 179.383 13.9229 179.137 13.8174C178.896 13.7119 178.642 13.6299 178.372 13.5713C178.103 13.5127 177.827 13.4834 177.546 13.4834C177.089 13.4834 176.673 13.5654 176.298 13.7295C175.923 13.8877 175.601 14.1191 175.331 14.4238C175.062 14.7285 174.851 15.1035 174.698 15.5488C174.552 15.9883 174.479 16.4893 174.479 17.0518C174.479 17.6846 174.549 18.2734 174.689 18.8184C174.836 19.3633 175.05 19.8379 175.331 20.2422C175.618 20.6406 175.976 20.9541 176.403 21.1826C176.837 21.4053 177.344 21.5166 177.924 21.5166C178.193 21.5166 178.46 21.4844 178.724 21.4199C178.993 21.3496 179.245 21.2529 179.479 21.1299C179.72 21.001 179.939 20.8486 180.139 20.6729C180.338 20.4971 180.505 20.2979 180.64 20.0752L180.745 20.1279ZM182.582 16.4365C182.582 15.9385 182.573 15.5049 182.556 15.1357C182.544 14.7607 182.526 14.4385 182.503 14.1689C182.485 13.8994 182.459 13.6738 182.424 13.4922C182.395 13.3105 182.362 13.1582 182.327 13.0352V13H184.357V13.0352C184.322 13.1582 184.29 13.3105 184.261 13.4922C184.231 13.6738 184.205 13.8994 184.182 14.1689C184.158 14.4385 184.141 14.7607 184.129 15.1357C184.117 15.5049 184.111 15.9385 184.111 16.4365V18.5635C184.111 19.0615 184.117 19.498 184.129 19.873C184.141 20.2422 184.158 20.5615 184.182 20.8311C184.205 21.1006 184.231 21.3262 184.261 21.5078C184.29 21.6895 184.322 21.8418 184.357 21.9648V22H182.327V21.9648C182.362 21.8418 182.395 21.6895 182.424 21.5078C182.459 21.3262 182.485 21.1006 182.503 20.8311C182.526 20.5615 182.544 20.2422 182.556 19.873C182.573 19.498 182.582 19.0615 182.582 18.5635V16.4365ZM182.397 10.3369C182.397 10.208 182.421 10.0879 182.468 9.97656C182.521 9.85938 182.588 9.75977 182.67 9.67773C182.752 9.58984 182.849 9.52246 182.96 9.47559C183.077 9.42285 183.203 9.39648 183.338 9.39648C183.473 9.39648 183.596 9.42285 183.707 9.47559C183.824 9.52246 183.924 9.58984 184.006 9.67773C184.094 9.75977 184.161 9.85938 184.208 9.97656C184.261 10.0879 184.287 10.208 184.287 10.3369C184.287 10.6064 184.196 10.832 184.015 11.0137C183.833 11.1953 183.607 11.2861 183.338 11.2861C183.203 11.2861 183.077 11.2627 182.96 11.2158C182.849 11.1631 182.752 11.0957 182.67 11.0137C182.588 10.9258 182.521 10.8262 182.468 10.7148C182.421 10.5977 182.397 10.4717 182.397 10.3369ZM190.809 22.1582C190.158 22.1582 189.549 22.0557 188.98 21.8506C188.412 21.6455 187.917 21.3467 187.495 20.9541C187.073 20.5557 186.739 20.0664 186.493 19.4863C186.253 18.9004 186.133 18.2324 186.133 17.4824C186.133 16.8203 186.244 16.208 186.467 15.6455C186.689 15.0771 186.997 14.585 187.39 14.1689C187.782 13.7529 188.239 13.4277 188.761 13.1934C189.288 12.959 189.856 12.8418 190.466 12.8418C191.069 12.8418 191.629 12.9473 192.145 13.1582C192.66 13.3633 193.105 13.665 193.48 14.0635C193.861 14.4561 194.16 14.9453 194.377 15.5312C194.6 16.1113 194.72 16.7734 194.737 17.5176C194.075 17.5059 193.413 17.4971 192.751 17.4912C192.089 17.4854 191.4 17.4824 190.686 17.4824C190.176 17.4824 189.678 17.4854 189.191 17.4912C188.711 17.4971 188.277 17.5059 187.891 17.5176C187.926 18.127 188.02 18.6777 188.172 19.1699C188.33 19.6621 188.544 20.084 188.813 20.4355C189.089 20.7812 189.42 21.0479 189.807 21.2354C190.199 21.4229 190.642 21.5166 191.134 21.5166C191.474 21.5166 191.793 21.4785 192.092 21.4023C192.396 21.3203 192.672 21.209 192.918 21.0684C193.164 20.9277 193.384 20.7637 193.577 20.5762C193.771 20.3828 193.935 20.1748 194.069 19.9521L194.175 20.0049L193.524 21.5693C193.208 21.7334 192.83 21.874 192.391 21.9912C191.951 22.1025 191.424 22.1582 190.809 22.1582ZM189.64 16.7969C190.226 16.7969 190.812 16.7969 191.397 16.7969C191.989 16.791 192.525 16.7793 193.006 16.7617C192.953 16.252 192.854 15.7949 192.707 15.3906C192.561 14.9863 192.373 14.6436 192.145 14.3623C191.916 14.0811 191.646 13.8643 191.336 13.7119C191.025 13.5596 190.683 13.4834 190.308 13.4834C189.968 13.4834 189.654 13.5596 189.367 13.7119C189.086 13.8584 188.84 14.0723 188.629 14.3535C188.418 14.6348 188.248 14.9805 188.119 15.3906C187.99 15.7949 187.914 16.2578 187.891 16.7793C188.154 16.791 188.433 16.7969 188.726 16.7969C189.019 16.7969 189.323 16.7969 189.64 16.7969ZM199.809 21.4814C199.984 21.4814 200.157 21.4492 200.327 21.3848C200.503 21.3203 200.67 21.2324 200.828 21.1211C200.992 21.0098 201.147 20.8838 201.294 20.7432C201.446 20.5967 201.587 20.4443 201.716 20.2861L201.804 20.3301L201.232 21.7451C201.162 21.7803 201.074 21.8242 200.969 21.877C200.869 21.9238 200.746 21.9678 200.6 22.0088C200.459 22.0557 200.292 22.0938 200.099 22.123C199.905 22.1582 199.677 22.1758 199.413 22.1758C198.628 22.1758 198.016 21.9648 197.576 21.543C197.143 21.1152 196.926 20.4502 196.926 19.5479V13.6855L195.449 13.7383V12.9648C195.631 12.9766 195.848 12.9854 196.1 12.9912C196.352 12.9971 196.627 13 196.926 13C196.92 12.584 196.908 12.2178 196.891 11.9014C196.879 11.5791 196.861 11.3008 196.838 11.0664C196.82 10.8262 196.797 10.624 196.768 10.46C196.738 10.2959 196.709 10.1582 196.68 10.0469V10.0117H198.71V10.0469C198.675 10.1582 198.643 10.2959 198.613 10.46C198.584 10.624 198.558 10.8232 198.534 11.0576C198.517 11.292 198.499 11.5703 198.481 11.8926C198.47 12.209 198.461 12.5781 198.455 13C198.824 12.9941 199.185 12.9883 199.536 12.9824C199.894 12.9707 200.216 12.959 200.503 12.9473C200.796 12.9297 201.042 12.915 201.241 12.9033C201.446 12.8857 201.581 12.8711 201.646 12.8594L201.487 13.7559C201.188 13.75 200.875 13.7412 200.547 13.7295C200.266 13.7178 199.943 13.709 199.58 13.7031C199.217 13.6973 198.842 13.6914 198.455 13.6855V19.7324C198.455 20.0957 198.493 20.3916 198.569 20.6201C198.651 20.8428 198.754 21.0186 198.877 21.1475C199.006 21.2764 199.149 21.3643 199.308 21.4111C199.472 21.458 199.639 21.4814 199.809 21.4814ZM206.356 21.8945L203.263 15.127C203.151 14.8691 203.031 14.623 202.902 14.3887C202.773 14.1484 202.65 13.9346 202.533 13.7471C202.422 13.5596 202.322 13.4043 202.234 13.2812C202.146 13.1523 202.088 13.0703 202.059 13.0352V13H204.361V13.0352C204.35 13.0645 204.341 13.1084 204.335 13.167C204.329 13.2256 204.326 13.2783 204.326 13.3252C204.326 13.5068 204.353 13.709 204.405 13.9316C204.464 14.1484 204.569 14.4209 204.722 14.749L207.147 20.0225L209.362 14.8193C209.456 14.6025 209.55 14.3652 209.644 14.1074C209.743 13.8496 209.793 13.5889 209.793 13.3252C209.793 13.249 209.787 13.1875 209.775 13.1406C209.764 13.0879 209.752 13.0527 209.74 13.0352V13H211.322V13.0352C211.217 13.1465 211.082 13.3457 210.918 13.6328C210.76 13.9141 210.59 14.2686 210.408 14.6963L206.216 24.6807C206.122 24.8975 206.025 25.1348 205.926 25.3926C205.832 25.6504 205.785 25.9111 205.785 26.1748C205.785 26.251 205.791 26.3125 205.803 26.3594C205.814 26.4121 205.826 26.4473 205.838 26.4648V26.5H204.194V26.4648C204.306 26.3535 204.44 26.1572 204.599 25.876C204.763 25.6006 204.936 25.252 205.117 24.8301L206.356 21.8945Z" fill="#C92B1F"/>
<path d="M56.166 28.5977L62.2012 35.0195V30.8945C62.2012 30.5625 62.1973 30.2734 62.1895 30.0273C62.1816 29.7773 62.1699 29.5625 62.1543 29.3828C62.1387 29.1992 62.1191 29.0469 62.0957 28.9258C62.0762 28.8047 62.0547 28.7031 62.0312 28.6211V28.5977H63.0742V28.6211C63.0508 28.7031 63.0293 28.8047 63.0098 28.9258C62.9902 29.0469 62.9727 29.1992 62.957 29.3828C62.9414 29.5625 62.9297 29.7773 62.9219 30.0273C62.9141 30.2734 62.9102 30.5625 62.9102 30.8945V37.1172H62.7051L56.6699 30.7012V34.709C56.6699 35.041 56.6738 35.332 56.6816 35.582C56.6895 35.8281 56.7012 36.041 56.7168 36.2207C56.7324 36.4004 56.75 36.5508 56.7695 36.6719C56.7891 36.793 56.8105 36.8945 56.834 36.9766V37H55.791V36.9766C55.8145 36.8945 55.8359 36.793 55.8555 36.6719C55.8789 36.5508 55.8984 36.4004 55.9141 36.2207C55.9297 36.041 55.9414 35.8281 55.9492 35.582C55.957 35.332 55.9609 35.041 55.9609 34.709V30.8945C55.9609 30.5625 55.957 30.2734 55.9492 30.0273C55.9414 29.7773 55.9297 29.5625 55.9141 29.3828C55.8984 29.1992 55.8789 29.0469 55.8555 28.9258C55.8359 28.8047 55.8145 28.7031 55.791 28.6211V28.5977H56.166ZM64.9047 35.2715C64.9047 34.9629 64.9672 34.6953 65.0922 34.4688C65.2211 34.2422 65.391 34.0488 65.602 33.8887C65.8129 33.7285 66.0531 33.5996 66.3227 33.502C66.5922 33.4004 66.8715 33.3223 67.1605 33.2676C67.4496 33.209 67.7348 33.1699 68.016 33.1504C68.2973 33.127 68.5551 33.1133 68.7895 33.1094V32.8105C68.7895 32.5527 68.7563 32.3301 68.6898 32.1426C68.6234 31.9551 68.5297 31.8008 68.4086 31.6797C68.2875 31.5547 68.141 31.4629 67.9691 31.4043C67.8012 31.3418 67.6156 31.3105 67.4125 31.3105C67.2719 31.3105 67.1332 31.3223 66.9965 31.3457C66.8598 31.3691 66.7172 31.4082 66.5688 31.4629C66.4242 31.5176 66.2699 31.5918 66.1059 31.6855C65.9457 31.7793 65.7719 31.8984 65.5844 32.043L65.5258 32.0078L65.9242 31.1816C66.0531 31.123 66.1801 31.0762 66.3051 31.041C66.4301 31.002 66.557 30.9707 66.6859 30.9473C66.8148 30.9238 66.9457 30.9082 67.0785 30.9004C67.2152 30.8887 67.3578 30.8828 67.5063 30.8828C67.9164 30.8828 68.266 30.9336 68.5551 31.0352C68.848 31.1328 69.0863 31.2695 69.2699 31.4453C69.4574 31.6172 69.5941 31.8203 69.6801 32.0547C69.766 32.2852 69.809 32.5332 69.809 32.7988V34.709C69.809 35.041 69.8129 35.332 69.8207 35.582C69.8324 35.8281 69.8441 36.041 69.8559 36.2207C69.8715 36.4004 69.8891 36.5508 69.9086 36.6719C69.932 36.793 69.9555 36.8945 69.9789 36.9766V37H68.684V36.9766C68.7035 36.9141 68.7172 36.8438 68.725 36.7656C68.7367 36.6875 68.7465 36.5938 68.7543 36.4844C68.6723 36.5547 68.5746 36.627 68.4613 36.7012C68.352 36.7754 68.225 36.8438 68.0805 36.9062C67.9398 36.9648 67.7816 37.0117 67.6059 37.0469C67.434 37.0859 67.2445 37.1055 67.0375 37.1055C66.3578 37.1055 65.8324 36.9473 65.4613 36.6309C65.0902 36.3105 64.9047 35.8574 64.9047 35.2715ZM68.7895 33.5664C68.434 33.5703 68.0922 33.5918 67.7641 33.6309C67.4359 33.666 67.1449 33.7422 66.891 33.8594C66.641 33.9766 66.4398 34.1445 66.2875 34.3633C66.1391 34.5781 66.0648 34.8652 66.0648 35.2246C66.0648 35.6855 66.1801 36.0371 66.4105 36.2793C66.641 36.5215 66.9594 36.6426 67.3656 36.6426C67.5531 36.6426 67.723 36.6172 67.8754 36.5664C68.0316 36.5117 68.1684 36.4453 68.2855 36.3672C68.4066 36.2852 68.5082 36.1973 68.5902 36.1035C68.6723 36.0059 68.7348 35.9121 68.7777 35.8223C68.7855 35.6738 68.7895 35.5098 68.7895 35.3301C68.7895 35.1465 68.7895 34.9395 68.7895 34.709V33.5664ZM74.452 39.6777C74.7684 39.6777 75.0359 39.6426 75.2547 39.5723C75.4734 39.5059 75.6531 39.4121 75.7938 39.291C75.9383 39.1699 76.0477 39.0234 76.1219 38.8516C76.2 38.6836 76.2566 38.498 76.2918 38.2949C76.3309 38.0918 76.3523 37.875 76.3563 37.6445C76.3641 37.4141 76.368 37.1758 76.368 36.9297V36.7363C76.1766 36.8379 75.9461 36.9258 75.6766 37C75.407 37.0703 75.1023 37.1055 74.7625 37.1055C74.2977 37.1055 73.8758 37.0332 73.4969 36.8887C73.118 36.7441 72.7938 36.5371 72.5242 36.2676C72.2586 35.998 72.0535 35.6719 71.909 35.2891C71.7645 34.9023 71.6922 34.4688 71.6922 33.9883C71.6922 33.5469 71.7625 33.1367 71.9031 32.7578C72.0477 32.3789 72.2488 32.0508 72.5066 31.7734C72.7684 31.4961 73.0789 31.2793 73.4383 31.123C73.8016 30.9629 74.202 30.8828 74.6395 30.8828C74.827 30.8828 74.9988 30.8984 75.1551 30.9297C75.3113 30.9609 75.4559 31.0039 75.5887 31.0586C75.7254 31.1094 75.8523 31.1699 75.9695 31.2402C76.0906 31.3066 76.2078 31.3789 76.3211 31.457L76.2625 31.0234V31H77.5574V31.0234C77.534 31.1055 77.5105 31.207 77.4871 31.3281C77.4676 31.4492 77.45 31.5996 77.4344 31.7793C77.4227 31.959 77.4109 32.1738 77.3992 32.4238C77.3914 32.6699 77.3875 32.959 77.3875 33.291V37.2754C77.3875 37.6348 77.3387 37.9844 77.241 38.3242C77.1473 38.668 76.9852 38.9727 76.7547 39.2383C76.5281 39.5039 76.2273 39.7168 75.8523 39.877C75.4773 40.0371 75.0105 40.1172 74.452 40.1172C74.2566 40.1172 74.0594 40.0977 73.8602 40.0586C73.6609 40.0234 73.4715 39.9785 73.2918 39.9238C73.1121 39.873 72.95 39.8164 72.8055 39.7539C72.6609 39.6914 72.5457 39.6367 72.4598 39.5898L72.2781 38.4648L72.3719 38.4414C72.4656 38.6445 72.5926 38.8223 72.7527 38.9746C72.9168 39.1309 73.0945 39.2598 73.2859 39.3613C73.4773 39.4668 73.6746 39.5449 73.8777 39.5957C74.0848 39.6504 74.2762 39.6777 74.452 39.6777ZM75.0262 36.6777C75.3074 36.6777 75.5613 36.6309 75.7879 36.5371C76.0184 36.4434 76.2117 36.334 76.368 36.209V33.291C76.368 33.0723 76.366 32.875 76.3621 32.6992C76.3582 32.5195 76.3563 32.3574 76.3563 32.2129C76.2625 32.0684 76.1531 31.9414 76.0281 31.832C75.907 31.7188 75.7762 31.625 75.6355 31.5508C75.4988 31.4727 75.3582 31.4141 75.2137 31.375C75.0691 31.332 74.9266 31.3105 74.7859 31.3105C74.4891 31.3105 74.2215 31.3652 73.9832 31.4746C73.7449 31.584 73.5418 31.7422 73.3738 31.9492C73.2098 32.1523 73.0828 32.4023 72.993 32.6992C72.907 32.9922 72.8641 33.3262 72.8641 33.7012C72.8641 34.123 72.9109 34.5156 73.0047 34.8789C73.0984 35.2422 73.2352 35.5586 73.4148 35.8281C73.5984 36.0938 73.825 36.3027 74.0945 36.4551C74.3641 36.6035 74.6746 36.6777 75.0262 36.6777ZM79.7922 33.1738C79.7922 32.8418 79.7863 32.5527 79.7746 32.3066C79.7668 32.0566 79.7551 31.8418 79.7395 31.6621C79.7277 31.4824 79.7102 31.332 79.6867 31.2109C79.6672 31.0898 79.6457 30.9883 79.6223 30.9062V30.8828H80.9758V30.9062C80.9562 30.9648 80.9387 31.0312 80.923 31.1055C80.9074 31.1797 80.8937 31.2637 80.882 31.3574C81.1125 31.2246 81.3664 31.1133 81.6437 31.0234C81.925 30.9297 82.2355 30.8828 82.5754 30.8828C83.009 30.8828 83.4035 30.957 83.759 31.1055C84.1184 31.25 84.425 31.459 84.6789 31.7324C84.9367 32.0059 85.1359 32.3359 85.2766 32.7227C85.4172 33.1094 85.4875 33.543 85.4875 34.0234C85.4875 34.4258 85.4172 34.8125 85.2766 35.1836C85.1398 35.5547 84.9367 35.8828 84.6672 36.168C84.4016 36.4531 84.0734 36.6816 83.6828 36.8535C83.2922 37.0215 82.843 37.1055 82.3352 37.1055C82.0305 37.1055 81.7531 37.082 81.5031 37.0352C81.2531 36.9883 81.0227 36.9277 80.8117 36.8535V37.709C80.8117 38.041 80.8156 38.3301 80.8234 38.5762C80.8312 38.8262 80.843 39.041 80.8586 39.2207C80.8742 39.4004 80.8918 39.5508 80.9113 39.6719C80.9309 39.793 80.9523 39.8945 80.9758 39.9766V40H79.6223V39.9766C79.6457 39.8945 79.6672 39.793 79.6867 39.6719C79.7102 39.5508 79.7277 39.4004 79.7395 39.2207C79.7551 39.041 79.7668 38.8262 79.7746 38.5762C79.7863 38.3301 79.7922 38.041 79.7922 37.709V33.1738ZM82.3703 31.3223C82.2375 31.3223 82.1008 31.3398 81.9602 31.375C81.8234 31.4062 81.6867 31.4531 81.55 31.5156C81.4172 31.5742 81.2883 31.6504 81.1633 31.7441C81.0422 31.834 80.9328 31.9375 80.8352 32.0547C80.8273 32.2031 80.8215 32.3711 80.8176 32.5586C80.8137 32.7461 80.8117 32.9512 80.8117 33.1738V36.2441C80.8898 36.3027 80.9777 36.3574 81.0754 36.4082C81.173 36.459 81.2824 36.5059 81.4035 36.5488C81.5285 36.5879 81.6672 36.6191 81.8195 36.6426C81.9758 36.666 82.1477 36.6777 82.3352 36.6777C82.6398 36.6777 82.9152 36.623 83.1613 36.5137C83.4074 36.4043 83.6145 36.2461 83.7824 36.0391C83.9543 35.832 84.0852 35.5801 84.175 35.2832C84.2687 34.9863 84.3156 34.6504 84.3156 34.2754C84.3156 33.8535 84.2805 33.4629 84.2102 33.1035C84.1398 32.7402 84.0266 32.4277 83.8703 32.166C83.718 31.9004 83.5187 31.6934 83.2727 31.5449C83.0266 31.3965 82.7258 31.3223 82.3703 31.3223ZM88.3844 34.9492C88.3844 35.4648 88.4859 35.8438 88.6891 36.0859C88.8961 36.3281 89.1734 36.4492 89.5211 36.4492C89.6461 36.4492 89.7867 36.4238 89.943 36.373C90.0992 36.3184 90.2594 36.248 90.4234 36.1621C90.5914 36.0723 90.7574 35.9688 90.9215 35.8516C91.0895 35.7344 91.2437 35.6094 91.3844 35.4766C91.3922 35.3633 91.3961 35.2441 91.3961 35.1191C91.3961 34.9902 91.3961 34.8535 91.3961 34.709V33.291C91.3961 32.959 91.3902 32.6699 91.3785 32.4238C91.3707 32.1738 91.359 31.959 91.3434 31.7793C91.3316 31.5996 91.3141 31.4492 91.2906 31.3281C91.2711 31.207 91.2496 31.1055 91.2262 31.0234V31H92.5797V31.0234C92.5562 31.1055 92.5348 31.207 92.5152 31.3281C92.4957 31.4492 92.4781 31.5996 92.4625 31.7793C92.4469 31.959 92.4352 32.1738 92.4273 32.4238C92.4195 32.6699 92.4156 32.959 92.4156 33.291V34.709C92.4156 35.041 92.4195 35.332 92.4273 35.582C92.4352 35.8281 92.4469 36.041 92.4625 36.2207C92.4781 36.4004 92.4957 36.5508 92.5152 36.6719C92.5348 36.793 92.5562 36.8945 92.5797 36.9766V37H91.2262V36.9766C91.2496 36.8789 91.273 36.7539 91.2965 36.6016C91.3238 36.4492 91.3434 36.25 91.3551 36.0039C91.1949 36.1406 91.0211 36.2754 90.8336 36.4082C90.65 36.541 90.4566 36.6602 90.2535 36.7656C90.0543 36.8711 89.8512 36.9551 89.6441 37.0176C89.441 37.084 89.2398 37.1172 89.0406 37.1172C88.7359 37.1172 88.4762 37.0645 88.2613 36.959C88.0504 36.8535 87.8766 36.7148 87.7398 36.543C87.607 36.3711 87.5094 36.1758 87.4469 35.957C87.3883 35.7383 87.359 35.5137 87.359 35.2832V33.291C87.359 32.959 87.3551 32.6699 87.3473 32.4238C87.3395 32.1738 87.3277 31.959 87.3121 31.7793C87.2965 31.5996 87.2789 31.4492 87.2594 31.3281C87.2398 31.207 87.2184 31.1055 87.1949 31.0234V31H88.5484V31.0234C88.525 31.1055 88.5035 31.207 88.484 31.3281C88.4645 31.4492 88.4469 31.5996 88.4312 31.7793C88.4156 31.959 88.4039 32.1738 88.3961 32.4238C88.3883 32.6699 88.3844 32.959 88.3844 33.291V34.9492ZM94.8203 33.291C94.8203 32.959 94.8145 32.6699 94.8027 32.4238C94.7949 32.1738 94.7832 31.959 94.7676 31.7793C94.7559 31.5996 94.7383 31.4492 94.7148 31.3281C94.6953 31.207 94.6738 31.1055 94.6504 31.0234V31H96.0039V31.0234C95.9727 31.1133 95.9453 31.2227 95.9219 31.3516C95.9023 31.4805 95.8867 31.6465 95.875 31.8496C96.0195 31.7285 96.1699 31.6094 96.3262 31.4922C96.4824 31.375 96.6426 31.2715 96.8066 31.1816C96.9707 31.0918 97.1367 31.0195 97.3047 30.9648C97.4766 30.9102 97.6484 30.8828 97.8203 30.8828C97.9258 30.8828 98.0176 30.8887 98.0957 30.9004C98.1738 30.9082 98.2441 30.9219 98.3066 30.9414C98.3691 30.957 98.4258 30.9766 98.4766 31C98.5273 31.0195 98.5762 31.0391 98.623 31.0586L98.3359 32.1777L98.2363 32.1543C98.1895 31.9824 98.1016 31.8457 97.9727 31.7441C97.8438 31.6387 97.668 31.5859 97.4453 31.5859C97.3242 31.5859 97.1973 31.6074 97.0645 31.6504C96.9316 31.6934 96.7969 31.7539 96.6602 31.832C96.5234 31.9062 96.3867 31.9941 96.25 32.0957C96.1133 32.1934 95.9805 32.2969 95.8516 32.4062C95.8438 32.5195 95.8398 32.6426 95.8398 32.7754C95.8398 32.9082 95.8398 33.0488 95.8398 33.1973V34.709C95.8398 35.041 95.8438 35.332 95.8516 35.582C95.8594 35.8281 95.8711 36.041 95.8867 36.2207C95.9023 36.4004 95.9199 36.5508 95.9395 36.6719C95.959 36.793 95.9805 36.8945 96.0039 36.9766V37H94.6504V36.9766C94.6738 36.8945 94.6953 36.793 94.7148 36.6719C94.7383 36.5508 94.7559 36.4004 94.7676 36.2207C94.7832 36.041 94.7949 35.8281 94.8027 35.582C94.8145 35.332 94.8203 35.041 94.8203 34.709V33.291ZM111.061 29.8867L111.009 29.9102C110.704 29.6289 110.337 29.4043 109.907 29.2363C109.481 29.0684 109.013 28.9844 108.501 28.9844C108.009 28.9844 107.557 29.0625 107.147 29.2188C106.737 29.3711 106.384 29.5938 106.087 29.8867C105.794 30.1797 105.565 30.5391 105.401 30.9648C105.237 31.3906 105.155 31.875 105.155 32.418C105.155 33.0156 105.233 33.5742 105.389 34.0938C105.546 34.6094 105.778 35.0566 106.087 35.4355C106.395 35.8145 106.78 36.1133 107.241 36.332C107.706 36.5469 108.247 36.6543 108.864 36.6543C109.087 36.6543 109.309 36.6309 109.532 36.584C109.755 36.5371 109.968 36.4688 110.171 36.3789C110.378 36.2852 110.571 36.1738 110.751 36.0449C110.934 35.9121 111.1 35.7617 111.249 35.5938L111.313 35.6348L110.845 36.8301C110.552 36.9434 110.227 37.0293 109.872 37.0879C109.52 37.1504 109.165 37.1816 108.805 37.1816C108.083 37.1816 107.421 37.0781 106.819 36.8711C106.221 36.6602 105.706 36.3633 105.272 35.9805C104.843 35.5977 104.507 35.1387 104.264 34.6035C104.026 34.0645 103.907 33.4668 103.907 32.8105C103.907 32.4395 103.954 32.0742 104.048 31.7148C104.145 31.3555 104.286 31.0137 104.47 30.6895C104.653 30.3652 104.88 30.0684 105.149 29.7988C105.419 29.5254 105.725 29.2891 106.069 29.0898C106.417 28.8906 106.798 28.7363 107.212 28.627C107.63 28.5137 108.081 28.457 108.565 28.457C109.319 28.457 110.018 28.5723 110.663 28.8027L111.061 29.8867ZM117.081 33.0508C117.081 32.5352 116.978 32.1562 116.771 31.9141C116.564 31.6719 116.286 31.5508 115.939 31.5508C115.81 31.5508 115.665 31.5781 115.505 31.6328C115.349 31.6836 115.187 31.7539 115.019 31.8438C114.855 31.9336 114.691 32.0391 114.527 32.1602C114.362 32.2773 114.21 32.4023 114.07 32.5352V34.709C114.07 35.041 114.073 35.332 114.081 35.582C114.089 35.8281 114.101 36.041 114.116 36.2207C114.132 36.4004 114.15 36.5508 114.169 36.6719C114.189 36.793 114.21 36.8945 114.234 36.9766V37H112.88V36.9766C112.904 36.8945 112.925 36.793 112.945 36.6719C112.968 36.5508 112.986 36.4004 112.997 36.2207C113.013 36.041 113.025 35.8281 113.032 35.582C113.044 35.332 113.05 35.041 113.05 34.709V30.5312C113.05 30.1992 113.044 29.9102 113.032 29.6641C113.025 29.4141 113.013 29.1992 112.997 29.0195C112.986 28.8398 112.968 28.6895 112.945 28.5684C112.925 28.4473 112.904 28.3457 112.88 28.2637V28.2402H114.234V28.2637C114.21 28.3457 114.189 28.4473 114.169 28.5684C114.15 28.6895 114.132 28.8398 114.116 29.0195C114.101 29.1992 114.089 29.4141 114.081 29.6641C114.073 29.9102 114.07 30.1992 114.07 30.5312V32.0312C114.226 31.8906 114.398 31.752 114.585 31.6152C114.777 31.4785 114.974 31.3555 115.177 31.2461C115.38 31.1367 115.587 31.0488 115.798 30.9824C116.009 30.916 116.216 30.8828 116.419 30.8828C116.724 30.8828 116.982 30.9355 117.193 31.041C117.407 31.1465 117.581 31.2852 117.714 31.457C117.851 31.6289 117.948 31.8262 118.007 32.0488C118.07 32.2676 118.101 32.4902 118.101 32.7168V34.709C118.101 35.041 118.105 35.332 118.112 35.582C118.12 35.8281 118.132 36.041 118.148 36.2207C118.163 36.4004 118.181 36.5508 118.2 36.6719C118.22 36.793 118.241 36.8945 118.265 36.9766V37H116.911V36.9766C116.935 36.8945 116.956 36.793 116.976 36.6719C116.999 36.5508 117.017 36.4004 117.029 36.2207C117.044 36.041 117.056 35.8281 117.064 35.582C117.075 35.332 117.081 35.041 117.081 34.709V33.0508ZM120.002 35.2715C120.002 34.9629 120.064 34.6953 120.189 34.4688C120.318 34.2422 120.488 34.0488 120.699 33.8887C120.91 33.7285 121.15 33.5996 121.42 33.502C121.689 33.4004 121.968 33.3223 122.257 33.2676C122.546 33.209 122.832 33.1699 123.113 33.1504C123.394 33.127 123.652 33.1133 123.886 33.1094V32.8105C123.886 32.5527 123.853 32.3301 123.787 32.1426C123.72 31.9551 123.627 31.8008 123.505 31.6797C123.384 31.5547 123.238 31.4629 123.066 31.4043C122.898 31.3418 122.713 31.3105 122.509 31.3105C122.369 31.3105 122.23 31.3223 122.093 31.3457C121.957 31.3691 121.814 31.4082 121.666 31.4629C121.521 31.5176 121.367 31.5918 121.203 31.6855C121.043 31.7793 120.869 31.8984 120.681 32.043L120.623 32.0078L121.021 31.1816C121.15 31.123 121.277 31.0762 121.402 31.041C121.527 31.002 121.654 30.9707 121.783 30.9473C121.912 30.9238 122.043 30.9082 122.175 30.9004C122.312 30.8887 122.455 30.8828 122.603 30.8828C123.013 30.8828 123.363 30.9336 123.652 31.0352C123.945 31.1328 124.183 31.2695 124.367 31.4453C124.554 31.6172 124.691 31.8203 124.777 32.0547C124.863 32.2852 124.906 32.5332 124.906 32.7988V34.709C124.906 35.041 124.91 35.332 124.918 35.582C124.929 35.8281 124.941 36.041 124.953 36.2207C124.968 36.4004 124.986 36.5508 125.005 36.6719C125.029 36.793 125.052 36.8945 125.076 36.9766V37H123.781V36.9766C123.8 36.9141 123.814 36.8438 123.822 36.7656C123.834 36.6875 123.843 36.5938 123.851 36.4844C123.769 36.5547 123.671 36.627 123.558 36.7012C123.449 36.7754 123.322 36.8438 123.177 36.9062C123.037 36.9648 122.879 37.0117 122.703 37.0469C122.531 37.0859 122.341 37.1055 122.134 37.1055C121.455 37.1055 120.929 36.9473 120.558 36.6309C120.187 36.3105 120.002 35.8574 120.002 35.2715ZM123.886 33.5664C123.531 33.5703 123.189 33.5918 122.861 33.6309C122.533 33.666 122.242 33.7422 121.988 33.8594C121.738 33.9766 121.537 34.1445 121.384 34.3633C121.236 34.5781 121.162 34.8652 121.162 35.2246C121.162 35.6855 121.277 36.0371 121.507 36.2793C121.738 36.5215 122.056 36.6426 122.463 36.6426C122.65 36.6426 122.82 36.6172 122.972 36.5664C123.129 36.5117 123.265 36.4453 123.382 36.3672C123.504 36.2852 123.605 36.1973 123.687 36.1035C123.769 36.0059 123.832 35.9121 123.875 35.8223C123.882 35.6738 123.886 35.5098 123.886 35.3301C123.886 35.1465 123.886 34.9395 123.886 34.709V33.5664ZM127.281 33.1738C127.281 32.8418 127.275 32.5527 127.264 32.3066C127.256 32.0566 127.244 31.8418 127.229 31.6621C127.217 31.4824 127.199 31.332 127.176 31.2109C127.156 31.0898 127.135 30.9883 127.111 30.9062V30.8828H128.465V30.9062C128.445 30.9648 128.428 31.0312 128.412 31.1055C128.396 31.1797 128.383 31.2637 128.371 31.3574C128.602 31.2246 128.855 31.1133 129.133 31.0234C129.414 30.9297 129.725 30.8828 130.064 30.8828C130.498 30.8828 130.893 30.957 131.248 31.1055C131.607 31.25 131.914 31.459 132.168 31.7324C132.426 32.0059 132.625 32.3359 132.766 32.7227C132.906 33.1094 132.977 33.543 132.977 34.0234C132.977 34.4258 132.906 34.8125 132.766 35.1836C132.629 35.5547 132.426 35.8828 132.156 36.168C131.891 36.4531 131.562 36.6816 131.172 36.8535C130.781 37.0215 130.332 37.1055 129.824 37.1055C129.52 37.1055 129.242 37.082 128.992 37.0352C128.742 36.9883 128.512 36.9277 128.301 36.8535V37.709C128.301 38.041 128.305 38.3301 128.312 38.5762C128.32 38.8262 128.332 39.041 128.348 39.2207C128.363 39.4004 128.381 39.5508 128.4 39.6719C128.42 39.793 128.441 39.8945 128.465 39.9766V40H127.111V39.9766C127.135 39.8945 127.156 39.793 127.176 39.6719C127.199 39.5508 127.217 39.4004 127.229 39.2207C127.244 39.041 127.256 38.8262 127.264 38.5762C127.275 38.3301 127.281 38.041 127.281 37.709V33.1738ZM129.859 31.3223C129.727 31.3223 129.59 31.3398 129.449 31.375C129.312 31.4062 129.176 31.4531 129.039 31.5156C128.906 31.5742 128.777 31.6504 128.652 31.7441C128.531 31.834 128.422 31.9375 128.324 32.0547C128.316 32.2031 128.311 32.3711 128.307 32.5586C128.303 32.7461 128.301 32.9512 128.301 33.1738V36.2441C128.379 36.3027 128.467 36.3574 128.564 36.4082C128.662 36.459 128.771 36.5059 128.893 36.5488C129.018 36.5879 129.156 36.6191 129.309 36.6426C129.465 36.666 129.637 36.6777 129.824 36.6777C130.129 36.6777 130.404 36.623 130.65 36.5137C130.896 36.4043 131.104 36.2461 131.271 36.0391C131.443 35.832 131.574 35.5801 131.664 35.2832C131.758 34.9863 131.805 34.6504 131.805 34.2754C131.805 33.8535 131.77 33.4629 131.699 33.1035C131.629 32.7402 131.516 32.4277 131.359 32.166C131.207 31.9004 131.008 31.6934 130.762 31.5449C130.516 31.3965 130.215 31.3223 129.859 31.3223ZM137.01 36.6543C137.127 36.6543 137.243 36.6328 137.356 36.5898C137.473 36.5469 137.584 36.4883 137.69 36.4141C137.799 36.3398 137.903 36.2559 138 36.1621C138.102 36.0645 138.196 35.9629 138.282 35.8574L138.34 35.8867L137.959 36.8301C137.912 36.8535 137.854 36.8828 137.784 36.918C137.717 36.9492 137.635 36.9785 137.537 37.0059C137.444 37.0371 137.332 37.0625 137.204 37.082C137.075 37.1055 136.922 37.1172 136.746 37.1172C136.223 37.1172 135.815 36.9766 135.522 36.6953C135.233 36.4102 135.088 35.9668 135.088 35.3652V31.457L134.104 31.4922V30.9766C134.225 30.9844 134.37 30.9902 134.537 30.9941C134.705 30.998 134.889 31 135.088 31C135.084 30.7227 135.077 30.4785 135.065 30.2676C135.057 30.0527 135.045 29.8672 135.03 29.7109C135.018 29.5508 135.002 29.416 134.983 29.3066C134.963 29.1973 134.944 29.1055 134.924 29.0312V29.0078H136.278V29.0312C136.254 29.1055 136.233 29.1973 136.213 29.3066C136.194 29.416 136.176 29.5488 136.161 29.7051C136.149 29.8613 136.137 30.0469 136.125 30.2617C136.118 30.4727 136.112 30.7188 136.108 31C136.354 30.9961 136.594 30.9922 136.829 30.9883C137.067 30.9805 137.282 30.9727 137.473 30.9648C137.668 30.9531 137.832 30.9434 137.965 30.9355C138.102 30.9238 138.192 30.9141 138.235 30.9062L138.129 31.5039C137.93 31.5 137.721 31.4941 137.502 31.4863C137.315 31.4785 137.1 31.4727 136.858 31.4688C136.616 31.4648 136.366 31.4609 136.108 31.457V35.4883C136.108 35.7305 136.133 35.9277 136.184 36.0801C136.239 36.2285 136.307 36.3457 136.389 36.4316C136.475 36.5176 136.571 36.5762 136.676 36.6074C136.786 36.6387 136.897 36.6543 137.01 36.6543ZM142.72 37.1055C142.286 37.1055 141.88 37.0371 141.501 36.9004C141.122 36.7637 140.792 36.5645 140.511 36.3027C140.229 36.0371 140.007 35.7109 139.843 35.3242C139.682 34.9336 139.602 34.4883 139.602 33.9883C139.602 33.5469 139.677 33.1387 139.825 32.7637C139.973 32.3848 140.179 32.0566 140.44 31.7793C140.702 31.502 141.007 31.2852 141.354 31.1289C141.706 30.9727 142.085 30.8945 142.491 30.8945C142.893 30.8945 143.266 30.9648 143.61 31.1055C143.954 31.2422 144.251 31.4434 144.501 31.709C144.755 31.9707 144.954 32.2969 145.098 32.6875C145.247 33.0742 145.327 33.5156 145.339 34.0117C144.897 34.0039 144.456 33.998 144.014 33.9941C143.573 33.9902 143.114 33.9883 142.637 33.9883C142.298 33.9883 141.966 33.9902 141.641 33.9941C141.321 33.998 141.032 34.0039 140.774 34.0117C140.798 34.418 140.86 34.7852 140.962 35.1133C141.067 35.4414 141.21 35.7227 141.389 35.957C141.573 36.1875 141.794 36.3652 142.052 36.4902C142.313 36.6152 142.608 36.6777 142.936 36.6777C143.163 36.6777 143.376 36.6523 143.575 36.6016C143.778 36.5469 143.962 36.4727 144.126 36.3789C144.29 36.2852 144.436 36.1758 144.565 36.0508C144.694 35.9219 144.804 35.7832 144.893 35.6348L144.964 35.6699L144.53 36.7129C144.319 36.8223 144.067 36.916 143.774 36.9941C143.481 37.0684 143.13 37.1055 142.72 37.1055ZM141.94 33.5312C142.331 33.5312 142.721 33.5312 143.112 33.5312C143.507 33.5273 143.864 33.5195 144.184 33.5078C144.149 33.168 144.083 32.8633 143.985 32.5938C143.887 32.3242 143.762 32.0957 143.61 31.9082C143.458 31.7207 143.278 31.5762 143.071 31.4746C142.864 31.373 142.636 31.3223 142.386 31.3223C142.159 31.3223 141.95 31.373 141.759 31.4746C141.571 31.5723 141.407 31.7148 141.266 31.9023C141.126 32.0898 141.012 32.3203 140.927 32.5938C140.841 32.8633 140.79 33.1719 140.774 33.5195C140.95 33.5273 141.136 33.5312 141.331 33.5312C141.526 33.5312 141.729 33.5312 141.94 33.5312ZM147.198 33.291C147.198 32.959 147.193 32.6699 147.181 32.4238C147.173 32.1738 147.161 31.959 147.146 31.7793C147.134 31.5996 147.116 31.4492 147.093 31.3281C147.073 31.207 147.052 31.1055 147.029 31.0234V31H148.382V31.0234C148.351 31.1133 148.323 31.2227 148.3 31.3516C148.28 31.4805 148.265 31.6465 148.253 31.8496C148.398 31.7285 148.548 31.6094 148.704 31.4922C148.861 31.375 149.021 31.2715 149.185 31.1816C149.349 31.0918 149.515 31.0195 149.683 30.9648C149.855 30.9102 150.027 30.8828 150.198 30.8828C150.304 30.8828 150.396 30.8887 150.474 30.9004C150.552 30.9082 150.622 30.9219 150.685 30.9414C150.747 30.957 150.804 30.9766 150.855 31C150.905 31.0195 150.954 31.0391 151.001 31.0586L150.714 32.1777L150.614 32.1543C150.568 31.9824 150.48 31.8457 150.351 31.7441C150.222 31.6387 150.046 31.5859 149.823 31.5859C149.702 31.5859 149.575 31.6074 149.443 31.6504C149.31 31.6934 149.175 31.7539 149.038 31.832C148.902 31.9062 148.765 31.9941 148.628 32.0957C148.491 32.1934 148.359 32.2969 148.23 32.4062C148.222 32.5195 148.218 32.6426 148.218 32.7754C148.218 32.9082 148.218 33.0488 148.218 33.1973V34.709C148.218 35.041 148.222 35.332 148.23 35.582C148.238 35.8281 148.249 36.041 148.265 36.2207C148.28 36.4004 148.298 36.5508 148.318 36.6719C148.337 36.793 148.359 36.8945 148.382 36.9766V37H147.029V36.9766C147.052 36.8945 147.073 36.793 147.093 36.6719C147.116 36.5508 147.134 36.4004 147.146 36.2207C147.161 36.041 147.173 35.8281 147.181 35.582C147.193 35.332 147.198 35.041 147.198 34.709V33.291Z" fill="black"/>
<path d="M17.9388 37.2188C18.6982 36.6935 19.6098 36.1032 20.6188 35.529C23.4978 33.8904 27.2299 32.3468 30.4899 32.8939C32.1299 33.1691 34.0912 34.2127 36.0343 35.5214C37.9849 36.8353 39.9469 38.4371 41.5928 39.8606C42.4948 40.6407 43.3125 41.3768 43.9786 41.9802C43.8391 41.8098 43.6967 41.6364 43.5519 41.46C41.9311 39.4856 40.005 37.1394 38.4151 34.586C36.4034 31.3551 34.9004 27.7489 35.2379 24.083C35.408 22.2353 36.2948 20.1795 37.5059 18.1499C38.7196 16.1158 40.2726 14.0859 41.8005 12.2857C42.9865 10.8884 44.1597 9.62689 45.1513 8.6062C44.1005 9.35856 42.8435 10.2268 41.4971 11.0903C39.6691 12.2627 37.6713 13.4298 35.7979 14.2863C33.9343 15.1383 32.1567 15.7008 30.7825 15.6243C28.0791 15.4736 25.8156 13.9812 24.0432 12.3469C23.155 11.528 22.3838 10.6675 21.7369 9.91115C21.5247 9.66311 21.3274 9.42812 21.1443 9.20988C21.1649 9.24744 21.1859 9.28557 21.2072 9.32427C21.6996 10.2204 22.3586 11.4195 23.0387 12.7681C23.8889 14.454 24.7764 16.3815 25.4196 18.2585C26.0608 20.1297 26.4688 21.9772 26.3364 23.494C26.204 25.012 25.4751 26.7615 24.48 28.5154C23.482 30.2746 22.2022 32.0622 20.9424 33.6612C19.8674 35.0258 18.8043 36.2563 17.9388 37.2188Z" fill="white" stroke="#5E5C5C" stroke-width="0.5"/>
<path d="M6.2584 12.2511C5.39133 11.0408 4.5245 9.93199 3.74929 8.98656C4.50816 9.6372 5.36198 10.3458 6.26396 11.0534C7.83322 12.2844 9.55359 13.5164 11.1765 14.4342C12.7881 15.3456 14.3457 15.9719 15.5767 15.9394C17.987 15.8756 20.0479 14.4462 21.6703 12.8715C22.4846 12.0811 23.1969 11.2457 23.7954 10.5107C23.9953 10.2653 24.181 10.0329 24.3531 9.8176C24.4137 9.7418 24.4726 9.66811 24.5298 9.5967C24.453 9.76376 24.3688 9.94556 24.2785 10.1407C23.8616 11.0409 23.3129 12.2258 22.749 13.5629C22.018 15.2963 21.2578 17.2939 20.7187 19.2786C20.1805 21.2598 19.8576 23.2463 20.0151 24.9515C20.3279 28.3377 22.2725 32.1317 24.1151 35.0572C24.775 36.1049 25.4249 37.0461 25.9879 37.8232C25.3668 37.3044 24.6351 36.7305 23.8289 36.1676C22.5826 35.2974 21.1522 34.4493 19.6724 33.8725C18.1943 33.2964 16.6503 32.9846 15.1845 33.2081C13.7153 33.4321 11.9397 34.4176 10.1785 35.6622C8.40808 36.9132 6.61762 38.4515 5.11312 39.8211C4.38775 40.4815 3.72067 41.1104 3.15524 41.6483C3.40029 41.3421 3.65417 41.028 3.91427 40.7062C5.29078 39.0032 6.84151 37.0846 8.181 34.9748C10.1032 31.9472 11.6212 28.4836 11.6212 24.5949C11.6212 22.6308 10.9398 20.4699 9.93599 18.347C8.9306 16.2208 7.59252 14.1133 6.2584 12.2511Z" fill="#D20F00" stroke="#1A1919" stroke-width="0.5"/>
<path d="M18.8824 8.2473C19.2498 11.2371 17.5385 13.6952 15.1762 13.8425C12.8138 13.9898 10.5291 11.781 10.1617 8.79118C9.79434 5.80136 11.5056 3.34333 13.8679 3.196C16.2303 3.04867 18.515 5.25749 18.8824 8.2473Z" fill="#D20F00" stroke="#0E0E0E" stroke-width="0.5"/>
<path d="M26.8606 8.45008C26.6748 11.462 28.5262 13.9995 30.8729 14.2311C33.2196 14.4627 35.3597 12.3192 35.5454 9.30721C35.7312 6.29527 33.8799 3.75778 31.5331 3.52617C29.1864 3.29457 27.0464 5.43814 26.8606 8.45008Z" fill="white" stroke="#5E5C5C" stroke-width="0.5"/>
</svg>
