<svg width="362" height="74" viewBox="0 0 362 74" fill="none" xmlns="http://www.w3.org/2000/svg">
<g filter="url(#filter0_d_117_16)">
<path d="M73.478 9.4115C73.478 9.4115 56.6585 23.7028 49.297 23.2639C41.9354 22.8249 36.87 14.5541 34.6244 12.0574C32.3788 9.56071 43.3949 26.6384 42.677 35.4465C41.9591 44.2547 28.2 59.0296 28.2 59.0296C28.2 59.0296 39.9003 48.3903 48.8063 49.9899C57.7122 51.5896 74.2615 71.2681 69.2057 64.5108C64.1499 57.7536 54.9614 47.184 55.8892 36.3979C56.817 25.6119 73.478 9.4115 73.478 9.4115Z" fill="white"/>
<path d="M31.776 55.6115C32.7078 54.9421 33.7715 54.2232 34.9259 53.52C36.9632 52.279 39.2933 51.0808 41.6867 50.2938C44.0774 49.5078 46.5595 49.1225 48.887 49.5406C51.2216 49.9599 53.9969 51.5443 56.7288 53.5136C59.4757 55.4937 62.237 57.9067 64.5518 60.0492C65.4292 60.8613 66.2516 61.6434 66.9858 62.3496C64.7393 59.4204 62.0975 55.9564 59.909 52.1948C57.0775 47.3279 54.9586 41.8899 55.4344 36.3588C55.6745 33.5676 56.9255 30.466 58.6301 27.4086C60.3388 24.3439 62.5245 21.2864 64.6738 18.5763C66.0943 16.7851 67.5017 15.1423 68.7495 13.7452C67.4493 14.7263 65.9708 15.8048 64.4064 16.8787C61.8351 18.6437 59.0219 20.4028 56.3816 21.6947C53.7608 22.977 51.2369 23.8369 49.2698 23.7196C45.424 23.4902 42.2171 21.2198 39.7215 18.7572C38.4692 17.5214 37.3826 16.2238 36.4725 15.085C36.4058 15.0015 36.3402 14.9191 36.2756 14.8377C36.9137 16.0842 37.6919 17.6227 38.4908 19.318C39.6865 21.8557 40.9353 24.7582 41.8406 27.5857C42.7428 30.4034 43.3189 33.1911 43.132 35.4836C42.945 37.7784 41.916 40.4191 40.5154 43.0611C39.1103 45.7119 37.309 48.4044 35.5369 50.8118C34.2117 52.612 32.8996 54.2571 31.776 55.6115Z" stroke="#5E5C5C" stroke-width="0.913043"/>
</g>
<g filter="url(#filter1_d_117_16)">
<path d="M5 9.01416C5 9.01416 19.9801 23.4404 26.5696 23.0607C30.1996 22.8516 33.2178 20.2602 35.5346 17.5604C37.4234 15.3593 38.8461 13.0861 39.754 11.973C41.7757 9.49455 32.3869 25.1178 33.102 35.6384C33.8171 46.1591 46.4707 58.8817 46.4707 58.8817C46.4707 58.8817 35.0399 48.6822 26.8773 49.7895C18.7146 50.8969 3.99474 70.8616 8.552 64.1454C13.1093 57.4292 21.2365 46.1207 21.1221 36.1858C21.0078 26.251 5 9.01416 5 9.01416Z" fill="#D20F00"/>
<path d="M5 9.01416L5.31667 8.68533L4.66548 9.32482L5 9.01416ZM5 9.01416C5.31667 8.68533 5.31669 8.68535 5.31677 8.68542L5.31721 8.68584L5.3191 8.68767L5.32695 8.6952L5.35861 8.72552C5.38673 8.7524 5.42876 8.79246 5.48397 8.84482C5.5944 8.94953 5.75757 9.10341 5.96779 9.29932C6.38825 9.69116 6.99677 10.251 7.74774 10.9219C9.25019 12.264 11.3205 14.0483 13.5943 15.8197C15.8701 17.5926 18.3396 19.3444 20.6417 20.6273C22.9663 21.9229 25.0373 22.6917 26.5433 22.605C29.9751 22.4073 32.8853 19.9467 35.1882 17.2631C36.1197 16.1776 36.9385 15.0716 37.6413 14.0925C37.8129 13.8534 37.9786 13.6204 38.1379 13.3965C38.6236 12.7134 39.0495 12.1145 39.4003 11.6845C39.467 11.6027 39.5285 11.5314 39.5832 11.475C39.6215 11.4356 39.7068 11.3483 39.817 11.2986C39.8648 11.277 40.0514 11.2012 40.2531 11.3147C40.4585 11.4303 40.4882 11.6335 40.4938 11.6886C40.5059 11.8101 40.4715 11.9273 40.4575 11.9749L40.4574 11.9755C40.3839 12.2256 40.1671 12.7115 39.8823 13.3353C39.7994 13.5167 39.7092 13.7132 39.6125 13.9237C39.0246 15.2039 38.1978 17.0041 37.3406 19.1036C35.3358 24.014 33.2078 30.4626 33.5575 35.6075C33.9057 40.7297 37.1774 46.4499 40.4244 50.9377C42.04 53.1707 43.6342 55.0781 44.8247 56.4273C45.4197 57.1017 45.9134 57.6361 46.2577 58.0013C46.4299 58.1838 46.5647 58.3241 46.6561 58.4184C46.7018 58.4656 46.7367 58.5012 46.76 58.5249L46.7862 58.5515L46.7925 58.5579L46.794 58.5594L46.7943 58.5597L46.4707 58.8817L46.7943 58.5597L46.1668 59.2222L46.1667 59.2223L46.1665 59.2221L46.1652 59.2209L46.1595 59.2159L46.1359 59.1951C46.1148 59.1765 46.083 59.1486 46.041 59.1121C45.9569 59.0391 45.8318 58.9315 45.6694 58.7947C45.3446 58.5211 44.8704 58.1304 44.2756 57.6647C43.0854 56.7329 41.4152 55.5028 39.4939 54.308C37.571 53.1123 35.4067 51.9584 33.2275 51.1725C31.0439 50.3849 28.878 49.9788 26.9386 50.2419C25.0285 50.501 22.6614 51.886 20.2108 53.8038C17.7786 55.7071 15.3328 58.0792 13.2735 60.218C11.7397 61.811 10.43 63.2642 9.49947 64.2966C9.17989 64.6512 8.90505 64.9561 8.68123 65.2001C8.46536 65.4353 8.28942 65.6221 8.16708 65.7392C8.11469 65.7894 8.04081 65.8578 7.96679 65.903C7.94579 65.9158 7.90783 65.9374 7.85834 65.9541C7.82038 65.9669 7.70352 66.0025 7.56251 65.9575C7.37788 65.8986 7.28328 65.7491 7.25277 65.6264C7.22863 65.5293 7.24175 65.4488 7.24744 65.4184C7.2603 65.3496 7.28598 65.291 7.29929 65.2618C7.3162 65.2247 7.33652 65.1858 7.35784 65.1473C7.40069 65.0699 7.45913 64.9733 7.53117 64.8593C7.6759 64.6302 7.88893 64.3095 8.17424 63.8891C8.43215 63.509 8.70114 63.1147 8.97911 62.7072C11.1636 59.5051 13.903 55.4895 16.1851 51.1597C18.7608 46.2728 20.7215 41.0438 20.6657 36.1911C20.6383 33.8125 19.654 30.9478 18.147 27.9543C16.6453 24.9711 14.6487 21.9069 12.6483 19.142C10.649 16.3787 8.65226 13.9231 7.15487 12.158C6.40638 11.2756 5.78317 10.5664 5.34745 10.0782C5.1296 9.83407 4.95866 9.64524 4.84239 9.51768C4.78426 9.4539 4.73981 9.40544 4.71 9.37305L4.67639 9.3366L4.66805 9.32759L4.66604 9.32542L4.66558 9.32493C4.6655 9.32484 4.66548 9.32482 5 9.01416ZM40.2615 12.0888C40.2614 12.0889 40.26 12.0902 40.2573 12.0923C40.2602 12.0898 40.2615 12.0887 40.2615 12.0888ZM39.5882 11.691C39.5883 11.6909 39.588 11.6931 39.5868 11.698C39.5875 11.6936 39.5881 11.6911 39.5882 11.691Z" stroke="#312F2F" stroke-width="0.913043"/>
</g>
<g filter="url(#filter2_d_117_16)">
<ellipse rx="6.49588" ry="8.43395" transform="matrix(0.999935 0.0113648 0.0362964 0.999341 26.4202 12.9506)" fill="#D20F00"/>
<path d="M32.4592 13.0192C32.6234 17.54 29.9414 20.9595 26.7098 20.9228C23.4782 20.886 20.5455 17.4028 20.3813 12.8819C20.2171 8.36114 22.8991 4.94168 26.1307 4.97841C29.3623 5.01514 32.295 8.49841 32.4592 13.0192Z" stroke="#353434" stroke-width="0.913043"/>
</g>
<g filter="url(#filter3_d_117_16)">
<ellipse rx="6.49595" ry="8.4344" transform="matrix(-0.994468 -0.105041 -0.0575334 0.998343 49.8716 13.4914)" fill="white"/>
<path d="M43.8656 12.857C43.6053 17.3736 46.1987 21.1166 49.4126 21.4561C52.6266 21.7955 55.6174 18.6423 55.8776 14.1258C56.1379 9.60921 53.5446 5.8662 50.3306 5.52672C47.1167 5.18725 44.1259 8.34044 43.8656 12.857Z" stroke="#5E5C5C" stroke-width="0.913043"/>
</g>
<g filter="url(#filter4_d_117_16)">
<path d="M97.2738 24.5596C96.8679 24.5495 96.3606 24.5444 95.7519 24.5444C95.1431 24.5343 94.4785 24.5241 93.7581 24.514C93.0479 24.5038 92.3022 24.4988 91.5209 24.4988C90.7498 24.4886 89.9939 24.4835 89.2533 24.4835C88.5126 24.4734 87.8074 24.4734 87.1378 24.4835C86.4682 24.4937 85.8848 24.5089 85.3876 24.5292V29.0493C85.3876 29.9117 85.3977 30.6676 85.418 31.317C85.4485 31.9562 85.4789 32.5091 85.5093 32.9758C85.5499 33.4426 85.5956 33.8332 85.6463 34.1477C85.7072 34.4623 85.7681 34.7261 85.8289 34.9391V35H82.1763V34.9391C82.2372 34.7261 82.293 34.4623 82.3438 34.1477C82.4046 33.8332 82.4554 33.4426 82.4959 32.9758C82.5365 32.5091 82.567 31.9562 82.5873 31.317C82.6076 30.6676 82.6177 29.9117 82.6177 29.0493V19.1416C82.6177 18.2792 82.6076 17.5284 82.5873 16.8892C82.567 16.2398 82.5365 15.6818 82.4959 15.2151C82.4554 14.7382 82.4046 14.3425 82.3438 14.028C82.293 13.7134 82.2372 13.4496 82.1763 13.2366V13.1757H85.8289V13.2366C85.7681 13.4496 85.7072 13.7134 85.6463 14.028C85.5956 14.3425 85.5499 14.7382 85.5093 15.2151C85.4789 15.6818 85.4485 16.2398 85.418 16.8892C85.3977 17.5284 85.3876 18.2792 85.3876 19.1416V23.0377C85.9152 23.058 86.5138 23.0732 87.1835 23.0834C87.8531 23.0834 88.5532 23.0834 89.2837 23.0834C90.0142 23.0732 90.7549 23.0631 91.5057 23.0529C92.2667 23.0428 92.9972 23.0326 93.6973 23.0225C94.4075 23.0022 95.067 22.9819 95.6758 22.9616C96.2947 22.9413 96.8274 22.921 97.2738 22.9007V19.1416C97.2738 18.2792 97.2586 17.5284 97.2281 16.8892C97.2078 16.2398 97.1774 15.6818 97.1368 15.2151C97.1064 14.7382 97.0607 14.3425 96.9998 14.028C96.9491 13.7134 96.8933 13.4496 96.8324 13.2366V13.1757H100.485V13.2366C100.424 13.4496 100.363 13.7134 100.302 14.028C100.252 14.3425 100.206 14.7382 100.165 15.2151C100.125 15.6818 100.094 16.2398 100.074 16.8892C100.054 17.5284 100.044 18.2792 100.044 19.1416V29.0493C100.044 29.9117 100.054 30.6676 100.074 31.317C100.094 31.9562 100.125 32.5091 100.165 32.9758C100.206 33.4426 100.252 33.8332 100.302 34.1477C100.363 34.4623 100.424 34.7261 100.485 34.9391V35H96.8324V34.9391C96.8933 34.7261 96.9491 34.4623 96.9998 34.1477C97.0607 33.8332 97.1064 33.4426 97.1368 32.9758C97.1774 32.5091 97.2078 31.9562 97.2281 31.317C97.2586 30.6676 97.2738 29.9117 97.2738 29.0493V24.5596ZM111.839 35.2739C110.712 35.2739 109.657 35.0964 108.673 34.7413C107.689 34.3862 106.831 33.8687 106.101 33.1889C105.37 32.499 104.792 31.6518 104.366 30.6473C103.95 29.6327 103.742 28.476 103.742 27.1773C103.742 26.0308 103.935 24.9706 104.32 23.9965C104.706 23.0124 105.238 22.1601 105.918 21.4397C106.598 20.7193 107.389 20.1562 108.292 19.7504C109.206 19.3445 110.19 19.1416 111.245 19.1416C112.29 19.1416 113.259 19.3242 114.152 19.6895C115.045 20.0446 115.816 20.5671 116.465 21.2571C117.125 21.9369 117.642 22.7841 118.018 23.7987C118.403 24.8031 118.611 25.9497 118.642 27.2382C117.495 27.2179 116.348 27.2027 115.202 27.1926C114.055 27.1824 112.863 27.1773 111.625 27.1773C110.743 27.1773 109.88 27.1824 109.038 27.1926C108.206 27.2027 107.455 27.2179 106.786 27.2382C106.847 28.2934 107.009 29.2471 107.273 30.0994C107.547 30.9517 107.917 31.6822 108.384 32.291C108.861 32.8896 109.434 33.3513 110.104 33.6759C110.783 34.0006 111.549 34.1629 112.402 34.1629C112.99 34.1629 113.543 34.097 114.061 33.9651C114.588 33.823 115.065 33.6303 115.491 33.3868C115.917 33.1433 116.298 32.8592 116.633 32.5345C116.967 32.1997 117.252 31.8395 117.485 31.4539L117.667 31.5452L116.541 34.2543C115.993 34.5384 115.339 34.7819 114.578 34.9848C113.817 35.1776 112.904 35.2739 111.839 35.2739ZM109.814 25.9902C110.829 25.9902 111.844 25.9902 112.858 25.9902C113.883 25.9801 114.811 25.9598 115.643 25.9294C115.552 25.0467 115.38 24.2553 115.126 23.5552C114.872 22.8551 114.548 22.2615 114.152 21.7745C113.756 21.2875 113.289 20.9121 112.752 20.6483C112.214 20.3845 111.62 20.2526 110.971 20.2526C110.383 20.2526 109.84 20.3845 109.343 20.6483C108.856 20.902 108.429 21.2723 108.064 21.7593C107.699 22.2463 107.405 22.8449 107.181 23.5552C106.958 24.2553 106.826 25.0568 106.786 25.9598C107.242 25.9801 107.724 25.9902 108.232 25.9902C108.739 25.9902 109.267 25.9902 109.814 25.9902ZM132.065 24.7423C132.065 24.0726 131.994 23.4943 131.852 23.0073C131.72 22.5203 131.522 22.1195 131.258 21.805C131.005 21.4803 130.695 21.2419 130.33 21.0897C129.965 20.9273 129.559 20.8462 129.112 20.8462C128.808 20.8462 128.468 20.907 128.093 21.0288C127.717 21.1505 127.327 21.3179 126.921 21.531C126.525 21.7339 126.124 21.9724 125.718 22.2463C125.323 22.5203 124.947 22.8145 124.592 23.129C124.572 23.4537 124.562 23.8037 124.562 24.1792C124.562 24.5444 124.562 24.9401 124.562 25.3663V29.0493C124.562 29.9117 124.572 30.6676 124.592 31.317C124.613 31.9562 124.643 32.5091 124.684 32.9758C124.724 33.4426 124.77 33.8332 124.821 34.1477C124.871 34.4623 124.927 34.7261 124.988 34.9391V35H121.472V34.9391C121.533 34.7261 121.589 34.4623 121.64 34.1477C121.701 33.8332 121.746 33.4426 121.777 32.9758C121.817 32.5091 121.848 31.9562 121.868 31.317C121.898 30.6676 121.914 29.9117 121.914 29.0493V25.3663C121.914 24.5038 121.898 23.753 121.868 23.1138C121.848 22.4645 121.817 21.9064 121.777 21.4397C121.746 20.973 121.701 20.5824 121.64 20.2678C121.589 19.9533 121.533 19.6895 121.472 19.4764V19.4156H124.988V19.4764C124.907 19.7098 124.841 20.0091 124.79 20.3744C124.749 20.7295 124.704 21.181 124.653 21.7289C125.059 21.4042 125.495 21.0846 125.962 20.7701C126.429 20.4555 126.906 20.1765 127.393 19.933C127.89 19.6895 128.387 19.4916 128.884 19.3395C129.381 19.1873 129.873 19.1112 130.36 19.1112C130.939 19.1112 131.451 19.1873 131.897 19.3395C132.344 19.4916 132.734 19.6996 133.069 19.9634C133.404 20.2272 133.683 20.5367 133.906 20.8918C134.14 21.2469 134.317 21.6274 134.439 22.0333C134.855 21.6781 135.307 21.3281 135.794 20.9831C136.291 20.628 136.798 20.3135 137.315 20.0395C137.843 19.7656 138.376 19.5424 138.913 19.3699C139.461 19.1974 139.994 19.1112 140.511 19.1112C141.303 19.1112 141.973 19.2481 142.52 19.5221C143.078 19.796 143.53 20.1562 143.875 20.6026C144.23 21.0491 144.484 21.5615 144.636 22.1398C144.798 22.708 144.879 23.2863 144.879 23.8748V29.0493C144.879 29.9117 144.89 30.6676 144.91 31.317C144.93 31.9562 144.961 32.5091 145.001 32.9758C145.042 33.4426 145.087 33.8332 145.138 34.1477C145.199 34.4623 145.26 34.7261 145.321 34.9391V35H141.79V34.9391C141.851 34.7261 141.907 34.4623 141.957 34.1477C142.018 33.8332 142.069 33.4426 142.11 32.9758C142.15 32.5091 142.181 31.9562 142.201 31.317C142.221 30.6676 142.231 29.9117 142.231 29.0493V24.7423C142.231 23.403 141.962 22.4188 141.425 21.7897C140.887 21.1607 140.167 20.8462 139.264 20.8462C138.949 20.8462 138.599 20.907 138.213 21.0288C137.838 21.1505 137.447 21.3179 137.042 21.531C136.636 21.7441 136.23 21.9927 135.824 22.2768C135.418 22.5507 135.038 22.8449 134.683 23.1595C134.703 23.2812 134.713 23.403 134.713 23.5247C134.713 23.6465 134.713 23.7632 134.713 23.8748V29.0493C134.713 29.9117 134.723 30.6676 134.743 31.317C134.774 31.9562 134.804 32.5091 134.835 32.9758C134.875 33.4426 134.921 33.8332 134.972 34.1477C135.033 34.4623 135.093 34.7261 135.154 34.9391V35H131.639V34.9391C131.7 34.7261 131.755 34.4623 131.806 34.1477C131.857 33.8332 131.903 33.4426 131.943 32.9758C131.984 32.5091 132.014 31.9562 132.034 31.317C132.055 30.6676 132.065 29.9117 132.065 29.0493V24.7423ZM148.182 27.1773C148.182 26.0308 148.395 24.9706 148.821 23.9965C149.247 23.0124 149.831 22.1601 150.571 21.4397C151.322 20.7193 152.205 20.1562 153.22 19.7504C154.234 19.3445 155.325 19.1416 156.492 19.1416C157.638 19.1416 158.714 19.3344 159.718 19.7199C160.733 20.0953 161.615 20.6331 162.366 21.3332C163.117 22.0333 163.706 22.8855 164.132 23.89C164.568 24.8945 164.786 26.0207 164.786 27.2687C164.786 28.3137 164.603 29.3182 164.238 30.2821C163.873 31.2459 163.335 32.0982 162.625 32.8389C161.915 33.5795 161.042 34.1731 160.007 34.6195C158.983 35.0558 157.8 35.2739 156.461 35.2739C155.325 35.2739 154.254 35.0862 153.25 34.7108C152.245 34.3354 151.368 33.7977 150.617 33.0976C149.866 32.3975 149.273 31.5503 148.836 30.556C148.4 29.5515 148.182 28.4253 148.182 27.1773ZM156.811 34.1629C157.532 34.1629 158.191 34.0209 158.79 33.7368C159.399 33.4527 159.921 33.0418 160.357 32.5041C160.794 31.9663 161.133 31.3119 161.377 30.5408C161.621 29.7697 161.742 28.8971 161.742 27.9231C161.742 26.8273 161.626 25.8127 161.392 24.8792C161.159 23.9356 160.809 23.124 160.342 22.4442C159.886 21.7542 159.307 21.2165 158.607 20.8309C157.907 20.4454 157.09 20.2526 156.157 20.2526C155.436 20.2526 154.777 20.3947 154.178 20.6787C153.58 20.9527 153.057 21.3535 152.611 21.8811C152.174 22.4087 151.835 23.058 151.591 23.8291C151.348 24.5901 151.226 25.4576 151.226 26.4316C151.226 27.5274 151.342 28.5471 151.576 29.4907C151.819 30.4342 152.174 31.2561 152.641 31.9562C153.108 32.6461 153.686 33.1889 154.376 33.5846C155.076 33.9702 155.888 34.1629 156.811 34.1629ZM168.21 25.0619C168.21 24.1994 168.195 23.4486 168.165 22.8094C168.144 22.1601 168.114 21.602 168.073 21.1353C168.043 20.6686 167.997 20.278 167.936 19.9634C167.886 19.6489 167.83 19.3851 167.769 19.172V19.1112H171.285V19.172C171.234 19.3242 171.188 19.4967 171.148 19.6895C171.107 19.8823 171.072 20.1004 171.041 20.3439C171.64 19.999 172.299 19.7098 173.02 19.4764C173.75 19.2329 174.557 19.1112 175.44 19.1112C176.566 19.1112 177.591 19.3039 178.514 19.6895C179.447 20.0649 180.244 20.6077 180.903 21.3179C181.573 22.0282 182.09 22.8855 182.456 23.89C182.821 24.8945 183.003 26.0207 183.003 27.2687C183.003 28.3137 182.821 29.3182 182.456 30.2821C182.1 31.2459 181.573 32.0982 180.873 32.8389C180.183 33.5795 179.331 34.1731 178.316 34.6195C177.301 35.0558 176.135 35.2739 174.816 35.2739C174.024 35.2739 173.304 35.2131 172.654 35.0913C172.005 34.9696 171.406 34.8123 170.859 34.6195V36.8415C170.859 37.7039 170.869 38.4548 170.889 39.094C170.909 39.7433 170.94 40.3014 170.98 40.7681C171.021 41.2348 171.067 41.6254 171.117 41.94C171.168 42.2545 171.224 42.5183 171.285 42.7313V42.7922H167.769V42.7313C167.83 42.5183 167.886 42.2545 167.936 41.94C167.997 41.6254 168.043 41.2348 168.073 40.7681C168.114 40.3014 168.144 39.7433 168.165 39.094C168.195 38.4548 168.21 37.7039 168.21 36.8415V25.0619ZM174.907 20.2526C174.562 20.2526 174.207 20.2983 173.842 20.3896C173.486 20.4707 173.131 20.5925 172.776 20.7548C172.431 20.907 172.096 21.1049 171.772 21.3484C171.457 21.5817 171.173 21.8506 170.919 22.155C170.899 22.5406 170.884 22.9768 170.874 23.4639C170.864 23.9509 170.859 24.4835 170.859 25.0619V33.0367C171.061 33.1889 171.29 33.331 171.543 33.4629C171.797 33.5948 172.081 33.7165 172.396 33.8281C172.72 33.9296 173.081 34.0108 173.476 34.0716C173.882 34.1325 174.329 34.1629 174.816 34.1629C175.607 34.1629 176.322 34.0209 176.961 33.7368C177.601 33.4527 178.138 33.0418 178.575 32.5041C179.021 31.9663 179.361 31.3119 179.594 30.5408C179.838 29.7697 179.96 28.8971 179.96 27.9231C179.96 26.8273 179.868 25.8127 179.686 24.8792C179.503 23.9356 179.209 23.124 178.803 22.4442C178.407 21.7542 177.89 21.2165 177.251 20.8309C176.611 20.4454 175.83 20.2526 174.907 20.2526ZM196.883 24.7423C196.883 23.403 196.615 22.4188 196.077 21.7897C195.539 21.1607 194.819 20.8462 193.916 20.8462C193.581 20.8462 193.205 20.9172 192.789 21.0592C192.384 21.1911 191.963 21.3738 191.526 21.6071C191.1 21.8405 190.674 22.1144 190.248 22.4289C189.822 22.7333 189.426 23.058 189.061 23.403V29.0493C189.061 29.9117 189.071 30.6676 189.091 31.317C189.111 31.9562 189.142 32.5091 189.182 32.9758C189.223 33.4426 189.269 33.8332 189.319 34.1477C189.37 34.4623 189.426 34.7261 189.487 34.9391V35H185.971V34.9391C186.032 34.7261 186.088 34.4623 186.139 34.1477C186.2 33.8332 186.245 33.4426 186.276 32.9758C186.316 32.5091 186.347 31.9562 186.367 31.317C186.397 30.6676 186.413 29.9117 186.413 29.0493V18.198C186.413 17.3356 186.397 16.5848 186.367 15.9456C186.347 15.2962 186.316 14.7382 186.276 14.2715C186.245 13.8047 186.2 13.4141 186.139 13.0996C186.088 12.7851 186.032 12.5213 185.971 12.3082V12.2473H189.487V12.3082C189.426 12.5213 189.37 12.7851 189.319 13.0996C189.269 13.4141 189.223 13.8047 189.182 14.2715C189.142 14.7382 189.111 15.2962 189.091 15.9456C189.071 16.5848 189.061 17.3356 189.061 18.198V22.0941C189.467 21.7289 189.913 21.3687 190.4 21.0136C190.897 20.6585 191.41 20.3388 191.937 20.0548C192.465 19.7707 193.002 19.5424 193.55 19.3699C194.098 19.1974 194.636 19.1112 195.164 19.1112C195.955 19.1112 196.625 19.2481 197.173 19.5221C197.731 19.796 198.182 20.1562 198.527 20.6026C198.882 21.0491 199.136 21.5615 199.288 22.1398C199.45 22.708 199.532 23.2863 199.532 23.8748V29.0493C199.532 29.9117 199.542 30.6676 199.562 31.317C199.582 31.9562 199.613 32.5091 199.653 32.9758C199.694 33.4426 199.74 33.8332 199.79 34.1477C199.841 34.4623 199.897 34.7261 199.958 34.9391V35H196.442V34.9391C196.503 34.7261 196.559 34.4623 196.609 34.1477C196.67 33.8332 196.716 33.4426 196.746 32.9758C196.787 32.5091 196.817 31.9562 196.838 31.317C196.868 30.6676 196.883 29.9117 196.883 29.0493V24.7423ZM204.219 25.3663C204.219 24.5038 204.204 23.753 204.173 23.1138C204.153 22.4645 204.123 21.9064 204.082 21.4397C204.052 20.973 204.006 20.5824 203.945 20.2678C203.894 19.9533 203.839 19.6895 203.778 19.4764V19.4156H207.293V19.4764C207.232 19.6895 207.177 19.9533 207.126 20.2678C207.075 20.5824 207.029 20.973 206.989 21.4397C206.948 21.9064 206.918 22.4645 206.898 23.1138C206.877 23.753 206.867 24.5038 206.867 25.3663V29.0493C206.867 29.9117 206.877 30.6676 206.898 31.317C206.918 31.9562 206.948 32.5091 206.989 32.9758C207.029 33.4426 207.075 33.8332 207.126 34.1477C207.177 34.4623 207.232 34.7261 207.293 34.9391V35H203.778V34.9391C203.839 34.7261 203.894 34.4623 203.945 34.1477C204.006 33.8332 204.052 33.4426 204.082 32.9758C204.123 32.5091 204.153 31.9562 204.173 31.317C204.204 30.6676 204.219 29.9117 204.219 29.0493V25.3663ZM203.899 14.8041C203.899 14.5809 203.94 14.3729 204.021 14.1801C204.112 13.9772 204.229 13.8047 204.371 13.6627C204.513 13.5105 204.681 13.3938 204.873 13.3127C205.076 13.2213 205.295 13.1757 205.528 13.1757C205.761 13.1757 205.974 13.2213 206.167 13.3127C206.37 13.3938 206.542 13.5105 206.685 13.6627C206.837 13.8047 206.953 13.9772 207.035 14.1801C207.126 14.3729 207.172 14.5809 207.172 14.8041C207.172 15.2709 207.014 15.6615 206.7 15.976C206.385 16.2905 205.995 16.4478 205.528 16.4478C205.295 16.4478 205.076 16.4072 204.873 16.3261C204.681 16.2347 204.513 16.1181 204.371 15.976C204.229 15.8238 204.112 15.6513 204.021 15.4586C203.94 15.2556 203.899 15.0375 203.899 14.8041ZM211.737 18.198C211.737 17.3356 211.722 16.5848 211.692 15.9456C211.671 15.2962 211.641 14.7382 211.6 14.2715C211.57 13.8047 211.524 13.4141 211.463 13.0996C211.413 12.7851 211.357 12.5213 211.296 12.3082V12.2473H214.812V12.3082C214.751 12.5213 214.695 12.7851 214.644 13.0996C214.593 13.4141 214.548 13.8047 214.507 14.2715C214.467 14.7382 214.436 15.2962 214.416 15.9456C214.396 16.5848 214.385 17.3356 214.385 18.198V29.0493C214.385 29.9117 214.396 30.6676 214.416 31.317C214.436 31.9562 214.467 32.5091 214.507 32.9758C214.548 33.4426 214.593 33.8332 214.644 34.1477C214.695 34.4623 214.751 34.7261 214.812 34.9391V35H211.296V34.9391C211.357 34.7261 211.413 34.4623 211.463 34.1477C211.524 33.8332 211.57 33.4426 211.6 32.9758C211.641 32.5091 211.671 31.9562 211.692 31.317C211.722 30.6676 211.737 29.9117 211.737 29.0493V18.198ZM219.256 25.3663C219.256 24.5038 219.24 23.753 219.21 23.1138C219.19 22.4645 219.159 21.9064 219.119 21.4397C219.088 20.973 219.043 20.5824 218.982 20.2678C218.931 19.9533 218.875 19.6895 218.814 19.4764V19.4156H222.33V19.4764C222.269 19.6895 222.213 19.9533 222.162 20.2678C222.112 20.5824 222.066 20.973 222.025 21.4397C221.985 21.9064 221.954 22.4645 221.934 23.1138C221.914 23.753 221.904 24.5038 221.904 25.3663V29.0493C221.904 29.9117 221.914 30.6676 221.934 31.317C221.954 31.9562 221.985 32.5091 222.025 32.9758C222.066 33.4426 222.112 33.8332 222.162 34.1477C222.213 34.4623 222.269 34.7261 222.33 34.9391V35H218.814V34.9391C218.875 34.7261 218.931 34.4623 218.982 34.1477C219.043 33.8332 219.088 33.4426 219.119 32.9758C219.159 32.5091 219.19 31.9562 219.21 31.317C219.24 30.6676 219.256 29.9117 219.256 29.0493V25.3663ZM218.936 14.8041C218.936 14.5809 218.977 14.3729 219.058 14.1801C219.149 13.9772 219.266 13.8047 219.408 13.6627C219.55 13.5105 219.717 13.3938 219.91 13.3127C220.113 13.2213 220.331 13.1757 220.564 13.1757C220.798 13.1757 221.011 13.2213 221.204 13.3127C221.407 13.3938 221.579 13.5105 221.721 13.6627C221.873 13.8047 221.99 13.9772 222.071 14.1801C222.162 14.3729 222.208 14.5809 222.208 14.8041C222.208 15.2709 222.051 15.6615 221.736 15.976C221.422 16.2905 221.031 16.4478 220.564 16.4478C220.331 16.4478 220.113 16.4072 219.91 16.3261C219.717 16.2347 219.55 16.1181 219.408 15.976C219.266 15.8238 219.149 15.6513 219.058 15.4586C218.977 15.2556 218.936 15.0375 218.936 14.8041ZM225.465 30.5103C225.465 29.7088 225.627 29.0138 225.952 28.4253C226.287 27.8368 226.728 27.3346 227.276 26.9186C227.824 26.5026 228.448 26.1678 229.148 25.9141C229.848 25.6503 230.574 25.4474 231.324 25.3054C232.075 25.1532 232.816 25.0517 233.546 25.001C234.277 24.9401 234.947 24.9046 235.555 24.8945V24.1183C235.555 23.4486 235.469 22.8703 235.297 22.3833C235.124 21.8963 234.881 21.4955 234.566 21.181C234.252 20.8563 233.871 20.6179 233.425 20.4657C232.988 20.3033 232.506 20.2222 231.979 20.2222C231.614 20.2222 231.253 20.2526 230.898 20.3135C230.543 20.3744 230.173 20.4758 229.787 20.6179C229.412 20.7599 229.011 20.9527 228.585 21.1962C228.169 21.4397 227.717 21.7492 227.23 22.1246L227.078 22.0333L228.113 19.8873C228.448 19.7352 228.778 19.6134 229.102 19.5221C229.427 19.4206 229.757 19.3395 230.092 19.2786C230.426 19.2177 230.766 19.1771 231.111 19.1568C231.466 19.1264 231.837 19.1112 232.222 19.1112C233.288 19.1112 234.196 19.2431 234.947 19.5069C235.708 19.7605 236.326 20.1156 236.803 20.5722C237.29 21.0186 237.645 21.5462 237.869 22.155C238.092 22.7536 238.203 23.3979 238.203 24.0878V29.0493C238.203 29.9117 238.214 30.6676 238.234 31.317C238.264 31.9562 238.295 32.5091 238.325 32.9758C238.366 33.4426 238.411 33.8332 238.462 34.1477C238.523 34.4623 238.584 34.7261 238.645 34.9391V35H235.281V34.9391C235.332 34.7768 235.368 34.5942 235.388 34.3912C235.418 34.1883 235.444 33.9448 235.464 33.6607C235.251 33.8433 234.997 34.031 234.703 34.2238C234.419 34.4166 234.089 34.5942 233.714 34.7565C233.349 34.9087 232.938 35.0304 232.481 35.1218C232.035 35.2232 231.543 35.2739 231.005 35.2739C229.239 35.2739 227.875 34.863 226.911 34.0412C225.947 33.2092 225.465 32.0323 225.465 30.5103ZM235.555 26.0816C234.632 26.0917 233.744 26.1475 232.892 26.249C232.04 26.3403 231.284 26.5381 230.624 26.8425C229.975 27.1469 229.452 27.5832 229.057 28.1514C228.671 28.7094 228.478 29.4551 228.478 30.3886C228.478 31.5858 228.778 32.499 229.376 33.128C229.975 33.7571 230.802 34.0716 231.857 34.0716C232.344 34.0716 232.785 34.0057 233.181 33.8738C233.587 33.7317 233.942 33.5593 234.246 33.3563C234.561 33.1433 234.825 32.915 235.038 32.6715C235.251 32.4178 235.413 32.1743 235.525 31.9409C235.545 31.5554 235.555 31.1293 235.555 30.6625C235.555 30.1857 235.555 29.6479 235.555 29.0493V26.0816ZM261.093 16.6457H260.758C260.677 16.4123 260.545 16.1485 260.363 15.8543C260.19 15.56 259.957 15.2861 259.663 15.0324C259.378 14.7686 259.028 14.5505 258.612 14.378C258.207 14.2055 257.725 14.1193 257.167 14.1193C256.669 14.1193 256.228 14.1954 255.843 14.3476C255.457 14.4998 255.132 14.7128 254.868 14.9868C254.615 15.2607 254.422 15.5854 254.29 15.9608C254.158 16.3362 254.092 16.7522 254.092 17.2088C254.092 17.9393 254.295 18.6394 254.701 19.309C255.117 19.9685 255.635 20.6229 256.253 21.2723C256.872 21.9216 257.542 22.571 258.262 23.2203C258.983 23.8697 259.652 24.5444 260.271 25.2445C260.89 25.9446 261.403 26.6802 261.808 27.4513C262.224 28.2122 262.432 29.0341 262.432 29.9168C262.432 30.5763 262.316 31.2409 262.082 31.9105C261.859 32.57 261.509 33.1636 261.032 33.6911C260.555 34.2187 259.942 34.65 259.191 34.9848C258.44 35.3095 257.547 35.4718 256.512 35.4718C255.934 35.4718 255.381 35.416 254.853 35.3044C254.336 35.2029 253.854 35.0761 253.407 34.9239C252.971 34.7616 252.575 34.5891 252.22 34.4065C251.875 34.2238 251.591 34.0564 251.368 33.9042L251.718 30.5408H252.099C252.21 31.0176 252.393 31.4742 252.646 31.9105C252.9 32.3366 253.21 32.7171 253.575 33.0519C253.95 33.3766 254.376 33.6404 254.853 33.8433C255.33 34.0361 255.853 34.1325 256.421 34.1325C256.938 34.1325 257.4 34.0564 257.806 33.9042C258.222 33.7419 258.577 33.5237 258.871 33.2498C259.165 32.9657 259.389 32.6309 259.541 32.2453C259.703 31.8598 259.784 31.4387 259.784 30.9821C259.784 30.3429 259.668 29.7545 259.434 29.2167C259.201 28.6688 258.891 28.1514 258.506 27.6644C258.13 27.1773 257.699 26.7055 257.212 26.249C256.735 25.7924 256.243 25.3358 255.736 24.8792C255.229 24.4125 254.732 23.9356 254.245 23.4486C253.768 22.9616 253.336 22.4442 252.951 21.8963C252.575 21.3382 252.271 20.7447 252.038 20.1156C251.804 19.4764 251.688 18.7763 251.688 18.0154C251.688 17.2138 251.84 16.4935 252.144 15.8543C252.459 15.2049 252.87 14.6519 253.377 14.1954C253.894 13.7388 254.478 13.3888 255.127 13.1452C255.777 12.9017 256.446 12.78 257.136 12.78C257.643 12.78 258.11 12.8206 258.536 12.9017C258.962 12.9829 259.343 13.0793 259.678 13.1909C260.023 13.3025 260.322 13.4141 260.576 13.5257C260.829 13.6373 261.037 13.7286 261.2 13.7997L261.093 16.6457ZM265.065 27.1773C265.065 26.0308 265.278 24.9706 265.705 23.9965C266.131 23.0124 266.714 22.1601 267.455 21.4397C268.206 20.7193 269.088 20.1562 270.103 19.7504C271.118 19.3445 272.208 19.1416 273.375 19.1416C274.522 19.1416 275.597 19.3344 276.601 19.7199C277.616 20.0953 278.499 20.6331 279.25 21.3332C280 22.0333 280.589 22.8855 281.015 23.89C281.451 24.8945 281.669 26.0207 281.669 27.2687C281.669 28.3137 281.487 29.3182 281.122 30.2821C280.756 31.2459 280.219 32.0982 279.508 32.8389C278.798 33.5795 277.926 34.1731 276.891 34.6195C275.866 35.0558 274.684 35.2739 273.345 35.2739C272.208 35.2739 271.138 35.0862 270.133 34.7108C269.129 34.3354 268.251 33.7977 267.5 33.0976C266.75 32.3975 266.156 31.5503 265.72 30.556C265.283 29.5515 265.065 28.4253 265.065 27.1773ZM273.695 34.1629C274.415 34.1629 275.074 34.0209 275.673 33.7368C276.282 33.4527 276.804 33.0418 277.241 32.5041C277.677 31.9663 278.017 31.3119 278.26 30.5408C278.504 29.7697 278.626 28.8971 278.626 27.9231C278.626 26.8273 278.509 25.8127 278.276 24.8792C278.042 23.9356 277.692 23.124 277.225 22.4442C276.769 21.7542 276.191 21.2165 275.49 20.8309C274.79 20.4454 273.974 20.2526 273.04 20.2526C272.32 20.2526 271.66 20.3947 271.062 20.6787C270.463 20.9527 269.941 21.3535 269.494 21.8811C269.058 22.4087 268.718 23.058 268.474 23.8291C268.231 24.5901 268.109 25.4576 268.109 26.4316C268.109 27.5274 268.226 28.5471 268.459 29.4907C268.703 30.4342 269.058 31.2561 269.525 31.9562C269.991 32.6461 270.57 33.1889 271.26 33.5846C271.96 33.9702 272.771 34.1629 273.695 34.1629ZM297.741 31.7583L296.615 34.4673C296.341 34.5891 296.026 34.7007 295.671 34.8022C295.316 34.9036 294.946 34.9899 294.56 35.0609C294.185 35.1319 293.804 35.1826 293.419 35.2131C293.033 35.2537 292.668 35.2739 292.323 35.2739C291.095 35.2739 289.959 35.0964 288.914 34.7413C287.879 34.376 286.981 33.8484 286.22 33.1585C285.469 32.4685 284.881 31.6213 284.455 30.6169C284.028 29.6124 283.815 28.4659 283.815 27.1773C283.815 26.0308 284.034 24.9706 284.47 23.9965C284.916 23.0124 285.53 22.1601 286.311 21.4397C287.103 20.7193 288.031 20.1562 289.096 19.7504C290.162 19.3445 291.318 19.1416 292.566 19.1416C293.135 19.1416 293.743 19.1923 294.393 19.2938C295.042 19.3851 295.62 19.5069 296.128 19.6591L297.208 22.2463L297.026 22.3529C296.772 22.0383 296.468 21.7542 296.112 21.5006C295.768 21.2368 295.382 21.0136 294.956 20.8309C294.54 20.6483 294.098 20.5063 293.632 20.4048C293.165 20.3033 292.688 20.2526 292.201 20.2526C291.41 20.2526 290.689 20.3947 290.04 20.6787C289.391 20.9527 288.833 21.3535 288.366 21.8811C287.899 22.4087 287.534 23.058 287.27 23.8291C287.016 24.5901 286.89 25.4576 286.89 26.4316C286.89 27.5274 287.011 28.5471 287.255 29.4907C287.509 30.4342 287.879 31.2561 288.366 31.9562C288.863 32.6461 289.482 33.1889 290.223 33.5846C290.973 33.9702 291.851 34.1629 292.856 34.1629C293.322 34.1629 293.784 34.1071 294.241 33.9955C294.707 33.8738 295.144 33.7064 295.549 33.4933C295.965 33.2701 296.346 33.0063 296.691 32.7019C297.036 32.3975 297.325 32.0526 297.558 31.667L297.741 31.7583ZM300.922 25.3663C300.922 24.5038 300.907 23.753 300.876 23.1138C300.856 22.4645 300.825 21.9064 300.785 21.4397C300.754 20.973 300.709 20.5824 300.648 20.2678C300.597 19.9533 300.541 19.6895 300.48 19.4764V19.4156H303.996V19.4764C303.935 19.6895 303.879 19.9533 303.829 20.2678C303.778 20.5824 303.732 20.973 303.692 21.4397C303.651 21.9064 303.621 22.4645 303.6 23.1138C303.58 23.753 303.57 24.5038 303.57 25.3663V29.0493C303.57 29.9117 303.58 30.6676 303.6 31.317C303.621 31.9562 303.651 32.5091 303.692 32.9758C303.732 33.4426 303.778 33.8332 303.829 34.1477C303.879 34.4623 303.935 34.7261 303.996 34.9391V35H300.48V34.9391C300.541 34.7261 300.597 34.4623 300.648 34.1477C300.709 33.8332 300.754 33.4426 300.785 32.9758C300.825 32.5091 300.856 31.9562 300.876 31.317C300.907 30.6676 300.922 29.9117 300.922 29.0493V25.3663ZM300.602 14.8041C300.602 14.5809 300.643 14.3729 300.724 14.1801C300.815 13.9772 300.932 13.8047 301.074 13.6627C301.216 13.5105 301.383 13.3938 301.576 13.3127C301.779 13.2213 301.997 13.1757 302.231 13.1757C302.464 13.1757 302.677 13.2213 302.87 13.3127C303.073 13.3938 303.245 13.5105 303.387 13.6627C303.539 13.8047 303.656 13.9772 303.737 14.1801C303.829 14.3729 303.874 14.5809 303.874 14.8041C303.874 15.2709 303.717 15.6615 303.402 15.976C303.088 16.2905 302.697 16.4478 302.231 16.4478C301.997 16.4478 301.779 16.4072 301.576 16.3261C301.383 16.2347 301.216 16.1181 301.074 15.976C300.932 15.8238 300.815 15.6513 300.724 15.4586C300.643 15.2556 300.602 15.0375 300.602 14.8041ZM315.167 35.2739C314.041 35.2739 312.985 35.0964 312.001 34.7413C311.017 34.3862 310.16 33.8687 309.429 33.1889C308.699 32.499 308.12 31.6518 307.694 30.6473C307.278 29.6327 307.07 28.476 307.07 27.1773C307.07 26.0308 307.263 24.9706 307.649 23.9965C308.034 23.0124 308.567 22.1601 309.247 21.4397C309.926 20.7193 310.718 20.1562 311.621 19.7504C312.534 19.3445 313.518 19.1416 314.573 19.1416C315.618 19.1416 316.587 19.3242 317.48 19.6895C318.373 20.0446 319.144 20.5671 319.794 21.2571C320.453 21.9369 320.97 22.7841 321.346 23.7987C321.731 24.8031 321.939 25.9497 321.97 27.2382C320.823 27.2179 319.677 27.2027 318.53 27.1926C317.384 27.1824 316.192 27.1773 314.954 27.1773C314.071 27.1773 313.209 27.1824 312.367 27.1926C311.535 27.2027 310.784 27.2179 310.114 27.2382C310.175 28.2934 310.337 29.2471 310.601 30.0994C310.875 30.9517 311.245 31.6822 311.712 32.291C312.189 32.8896 312.762 33.3513 313.432 33.6759C314.112 34.0006 314.878 34.1629 315.73 34.1629C316.318 34.1629 316.871 34.097 317.389 33.9651C317.917 33.823 318.393 33.6303 318.82 33.3868C319.246 33.1433 319.626 32.8592 319.961 32.5345C320.296 32.1997 320.58 31.8395 320.813 31.4539L320.996 31.5452L319.87 34.2543C319.322 34.5384 318.667 34.7819 317.906 34.9848C317.145 35.1776 316.232 35.2739 315.167 35.2739ZM313.143 25.9902C314.157 25.9902 315.172 25.9902 316.187 25.9902C317.211 25.9801 318.14 25.9598 318.972 25.9294C318.88 25.0467 318.708 24.2553 318.454 23.5552C318.201 22.8551 317.876 22.2615 317.48 21.7745C317.085 21.2875 316.618 20.9121 316.08 20.6483C315.542 20.3845 314.949 20.2526 314.299 20.2526C313.711 20.2526 313.168 20.3845 312.671 20.6483C312.184 20.902 311.758 21.2723 311.393 21.7593C311.027 22.2463 310.733 22.8449 310.51 23.5552C310.287 24.2553 310.155 25.0568 310.114 25.9598C310.571 25.9801 311.053 25.9902 311.56 25.9902C312.067 25.9902 312.595 25.9902 313.143 25.9902ZM330.751 34.1021C331.056 34.1021 331.355 34.0463 331.649 33.9347C331.954 33.823 332.243 33.6709 332.517 33.4781C332.801 33.2853 333.07 33.0672 333.323 32.8237C333.587 32.57 333.831 32.3062 334.054 32.0323L334.206 32.1084L333.217 34.5586C333.095 34.6195 332.943 34.6956 332.76 34.7869C332.588 34.8681 332.375 34.9442 332.121 35.0152C331.878 35.0964 331.588 35.1623 331.254 35.2131C330.919 35.2739 330.523 35.3044 330.066 35.3044C328.707 35.3044 327.647 34.9391 326.886 34.2086C326.135 33.4679 325.759 32.3163 325.759 30.7538V20.6026L323.203 20.694V19.3547C323.517 19.375 323.893 19.3902 324.329 19.4003C324.765 19.4105 325.242 19.4156 325.759 19.4156C325.749 18.6952 325.729 18.061 325.699 17.5132C325.678 16.9551 325.648 16.4732 325.607 16.0673C325.577 15.6513 325.536 15.3013 325.486 15.0172C325.435 14.7331 325.384 14.4947 325.333 14.3019V14.241H328.849V14.3019C328.788 14.4947 328.732 14.7331 328.682 15.0172C328.631 15.3013 328.585 15.6463 328.545 16.0521C328.514 16.458 328.484 16.9399 328.453 17.4979C328.433 18.0458 328.418 18.685 328.408 19.4156C329.047 19.4054 329.671 19.3953 330.28 19.3851C330.898 19.3648 331.457 19.3445 331.954 19.3242C332.461 19.2938 332.887 19.2684 333.232 19.2481C333.587 19.2177 333.821 19.1923 333.932 19.172L333.658 20.7244C333.141 20.7143 332.598 20.699 332.03 20.6787C331.543 20.6585 330.985 20.6432 330.356 20.6331C329.727 20.6229 329.077 20.6128 328.408 20.6026V31.0734C328.408 31.7025 328.474 32.2149 328.605 32.6106C328.747 32.9961 328.925 33.3005 329.138 33.5237C329.361 33.747 329.61 33.8991 329.884 33.9803C330.168 34.0615 330.457 34.1021 330.751 34.1021ZM342.09 34.8174L336.733 23.0986C336.54 22.6522 336.332 22.226 336.109 21.8202C335.885 21.4042 335.672 21.0339 335.469 20.7092C335.277 20.3845 335.104 20.1156 334.952 19.9026C334.8 19.6793 334.698 19.5373 334.647 19.4764V19.4156H338.635V19.4764C338.615 19.5272 338.599 19.6033 338.589 19.7047C338.579 19.8062 338.574 19.8975 338.574 19.9787C338.574 20.2932 338.62 20.6432 338.711 21.0288C338.812 21.4042 338.995 21.876 339.259 22.4442L343.459 31.5757L347.295 22.5659C347.457 22.1905 347.619 21.7796 347.782 21.3332C347.954 20.8867 348.04 20.4352 348.04 19.9787C348.04 19.8468 348.03 19.7402 348.01 19.6591C347.99 19.5677 347.969 19.5069 347.949 19.4764V19.4156H350.689V19.4764C350.506 19.6692 350.273 20.0142 349.988 20.5113C349.714 20.9983 349.42 21.6122 349.106 22.3529L341.846 39.6419C341.684 40.0173 341.516 40.4282 341.344 40.8746C341.182 41.321 341.1 41.7725 341.1 42.2291C341.1 42.361 341.111 42.4675 341.131 42.5487C341.151 42.64 341.171 42.7009 341.192 42.7313V42.7922H338.346V42.7313C338.539 42.5386 338.772 42.1987 339.046 41.7117C339.33 41.2348 339.629 40.6311 339.944 39.9006L342.09 34.8174Z" fill="#E61000"/>
</g>
<g filter="url(#filter5_d_117_16)">
<path d="M83.4702 41.8702L92.6541 51.6426V45.3654C92.6541 44.8602 92.6482 44.4203 92.6363 44.0458C92.6244 43.6654 92.6066 43.3384 92.5828 43.065C92.559 42.7856 92.5293 42.5538 92.4936 42.3695C92.4639 42.1852 92.4312 42.0307 92.3955 41.9059V41.8702H93.9827V41.9059C93.947 42.0307 93.9143 42.1852 93.8846 42.3695C93.8549 42.5538 93.8281 42.7856 93.8043 43.065C93.7805 43.3384 93.7627 43.6654 93.7508 44.0458C93.7389 44.4203 93.733 44.8602 93.733 45.3654V54.8347H93.4209L84.237 45.0712V51.17C84.237 51.6753 84.2429 52.1182 84.2548 52.4986C84.2667 52.8731 84.2845 53.197 84.3083 53.4705C84.3321 53.7439 84.3588 53.9728 84.3886 54.1571C84.4183 54.3413 84.451 54.4959 84.4866 54.6207V54.6564H82.8995V54.6207C82.9352 54.4959 82.9679 54.3413 82.9976 54.1571C83.0333 53.9728 83.063 53.7439 83.0868 53.4705C83.1105 53.197 83.1284 52.8731 83.1403 52.4986C83.1522 52.1182 83.1581 51.6753 83.1581 51.17V45.3654C83.1581 44.8602 83.1522 44.4203 83.1403 44.0458C83.1284 43.6654 83.1105 43.3384 83.0868 43.065C83.063 42.7856 83.0333 42.5538 82.9976 42.3695C82.9679 42.1852 82.9352 42.0307 82.8995 41.9059V41.8702H83.4702ZM95.8551 52.026C95.8551 51.5564 95.9502 51.1492 96.1404 50.8045C96.3366 50.4597 96.5952 50.1655 96.9162 49.9217C97.2372 49.678 97.6027 49.4819 98.0129 49.3333C98.423 49.1787 98.8481 49.0598 99.2879 48.9766C99.7278 48.8874 100.162 48.828 100.59 48.7983C101.018 48.7626 101.41 48.7418 101.767 48.7359V48.2811C101.767 47.8888 101.716 47.55 101.615 47.2646C101.514 46.9793 101.371 46.7445 101.187 46.5602C101.003 46.37 100.78 46.2303 100.518 46.1412C100.263 46.0461 99.9804 45.9985 99.6713 45.9985C99.4574 45.9985 99.2463 46.0163 99.0383 46.052C98.8302 46.0877 98.6133 46.1471 98.3874 46.2303C98.1674 46.3136 97.9326 46.4265 97.683 46.5692C97.4393 46.7118 97.1747 46.8931 96.8894 47.1131L96.8003 47.0596L97.4066 45.8023C97.6027 45.7132 97.7959 45.6419 97.9861 45.5884C98.1764 45.5289 98.3695 45.4814 98.5657 45.4457C98.7619 45.41 98.961 45.3862 99.1631 45.3744C99.3712 45.3565 99.5881 45.3476 99.814 45.3476C100.438 45.3476 100.97 45.4249 101.41 45.5794C101.856 45.728 102.218 45.9361 102.498 46.2036C102.783 46.4651 102.991 46.7742 103.122 47.1309C103.253 47.4816 103.318 47.8591 103.318 48.2633V51.17C103.318 51.6753 103.324 52.1182 103.336 52.4986C103.354 52.8731 103.372 53.197 103.39 53.4705C103.413 53.7439 103.44 53.9728 103.47 54.1571C103.505 54.3413 103.541 54.4959 103.577 54.6207V54.6564H101.606V54.6207C101.636 54.5256 101.657 54.4186 101.669 54.2997C101.686 54.1808 101.701 54.0382 101.713 53.8717C101.588 53.9787 101.44 54.0887 101.267 54.2016C101.101 54.3146 100.908 54.4186 100.688 54.5137C100.474 54.6029 100.233 54.6742 99.9656 54.7277C99.704 54.7871 99.4157 54.8169 99.1007 54.8169C98.0664 54.8169 97.2669 54.5761 96.7022 54.0946C96.1375 53.6072 95.8551 52.9177 95.8551 52.026ZM101.767 49.4313C101.226 49.4373 100.706 49.47 100.206 49.5294C99.707 49.5829 99.2642 49.6988 98.8778 49.8772C98.4973 50.0555 98.1912 50.3111 97.9594 50.644C97.7335 50.9709 97.6206 51.4078 97.6206 51.9547C97.6206 52.6561 97.7959 53.1911 98.1466 53.5596C98.4973 53.9282 98.9818 54.1125 99.6 54.1125C99.8853 54.1125 100.144 54.0738 100.376 53.9966C100.614 53.9133 100.822 53.8123 101 53.6934C101.184 53.5686 101.339 53.4348 101.464 53.2922C101.588 53.1435 101.683 53.0009 101.749 52.8642C101.761 52.6383 101.767 52.3886 101.767 52.1152C101.767 51.8358 101.767 51.5208 101.767 51.17V49.4313ZM109.471 58.7312C109.952 58.7312 110.359 58.6777 110.692 58.5707C111.025 58.4696 111.298 58.327 111.512 58.1427C111.732 57.9584 111.899 57.7355 112.012 57.474C112.131 57.2184 112.217 56.936 112.27 56.6269C112.33 56.3178 112.362 55.9879 112.368 55.6372C112.38 55.2865 112.386 54.9239 112.386 54.5494V54.2551C112.095 54.4097 111.744 54.5434 111.334 54.6564C110.924 54.7634 110.46 54.8169 109.943 54.8169C109.236 54.8169 108.594 54.7069 108.017 54.487C107.441 54.267 106.947 53.952 106.537 53.5418C106.133 53.1317 105.821 52.6353 105.601 52.0528C105.381 51.4643 105.271 50.8045 105.271 50.0733C105.271 49.4016 105.378 48.7775 105.592 48.2009C105.812 47.6243 106.118 47.125 106.51 46.7029C106.909 46.2809 107.381 45.951 107.928 45.7132C108.481 45.4695 109.09 45.3476 109.756 45.3476C110.041 45.3476 110.303 45.3714 110.54 45.4189C110.778 45.4665 110.998 45.5319 111.2 45.6151C111.408 45.6924 111.602 45.7845 111.78 45.8915C111.964 45.9926 112.142 46.1025 112.315 46.2214L112.226 45.5616V45.5259H114.196V45.5616C114.161 45.6864 114.125 45.841 114.089 46.0253C114.06 46.2095 114.033 46.4384 114.009 46.7118C113.991 46.9853 113.973 47.3122 113.955 47.6926C113.944 48.0671 113.938 48.507 113.938 49.0123V55.0754C113.938 55.6223 113.863 56.1543 113.715 56.6715C113.572 57.1946 113.325 57.6582 112.975 58.0625C112.63 58.4667 112.172 58.7906 111.602 59.0343C111.031 59.2781 110.321 59.3999 109.471 59.3999C109.173 59.3999 108.873 59.3702 108.57 59.3108C108.267 59.2573 107.978 59.1889 107.705 59.1057C107.432 59.0284 107.185 58.9422 106.965 58.8471C106.745 58.752 106.57 58.6688 106.439 58.5974L106.163 56.8855L106.305 56.8498C106.448 57.1589 106.641 57.4294 106.885 57.6612C107.134 57.899 107.405 58.0951 107.696 58.2497C107.987 58.4102 108.288 58.5291 108.597 58.6064C108.912 58.6896 109.203 58.7312 109.471 58.7312ZM110.344 54.166C110.772 54.166 111.159 54.0946 111.503 53.952C111.854 53.8093 112.148 53.6429 112.386 53.4527V49.0123C112.386 48.6794 112.383 48.3792 112.377 48.1117C112.371 47.8383 112.368 47.5916 112.368 47.3716C112.226 47.1517 112.059 46.9585 111.869 46.7921C111.685 46.6197 111.486 46.477 111.272 46.3641C111.064 46.2452 110.85 46.156 110.63 46.0966C110.41 46.0312 110.193 45.9985 109.979 45.9985C109.527 45.9985 109.12 46.0817 108.757 46.2482C108.395 46.4146 108.085 46.6554 107.83 46.9704C107.58 47.2795 107.387 47.6599 107.25 48.1117C107.12 48.5575 107.054 49.0658 107.054 49.6364C107.054 50.2784 107.125 50.8758 107.268 51.4286C107.411 51.9814 107.619 52.4629 107.892 52.8731C108.172 53.2773 108.516 53.5953 108.927 53.8271C109.337 54.053 109.809 54.166 110.344 54.166ZM116.684 48.8339C116.684 48.3287 116.675 47.8888 116.657 47.5143C116.645 47.1339 116.627 46.8069 116.604 46.5335C116.586 46.2601 116.559 46.0312 116.523 45.8469C116.494 45.6627 116.461 45.5081 116.425 45.3833V45.3476H118.485V45.3833C118.455 45.4724 118.429 45.5735 118.405 45.6864C118.381 45.7994 118.36 45.9272 118.342 46.0698C118.693 45.8677 119.079 45.6983 119.502 45.5616C119.929 45.4189 120.402 45.3476 120.919 45.3476C121.579 45.3476 122.179 45.4605 122.72 45.6864C123.267 45.9064 123.734 46.2244 124.12 46.6405C124.513 47.0566 124.816 47.5589 125.03 48.1474C125.244 48.7359 125.351 49.3957 125.351 50.1268C125.351 50.7391 125.244 51.3276 125.03 51.8923C124.822 52.457 124.513 52.9563 124.102 53.3902C123.698 53.8242 123.199 54.1719 122.604 54.4335C122.01 54.6891 121.326 54.8169 120.554 54.8169C120.09 54.8169 119.668 54.7812 119.288 54.7099C118.907 54.6385 118.556 54.5464 118.235 54.4335V55.7353C118.235 56.2405 118.241 56.6804 118.253 57.0549C118.265 57.4353 118.283 57.7623 118.307 58.0357C118.33 58.3091 118.357 58.538 118.387 58.7223C118.417 58.9065 118.449 59.0611 118.485 59.1859V59.2216H116.425V59.1859C116.461 59.0611 116.494 58.9065 116.523 58.7223C116.559 58.538 116.586 58.3091 116.604 58.0357C116.627 57.7623 116.645 57.4353 116.657 57.0549C116.675 56.6804 116.684 56.2405 116.684 55.7353V48.8339ZM120.607 46.0163C120.405 46.0163 120.197 46.0431 119.983 46.0966C119.775 46.1441 119.567 46.2155 119.359 46.3106C119.157 46.3997 118.961 46.5157 118.77 46.6583C118.586 46.795 118.42 46.9526 118.271 47.1309C118.259 47.3568 118.25 47.6124 118.244 47.8977C118.238 48.183 118.235 48.4951 118.235 48.8339V53.5062C118.354 53.5953 118.488 53.6785 118.637 53.7558C118.785 53.8331 118.952 53.9044 119.136 53.9698C119.326 54.0292 119.537 54.0768 119.769 54.1125C120.007 54.1481 120.268 54.166 120.554 54.166C121.017 54.166 121.436 54.0827 121.811 53.9163C122.185 53.7499 122.5 53.5091 122.756 53.1941C123.018 52.879 123.217 52.4956 123.353 52.0439C123.496 51.5921 123.567 51.0809 123.567 50.5102C123.567 49.8682 123.514 49.2738 123.407 48.7269C123.3 48.1741 123.128 47.6986 122.89 47.3003C122.658 46.8961 122.355 46.581 121.98 46.3552C121.606 46.1293 121.148 46.0163 120.607 46.0163ZM128.846 51.5356C128.846 52.3203 129 52.8969 129.31 53.2654C129.625 53.634 130.047 53.8182 130.576 53.8182C130.766 53.8182 130.98 53.7796 131.218 53.7023C131.455 53.6191 131.699 53.5121 131.949 53.3813C132.204 53.2446 132.457 53.0871 132.707 52.9087C132.962 52.7304 133.197 52.5402 133.411 52.3381C133.423 52.1657 133.429 51.9844 133.429 51.7942C133.429 51.598 133.429 51.39 133.429 51.17V49.0123C133.429 48.507 133.42 48.0671 133.402 47.6926C133.39 47.3122 133.373 46.9853 133.349 46.7118C133.331 46.4384 133.304 46.2095 133.268 46.0253C133.239 45.841 133.206 45.6864 133.17 45.5616V45.5259H135.23V45.5616C135.194 45.6864 135.162 45.841 135.132 46.0253C135.102 46.2095 135.076 46.4384 135.052 46.7118C135.028 46.9853 135.01 47.3122 134.998 47.6926C134.986 48.0671 134.98 48.507 134.98 49.0123V51.17C134.98 51.6753 134.986 52.1182 134.998 52.4986C135.01 52.8731 135.028 53.197 135.052 53.4705C135.076 53.7439 135.102 53.9728 135.132 54.1571C135.162 54.3413 135.194 54.4959 135.23 54.6207V54.6564H133.17V54.6207C133.206 54.4721 133.242 54.2819 133.277 54.0501C133.319 53.8182 133.349 53.5151 133.367 53.1406C133.123 53.3486 132.858 53.5537 132.573 53.7558C132.294 53.9579 131.999 54.1392 131.69 54.2997C131.387 54.4602 131.078 54.588 130.763 54.6831C130.454 54.7842 130.148 54.8347 129.845 54.8347C129.381 54.8347 128.986 54.7545 128.659 54.594C128.338 54.4335 128.073 54.2224 127.865 53.9609C127.663 53.6993 127.514 53.4021 127.419 53.0692C127.33 52.7364 127.286 52.3946 127.286 52.0439V49.0123C127.286 48.507 127.28 48.0671 127.268 47.6926C127.256 47.3122 127.238 46.9853 127.214 46.7118C127.19 46.4384 127.164 46.2095 127.134 46.0253C127.104 45.841 127.072 45.6864 127.036 45.5616V45.5259H129.096V45.5616C129.06 45.6864 129.027 45.841 128.998 46.0253C128.968 46.2095 128.941 46.4384 128.917 46.7118C128.893 46.9853 128.876 47.3122 128.864 47.6926C128.852 48.0671 128.846 48.507 128.846 49.0123V51.5356ZM137.727 49.0123C137.727 48.507 137.718 48.0671 137.7 47.6926C137.688 47.3122 137.67 46.9853 137.646 46.7118C137.629 46.4384 137.602 46.2095 137.566 46.0253C137.536 45.841 137.504 45.6864 137.468 45.5616V45.5259H139.528V45.5616C139.48 45.6983 139.439 45.8648 139.403 46.0609C139.373 46.2571 139.35 46.5097 139.332 46.8188C139.552 46.6345 139.78 46.4532 140.018 46.2749C140.256 46.0966 140.5 45.9391 140.749 45.8023C140.999 45.6656 141.252 45.5557 141.507 45.4724C141.769 45.3892 142.03 45.3476 142.292 45.3476C142.452 45.3476 142.592 45.3565 142.711 45.3744C142.83 45.3862 142.937 45.4071 143.032 45.4368C143.127 45.4605 143.213 45.4903 143.291 45.5259C143.368 45.5557 143.442 45.5854 143.513 45.6151L143.077 47.3181L142.925 47.2825C142.854 47.0209 142.72 46.8129 142.524 46.6583C142.328 46.4978 142.06 46.4176 141.721 46.4176C141.537 46.4176 141.344 46.4503 141.142 46.5157C140.94 46.581 140.735 46.6732 140.526 46.7921C140.318 46.905 140.11 47.0388 139.902 47.1933C139.694 47.3419 139.492 47.4994 139.296 47.6659C139.284 47.8383 139.278 48.0255 139.278 48.2276C139.278 48.4297 139.278 48.6437 139.278 48.8696V51.17C139.278 51.6753 139.284 52.1182 139.296 52.4986C139.308 52.8731 139.326 53.197 139.35 53.4705C139.373 53.7439 139.4 53.9728 139.43 54.1571C139.459 54.3413 139.492 54.4959 139.528 54.6207V54.6564H137.468V54.6207C137.504 54.4959 137.536 54.3413 137.566 54.1571C137.602 53.9728 137.629 53.7439 137.646 53.4705C137.67 53.197 137.688 52.8731 137.7 52.4986C137.718 52.1182 137.727 51.6753 137.727 51.17V49.0123ZM154.088 56.9568C153.482 56.5229 152.923 56.0236 152.412 55.4589C151.901 54.8941 151.458 54.2789 151.084 53.6131C150.715 52.9474 150.427 52.243 150.219 51.5C150.011 50.751 149.907 49.9782 149.907 49.1817C149.907 48.3733 150.014 47.5916 150.228 46.8367C150.442 46.0758 150.739 45.3625 151.119 44.6967C151.5 44.025 151.951 43.4038 152.475 42.8332C152.998 42.2625 153.568 41.7602 154.186 41.3263L154.418 41.567C153.854 42.0069 153.378 42.5092 152.992 43.0739C152.605 43.6327 152.29 44.239 152.047 44.8929C151.809 45.5408 151.636 46.2274 151.529 46.9526C151.422 47.6778 151.369 48.4208 151.369 49.1817C151.369 49.9366 151.419 50.6707 151.52 51.384C151.627 52.0974 151.797 52.778 152.029 53.4259C152.266 54.0679 152.573 54.6683 152.947 55.227C153.322 55.7858 153.782 56.2821 154.329 56.7161L154.088 56.9568ZM166.108 43.8318L166.027 43.8675C165.564 43.4395 165.005 43.0977 164.351 42.8421C163.703 42.5865 162.99 42.4587 162.211 42.4587C161.462 42.4587 160.776 42.5776 160.152 42.8153C159.527 43.0472 158.989 43.386 158.538 43.8318C158.092 44.2776 157.744 44.8245 157.494 45.4724C157.245 46.1204 157.12 46.8575 157.12 47.6837C157.12 48.5932 157.239 49.4432 157.477 50.2338C157.714 51.0185 158.068 51.6991 158.538 52.2757C159.007 52.8523 159.593 53.307 160.294 53.6399C161.002 53.9668 161.825 54.1303 162.764 54.1303C163.103 54.1303 163.442 54.0946 163.781 54.0233C164.119 53.952 164.443 53.8479 164.752 53.7112C165.067 53.5686 165.362 53.3992 165.635 53.203C165.915 53.0009 166.167 52.772 166.393 52.5164L166.491 52.5788L165.778 54.3978C165.332 54.5702 164.839 54.701 164.298 54.7901C163.763 54.8852 163.222 54.9328 162.675 54.9328C161.575 54.9328 160.568 54.7753 159.652 54.4602C158.743 54.1392 157.958 53.6875 157.298 53.1049C156.644 52.5224 156.133 51.8239 155.765 51.0095C155.402 50.1892 155.221 49.2798 155.221 48.2811C155.221 47.7164 155.292 47.1606 155.435 46.6137C155.583 46.0669 155.797 45.5467 156.077 45.0534C156.356 44.56 156.701 44.1082 157.111 43.6981C157.521 43.282 157.988 42.9223 158.511 42.6192C159.04 42.316 159.62 42.0812 160.25 41.9148C160.886 41.7424 161.572 41.6562 162.309 41.6562C163.457 41.6562 164.521 41.8316 165.501 42.1823L166.108 43.8318ZM174.355 48.6467C174.355 47.862 174.198 47.2854 173.883 46.9169C173.568 46.5484 173.146 46.3641 172.617 46.3641C172.421 46.3641 172.201 46.4057 171.957 46.4889C171.719 46.5662 171.472 46.6732 171.217 46.8099C170.967 46.9466 170.718 47.1071 170.468 47.2914C170.218 47.4697 169.986 47.6599 169.772 47.862V51.17C169.772 51.6753 169.778 52.1182 169.79 52.4986C169.802 52.8731 169.82 53.197 169.844 53.4705C169.868 53.7439 169.894 53.9728 169.924 54.1571C169.954 54.3413 169.986 54.4959 170.022 54.6207V54.6564H167.962V54.6207C167.998 54.4959 168.031 54.3413 168.06 54.1571C168.096 53.9728 168.123 53.7439 168.141 53.4705C168.164 53.197 168.182 52.8731 168.194 52.4986C168.212 52.1182 168.221 51.6753 168.221 51.17V44.8126C168.221 44.3074 168.212 43.8675 168.194 43.493C168.182 43.1126 168.164 42.7856 168.141 42.5122C168.123 42.2387 168.096 42.0099 168.06 41.8256C168.031 41.6413 167.998 41.4868 167.962 41.362V41.3263H170.022V41.362C169.986 41.4868 169.954 41.6413 169.924 41.8256C169.894 42.0099 169.868 42.2387 169.844 42.5122C169.82 42.7856 169.802 43.1126 169.79 43.493C169.778 43.8675 169.772 44.3074 169.772 44.8126V47.0952C170.01 46.8812 170.272 46.6702 170.557 46.4622C170.848 46.2541 171.149 46.0669 171.458 45.9004C171.767 45.734 172.082 45.6002 172.403 45.4992C172.724 45.3981 173.039 45.3476 173.348 45.3476C173.812 45.3476 174.204 45.4279 174.525 45.5884C174.852 45.7488 175.116 45.9599 175.318 46.2214C175.526 46.483 175.675 46.7832 175.764 47.122C175.859 47.4549 175.907 47.7937 175.907 48.1385V51.17C175.907 51.6753 175.913 52.1182 175.925 52.4986C175.937 52.8731 175.954 53.197 175.978 53.4705C176.002 53.7439 176.029 53.9728 176.058 54.1571C176.088 54.3413 176.121 54.4959 176.157 54.6207V54.6564H174.097V54.6207C174.133 54.4959 174.165 54.3413 174.195 54.1571C174.231 53.9728 174.257 53.7439 174.275 53.4705C174.299 53.197 174.317 52.8731 174.329 52.4986C174.347 52.1182 174.355 51.6753 174.355 51.17V48.6467ZM177.886 52.026C177.886 51.5564 177.981 51.1492 178.172 50.8045C178.368 50.4597 178.626 50.1655 178.947 49.9217C179.268 49.678 179.634 49.4819 180.044 49.3333C180.454 49.1787 180.879 49.0598 181.319 48.9766C181.759 48.8874 182.193 48.828 182.621 48.7983C183.049 48.7626 183.441 48.7418 183.798 48.7359V48.2811C183.798 47.8888 183.747 47.55 183.646 47.2646C183.545 46.9793 183.403 46.7445 183.218 46.5602C183.034 46.37 182.811 46.2303 182.55 46.1412C182.294 46.0461 182.012 45.9985 181.703 45.9985C181.489 45.9985 181.278 46.0163 181.07 46.052C180.861 46.0877 180.645 46.1471 180.419 46.2303C180.199 46.3136 179.964 46.4265 179.714 46.5692C179.471 46.7118 179.206 46.8931 178.921 47.1131L178.831 47.0596L179.438 45.8023C179.634 45.7132 179.827 45.6419 180.017 45.5884C180.208 45.5289 180.401 45.4814 180.597 45.4457C180.793 45.41 180.992 45.3862 181.194 45.3744C181.402 45.3565 181.619 45.3476 181.845 45.3476C182.469 45.3476 183.001 45.4249 183.441 45.5794C183.887 45.728 184.25 45.9361 184.529 46.2036C184.814 46.4651 185.022 46.7742 185.153 47.1309C185.284 47.4816 185.349 47.8591 185.349 48.2633V51.17C185.349 51.6753 185.355 52.1182 185.367 52.4986C185.385 52.8731 185.403 53.197 185.421 53.4705C185.445 53.7439 185.471 53.9728 185.501 54.1571C185.537 54.3413 185.572 54.4959 185.608 54.6207V54.6564H183.637V54.6207C183.667 54.5256 183.688 54.4186 183.7 54.2997C183.718 54.1808 183.733 54.0382 183.744 53.8717C183.62 53.9787 183.471 54.0887 183.299 54.2016C183.132 54.3146 182.939 54.4186 182.719 54.5137C182.505 54.6029 182.264 54.6742 181.997 54.7277C181.735 54.7871 181.447 54.8169 181.132 54.8169C180.098 54.8169 179.298 54.5761 178.733 54.0946C178.169 53.6072 177.886 52.9177 177.886 52.026ZM183.798 49.4313C183.257 49.4373 182.737 49.47 182.238 49.5294C181.738 49.5829 181.295 49.6988 180.909 49.8772C180.529 50.0555 180.222 50.3111 179.991 50.644C179.765 50.9709 179.652 51.4078 179.652 51.9547C179.652 52.6561 179.827 53.1911 180.178 53.5596C180.529 53.9282 181.013 54.1125 181.631 54.1125C181.917 54.1125 182.175 54.0738 182.407 53.9966C182.645 53.9133 182.853 53.8123 183.031 53.6934C183.215 53.5686 183.37 53.4348 183.495 53.2922C183.62 53.1435 183.715 53.0009 183.78 52.8642C183.792 52.6383 183.798 52.3886 183.798 52.1152C183.798 51.8358 183.798 51.5208 183.798 51.17V49.4313ZM188.051 48.8339C188.051 48.3287 188.042 47.8888 188.024 47.5143C188.012 47.1339 187.995 46.8069 187.971 46.5335C187.953 46.2601 187.926 46.0312 187.891 45.8469C187.861 45.6627 187.828 45.5081 187.793 45.3833V45.3476H189.852V45.3833C189.823 45.4724 189.796 45.5735 189.772 45.6864C189.748 45.7994 189.727 45.9272 189.71 46.0698C190.06 45.8677 190.447 45.6983 190.869 45.5616C191.297 45.4189 191.769 45.3476 192.286 45.3476C192.946 45.3476 193.547 45.4605 194.088 45.6864C194.634 45.9064 195.101 46.2244 195.487 46.6405C195.88 47.0566 196.183 47.5589 196.397 48.1474C196.611 48.7359 196.718 49.3957 196.718 50.1268C196.718 50.7391 196.611 51.3276 196.397 51.8923C196.189 52.457 195.88 52.9563 195.47 53.3902C195.065 53.8242 194.566 54.1719 193.972 54.4335C193.377 54.6891 192.694 54.8169 191.921 54.8169C191.457 54.8169 191.035 54.7812 190.655 54.7099C190.274 54.6385 189.924 54.5464 189.603 54.4335V55.7353C189.603 56.2405 189.609 56.6804 189.62 57.0549C189.632 57.4353 189.65 57.7623 189.674 58.0357C189.698 58.3091 189.724 58.538 189.754 58.7223C189.784 58.9065 189.817 59.0611 189.852 59.1859V59.2216H187.793V59.1859C187.828 59.0611 187.861 58.9065 187.891 58.7223C187.926 58.538 187.953 58.3091 187.971 58.0357C187.995 57.7623 188.012 57.4353 188.024 57.0549C188.042 56.6804 188.051 56.2405 188.051 55.7353V48.8339ZM191.974 46.0163C191.772 46.0163 191.564 46.0431 191.35 46.0966C191.142 46.1441 190.934 46.2155 190.726 46.3106C190.524 46.3997 190.328 46.5157 190.138 46.6583C189.953 46.795 189.787 46.9526 189.638 47.1309C189.626 47.3568 189.617 47.6124 189.611 47.8977C189.606 48.183 189.603 48.4951 189.603 48.8339V53.5062C189.721 53.5953 189.855 53.6785 190.004 53.7558C190.152 53.8331 190.319 53.9044 190.503 53.9698C190.693 54.0292 190.904 54.0768 191.136 54.1125C191.374 54.1481 191.636 54.166 191.921 54.166C192.384 54.166 192.804 54.0827 193.178 53.9163C193.553 53.7499 193.868 53.5091 194.123 53.1941C194.385 52.879 194.584 52.4956 194.721 52.0439C194.863 51.5921 194.935 51.0809 194.935 50.5102C194.935 49.8682 194.881 49.2738 194.774 48.7269C194.667 48.1741 194.495 47.6986 194.257 47.3003C194.025 46.8961 193.722 46.581 193.347 46.3552C192.973 46.1293 192.515 46.0163 191.974 46.0163ZM201.943 54.1303C202.121 54.1303 202.297 54.0976 202.469 54.0322C202.647 53.9668 202.817 53.8777 202.977 53.7647C203.144 53.6518 203.301 53.524 203.45 53.3813C203.604 53.2327 203.747 53.0782 203.878 52.9177L203.967 52.9622L203.387 54.3978C203.316 54.4335 203.227 54.478 203.12 54.5315C203.019 54.5791 202.894 54.6237 202.745 54.6653C202.603 54.7128 202.433 54.7515 202.237 54.7812C202.041 54.8169 201.809 54.8347 201.542 54.8347C200.745 54.8347 200.124 54.6207 199.678 54.1927C199.238 53.7588 199.018 53.0841 199.018 52.1687V46.2214L197.52 46.2749V45.4903C197.705 45.5022 197.925 45.5111 198.18 45.517C198.436 45.523 198.715 45.5259 199.018 45.5259C199.012 45.1039 199 44.7324 198.983 44.4114C198.971 44.0844 198.953 43.8021 198.929 43.5643C198.911 43.3206 198.888 43.1155 198.858 42.9491C198.828 42.7826 198.798 42.643 198.769 42.53V42.4943H200.828V42.53C200.793 42.643 200.76 42.7826 200.73 42.9491C200.701 43.1155 200.674 43.3176 200.65 43.5554C200.632 43.7932 200.614 44.0755 200.597 44.4025C200.585 44.7235 200.576 45.0979 200.57 45.5259C200.944 45.52 201.31 45.514 201.667 45.5081C202.029 45.4962 202.356 45.4843 202.647 45.4724C202.945 45.4546 203.194 45.4397 203.396 45.4279C203.604 45.41 203.741 45.3952 203.806 45.3833L203.646 46.2928C203.343 46.2868 203.025 46.2779 202.692 46.266C202.407 46.2541 202.08 46.2452 201.711 46.2393C201.343 46.2333 200.962 46.2274 200.57 46.2214V52.3559C200.57 52.7245 200.608 53.0247 200.686 53.2565C200.769 53.4824 200.873 53.6607 200.998 53.7915C201.129 53.9223 201.274 54.0114 201.435 54.059C201.601 54.1065 201.771 54.1303 201.943 54.1303ZM209.718 54.8169C209.058 54.8169 208.44 54.7128 207.863 54.5048C207.287 54.2967 206.785 53.9936 206.357 53.5953C205.929 53.1911 205.59 52.6948 205.34 52.1063C205.096 51.5118 204.975 50.8342 204.975 50.0733C204.975 49.4016 205.087 48.7804 205.313 48.2098C205.539 47.6332 205.851 47.1339 206.25 46.7118C206.648 46.2898 207.111 45.9599 207.641 45.7221C208.176 45.4843 208.752 45.3654 209.37 45.3654C209.983 45.3654 210.55 45.4724 211.073 45.6864C211.596 45.8945 212.048 46.2006 212.429 46.6048C212.815 47.0031 213.118 47.4994 213.338 48.0939C213.564 48.6824 213.686 49.3541 213.704 50.109C213.032 50.0971 212.36 50.0882 211.689 50.0822C211.017 50.0763 210.318 50.0733 209.593 50.0733C209.076 50.0733 208.571 50.0763 208.077 50.0822C207.59 50.0882 207.15 50.0971 206.758 50.109C206.793 50.7272 206.889 51.286 207.043 51.7853C207.204 52.2846 207.421 52.7126 207.694 53.0692C207.973 53.42 208.309 53.6904 208.702 53.8806C209.1 54.0709 209.549 54.166 210.048 54.166C210.393 54.166 210.717 54.1273 211.02 54.0501C211.329 53.9668 211.608 53.8539 211.858 53.7112C212.108 53.5686 212.331 53.4021 212.527 53.2119C212.723 53.0157 212.889 52.8047 213.026 52.5788L213.133 52.6323L212.473 54.2195C212.152 54.3859 211.769 54.5286 211.323 54.6475C210.877 54.7604 210.342 54.8169 209.718 54.8169ZM208.532 49.3778C209.127 49.3778 209.721 49.3778 210.315 49.3778C210.916 49.3719 211.46 49.36 211.947 49.3422C211.894 48.825 211.793 48.3614 211.644 47.9512C211.495 47.5411 211.305 47.1933 211.073 46.908C210.842 46.6227 210.568 46.4027 210.253 46.2482C209.938 46.0936 209.59 46.0163 209.21 46.0163C208.865 46.0163 208.547 46.0936 208.256 46.2482C207.97 46.3968 207.721 46.6137 207.507 46.8991C207.293 47.1844 207.12 47.5351 206.99 47.9512C206.859 48.3614 206.782 48.831 206.758 49.36C207.025 49.3719 207.308 49.3778 207.605 49.3778C207.902 49.3778 208.211 49.3778 208.532 49.3778ZM215.621 49.0123C215.621 48.507 215.612 48.0671 215.594 47.6926C215.582 47.3122 215.564 46.9853 215.54 46.7118C215.523 46.4384 215.496 46.2095 215.46 46.0253C215.431 45.841 215.398 45.6864 215.362 45.5616V45.5259H217.422V45.5616C217.374 45.6983 217.333 45.8648 217.297 46.0609C217.267 46.2571 217.244 46.5097 217.226 46.8188C217.446 46.6345 217.674 46.4532 217.912 46.2749C218.15 46.0966 218.394 45.9391 218.643 45.8023C218.893 45.6656 219.146 45.5557 219.401 45.4724C219.663 45.3892 219.924 45.3476 220.186 45.3476C220.346 45.3476 220.486 45.3565 220.605 45.3744C220.724 45.3862 220.831 45.4071 220.926 45.4368C221.021 45.4605 221.107 45.4903 221.185 45.5259C221.262 45.5557 221.336 45.5854 221.408 45.6151L220.971 47.3181L220.819 47.2825C220.748 47.0209 220.614 46.8129 220.418 46.6583C220.222 46.4978 219.954 46.4176 219.615 46.4176C219.431 46.4176 219.238 46.4503 219.036 46.5157C218.834 46.581 218.629 46.6732 218.42 46.7921C218.212 46.905 218.004 47.0388 217.796 47.1933C217.588 47.3419 217.386 47.4994 217.19 47.6659C217.178 47.8383 217.172 48.0255 217.172 48.2276C217.172 48.4297 217.172 48.6437 217.172 48.8696V51.17C217.172 51.6753 217.178 52.1182 217.19 52.4986C217.202 52.8731 217.22 53.197 217.244 53.4705C217.267 53.7439 217.294 53.9728 217.324 54.1571C217.353 54.3413 217.386 54.4959 217.422 54.6207V54.6564H215.362V54.6207C215.398 54.4959 215.431 54.3413 215.46 54.1571C215.496 53.9728 215.523 53.7439 215.54 53.4705C215.564 53.197 215.582 52.8731 215.594 52.4986C215.612 52.1182 215.621 51.6753 215.621 51.17V49.0123ZM221.595 56.7161C222.136 56.2821 222.593 55.7858 222.968 55.227C223.348 54.6683 223.654 54.0679 223.886 53.4259C224.124 52.778 224.293 52.0974 224.395 51.384C224.502 50.6707 224.555 49.9366 224.555 49.1817C224.555 48.4208 224.502 47.6778 224.395 46.9526C224.288 46.2274 224.112 45.5408 223.868 44.8929C223.631 44.239 223.316 43.6327 222.923 43.0739C222.537 42.5092 222.064 42.0069 221.506 41.567L221.746 41.3263C222.359 41.7602 222.926 42.2625 223.449 42.8332C223.972 43.4038 224.424 44.025 224.805 44.6967C225.185 45.3625 225.482 46.0758 225.696 46.8367C225.91 47.5916 226.017 48.3733 226.017 49.1817C226.017 49.9782 225.913 50.751 225.705 51.5C225.497 52.243 225.206 52.9474 224.831 53.6131C224.463 54.2789 224.023 54.8941 223.512 55.4589C223.001 56.0236 222.442 56.5229 221.836 56.9568L221.595 56.7161Z" fill="#3C3938"/>
</g>
<defs>
<filter id="filter0_d_117_16" x="24.548" y="9.4115" width="52.5822" height="63.8114" filterUnits="userSpaceOnUse" color-interpolation-filters="sRGB">
<feFlood flood-opacity="0" result="BackgroundImageFix"/>
<feColorMatrix in="SourceAlpha" type="matrix" values="0 0 0 0 0 0 0 0 0 0 0 0 0 0 0 0 0 0 127 0" result="hardAlpha"/>
<feOffset dy="3.65217"/>
<feGaussianBlur stdDeviation="1.82609"/>
<feComposite in2="hardAlpha" operator="out"/>
<feColorMatrix type="matrix" values="0 0 0 0 0 0 0 0 0 0 0 0 0 0 0 0 0 0 0.25 0"/>
<feBlend mode="normal" in2="BackgroundImageFix" result="effect1_dropShadow_117_16"/>
<feBlend mode="normal" in="SourceGraphic" in2="effect1_dropShadow_117_16" result="shape"/>
</filter>
<filter id="filter1_d_117_16" x="0.678881" y="8.35645" width="50.0915" height="65.3841" filterUnits="userSpaceOnUse" color-interpolation-filters="sRGB">
<feFlood flood-opacity="0" result="BackgroundImageFix"/>
<feColorMatrix in="SourceAlpha" type="matrix" values="0 0 0 0 0 0 0 0 0 0 0 0 0 0 0 0 0 0 127 0" result="hardAlpha"/>
<feOffset dy="3.65217"/>
<feGaussianBlur stdDeviation="1.82609"/>
<feComposite in2="hardAlpha" operator="out"/>
<feColorMatrix type="matrix" values="0 0 0 0 0 0 0 0 0 0 0 0 0 0 0 0 0 0 0.25 0"/>
<feBlend mode="normal" in2="BackgroundImageFix" result="effect1_dropShadow_117_16"/>
<feBlend mode="normal" in="SourceGraphic" in2="effect1_dropShadow_117_16" result="shape"/>
</filter>
<filter id="filter2_d_117_16" x="16.2653" y="4.52185" width="20.3097" height="24.1618" filterUnits="userSpaceOnUse" color-interpolation-filters="sRGB">
<feFlood flood-opacity="0" result="BackgroundImageFix"/>
<feColorMatrix in="SourceAlpha" type="matrix" values="0 0 0 0 0 0 0 0 0 0 0 0 0 0 0 0 0 0 127 0" result="hardAlpha"/>
<feOffset dy="3.65217"/>
<feGaussianBlur stdDeviation="1.82609"/>
<feComposite in2="hardAlpha" operator="out"/>
<feColorMatrix type="matrix" values="0 0 0 0 0 0 0 0 0 0 0 0 0 0 0 0 0 0 0.25 0"/>
<feBlend mode="normal" in2="BackgroundImageFix" result="effect1_dropShadow_117_16"/>
<feBlend mode="normal" in="SourceGraphic" in2="effect1_dropShadow_117_16" result="shape"/>
</filter>
<filter id="filter3_d_117_16" x="39.7409" y="5.04297" width="20.2614" height="24.2012" filterUnits="userSpaceOnUse" color-interpolation-filters="sRGB">
<feFlood flood-opacity="0" result="BackgroundImageFix"/>
<feColorMatrix in="SourceAlpha" type="matrix" values="0 0 0 0 0 0 0 0 0 0 0 0 0 0 0 0 0 0 127 0" result="hardAlpha"/>
<feOffset dy="3.65217"/>
<feGaussianBlur stdDeviation="1.82609"/>
<feComposite in2="hardAlpha" operator="out"/>
<feColorMatrix type="matrix" values="0 0 0 0 0 0 0 0 0 0 0 0 0 0 0 0 0 0 0.25 0"/>
<feBlend mode="normal" in2="BackgroundImageFix" result="effect1_dropShadow_117_16"/>
<feBlend mode="normal" in="SourceGraphic" in2="effect1_dropShadow_117_16" result="shape"/>
</filter>
<filter id="filter4_d_117_16" x="78.2802" y="12.2473" width="276.304" height="38.3371" filterUnits="userSpaceOnUse" color-interpolation-filters="sRGB">
<feFlood flood-opacity="0" result="BackgroundImageFix"/>
<feColorMatrix in="SourceAlpha" type="matrix" values="0 0 0 0 0 0 0 0 0 0 0 0 0 0 0 0 0 0 127 0" result="hardAlpha"/>
<feOffset dy="3.89611"/>
<feGaussianBlur stdDeviation="1.94806"/>
<feComposite in2="hardAlpha" operator="out"/>
<feColorMatrix type="matrix" values="0 0 0 0 0 0 0 0 0 0 0 0 0 0 0 0 0 0 0.25 0"/>
<feBlend mode="normal" in2="BackgroundImageFix" result="effect1_dropShadow_117_16"/>
<feBlend mode="normal" in="SourceGraphic" in2="effect1_dropShadow_117_16" result="shape"/>
</filter>
<filter id="filter5_d_117_16" x="79.2472" y="41.3263" width="150.422" height="25.378" filterUnits="userSpaceOnUse" color-interpolation-filters="sRGB">
<feFlood flood-opacity="0" result="BackgroundImageFix"/>
<feColorMatrix in="SourceAlpha" type="matrix" values="0 0 0 0 0 0 0 0 0 0 0 0 0 0 0 0 0 0 127 0" result="hardAlpha"/>
<feOffset dy="3.65217"/>
<feGaussianBlur stdDeviation="1.82609"/>
<feComposite in2="hardAlpha" operator="out"/>
<feColorMatrix type="matrix" values="0 0 0 0 0 0 0 0 0 0 0 0 0 0 0 0 0 0 0.25 0"/>
<feBlend mode="normal" in2="BackgroundImageFix" result="effect1_dropShadow_117_16"/>
<feBlend mode="normal" in="SourceGraphic" in2="effect1_dropShadow_117_16" result="shape"/>
</filter>
</defs>
</svg>
