<svg width="484" height="145" viewBox="0 0 484 145" fill="none" xmlns="http://www.w3.org/2000/svg">
<g filter="url(#filter0_d_107_159)">
<path d="M148.333 16.6353C148.333 16.6353 113.128 46.5487 97.7191 45.6299C82.3104 44.7111 71.708 27.3993 67.0076 22.1734C62.3073 16.9476 85.3654 52.6932 83.8627 71.1297C82.3601 89.5662 53.5606 120.492 53.5606 120.492C53.5606 120.492 78.0509 98.2225 96.6921 101.571C115.333 104.919 149.973 146.109 139.391 131.965C128.808 117.821 109.576 95.6976 111.518 73.1211C113.459 50.5445 148.333 16.6353 148.333 16.6353Z" fill="white"/>
<path d="M130.262 36.1013C134.648 30.5702 138.976 25.7149 142.255 22.1947C138.772 24.9232 134.144 28.4185 129.087 31.8894C123.714 35.5778 117.846 39.2459 112.348 41.9362C106.871 44.6161 101.68 46.367 97.6894 46.129C89.8043 45.6588 83.1918 40.9994 77.9966 35.8727C75.394 33.3045 73.1323 30.6043 71.2318 28.2261C70.6025 27.4386 70.0157 26.6903 69.4701 25.9945C68.9194 25.2923 68.4108 24.6437 67.9429 24.0624C68.0587 24.2931 68.1829 24.5387 68.3153 24.7989C68.6103 25.379 68.9425 26.0259 69.3052 26.7323C70.7542 29.5541 72.6898 33.3238 74.6884 37.565C77.1873 42.8681 79.7919 48.9235 81.6783 54.815C83.5612 60.6958 84.7448 66.4621 84.3611 71.1703C83.9771 75.8811 81.8577 81.3427 78.9359 86.8546C76.0089 92.3761 72.2528 97.9919 68.5508 103.021C64.8478 108.051 61.1929 112.503 58.4641 115.697C58.3582 115.82 58.2538 115.942 58.1507 116.063C60.6794 114.109 64.0378 111.687 67.8758 109.349C72.122 106.762 76.9667 104.272 81.9323 102.64C86.895 101.008 92.0096 100.222 96.7805 101.079C101.559 101.937 107.297 105.199 113.008 109.316C118.736 113.444 124.5 118.481 129.34 122.96C132.458 125.846 135.22 128.529 137.329 130.576C137.853 131.085 138.337 131.555 138.776 131.979C137.729 130.583 136.598 129.109 135.412 127.564C130.645 121.348 124.993 113.979 120.325 105.957C114.417 95.8012 110.035 84.5177 111.019 73.0782C111.514 67.3304 114.097 60.9049 117.652 54.5272C121.213 48.1414 125.772 41.763 130.262 36.1013Z" stroke="#5E5C5C"/>
</g>
<g filter="url(#filter1_d_107_159)">
<path d="M5 15.8032C5 15.8032 36.3552 45.999 50.1478 45.2044C57.7458 44.7667 64.0632 39.3426 68.9126 33.6915C72.8661 29.0844 75.8439 24.3264 77.7444 21.9965C81.9761 16.8087 62.324 49.5101 63.8209 71.531C65.3177 93.552 91.8031 120.182 91.8031 120.182C91.8031 120.182 67.8772 98.8331 50.7917 101.151C33.7063 103.469 2.89586 145.257 12.4348 131.2C21.9737 117.142 38.9849 93.4716 38.7456 72.6768C38.5062 51.882 5 15.8032 5 15.8032Z" fill="#D20F00"/>
<path d="M5 15.8032L5.34683 15.4431L4.63363 16.1435L5 15.8032ZM5 15.8032C5.34683 15.4431 5.34691 15.4431 5.34711 15.4433L5.3481 15.4443L5.35222 15.4483L5.36895 15.4643L5.43585 15.5284C5.49513 15.585 5.58353 15.6693 5.69955 15.7793C5.93158 15.9994 6.27409 16.3223 6.71512 16.7334C7.59721 17.5554 8.87329 18.7294 10.4479 20.136C13.5976 22.9497 17.9391 26.6915 22.709 30.4073C27.4811 34.1249 32.6708 37.8075 37.5181 40.5089C42.3903 43.2242 46.8257 44.895 50.119 44.7052C57.4999 44.28 63.6991 38.9992 68.5332 33.3659C70.4958 31.0788 72.2187 28.7513 73.6922 26.6985C74.0562 26.1914 74.4061 25.6994 74.7412 25.2282C75.7547 23.8029 76.633 22.5679 77.3569 21.6804C77.493 21.5136 77.6123 21.3759 77.7137 21.2714C77.7971 21.1855 77.9216 21.0641 78.0634 21.0001C78.1264 20.9717 78.3389 20.8879 78.5656 21.0155C78.7963 21.1453 78.8323 21.3751 78.8394 21.4466C78.855 21.6023 78.81 21.769 78.7794 21.8732C78.6372 22.3573 78.2021 23.3366 77.5984 24.6587C77.4254 25.0375 77.2369 25.448 77.0347 25.8882C75.8042 28.5677 74.0693 32.3451 72.2711 36.7495C68.0744 47.0283 63.5799 60.613 64.3197 71.4971C65.0579 82.3564 71.9763 94.4199 78.7784 103.821C82.1708 108.51 85.5175 112.514 88.0163 115.346C89.2654 116.762 90.3021 117.884 91.0259 118.652C91.3878 119.035 91.6714 119.331 91.8642 119.529C91.9606 119.629 92.0343 119.704 92.0837 119.754L92.1394 119.811L92.1533 119.825L92.1566 119.828L92.1574 119.829C92.1575 119.829 92.1576 119.829 91.8031 120.182M5 15.8032C4.63363 16.1435 4.63371 16.1436 4.63391 16.1438L4.63497 16.1449L4.63935 16.1496L4.65715 16.1689L4.72821 16.2459C4.79108 16.3143 4.88463 16.4162 5.00681 16.5503C5.25116 16.8184 5.61004 17.2148 6.06714 17.727C6.98136 18.7514 8.28836 20.2388 9.8578 22.0889C12.9971 25.7896 17.1844 30.9389 21.3779 36.735C25.5727 42.5329 29.7669 48.9684 32.9253 55.2423C36.0893 61.5275 38.1871 67.599 38.2456 72.6826C38.3638 82.9544 34.2175 93.981 28.8147 104.231C24.025 113.319 18.2759 121.746 13.7046 128.447C13.1229 129.299 12.5602 130.124 12.021 130.919C11.4243 131.798 10.9819 132.464 10.6832 132.937C10.5341 133.173 10.4172 133.367 10.3338 133.517C10.2922 133.592 10.2558 133.662 10.2272 133.725C10.2025 133.78 10.1683 133.861 10.152 133.948C10.1446 133.987 10.1301 134.08 10.1574 134.189C10.1917 134.327 10.2971 134.493 10.502 134.558C10.6592 134.609 10.7909 134.569 10.8372 134.554C10.896 134.534 10.9432 134.507 10.9727 134.489C11.0798 134.424 11.2017 134.314 11.314 134.207C11.558 133.973 11.917 133.592 12.3696 133.099C12.8348 132.592 13.4078 131.956 14.0749 131.216C16.0226 129.055 18.773 126.003 21.9893 122.663C26.3057 118.18 31.442 113.198 36.5573 109.195C41.6928 105.176 46.7306 102.207 50.8589 101.646C55.0193 101.082 59.6317 101.956 64.238 103.617C68.8396 105.277 73.3995 107.709 77.4404 110.222C81.4796 112.734 84.9892 115.319 87.4894 117.276C88.7392 118.255 89.7359 119.076 90.4195 119.651C90.7613 119.939 91.0247 120.166 91.2024 120.32C91.2224 120.338 91.2414 120.354 91.2592 120.37C91.3204 120.423 91.3687 120.465 91.4035 120.496L91.454 120.541L91.4664 120.552L91.4694 120.554L91.47 120.555C91.4701 120.555 91.4702 120.555 91.8031 120.182M91.8031 120.182L92.1576 119.829L91.4702 120.555L91.8031 120.182Z" stroke="#312F2F"/>
</g>
<g filter="url(#filter2_d_107_159)">
<ellipse rx="13.5967" ry="17.6533" transform="matrix(0.990999 -0.133867 0.180937 0.983495 47.3349 24.0435)" fill="#D20F00"/>
<path d="M60.3137 22.2902C62.0512 31.7345 57.4941 39.9605 50.4386 40.9136C43.3831 41.8667 36.0936 35.2409 34.3561 25.7967C32.6187 16.3525 37.1758 8.12639 44.2312 7.17331C51.2867 6.22024 58.5762 12.846 60.3137 22.2902Z" stroke="#353434"/>
</g>
<path d="M50.2332 35.6442C52.8964 34.95 55.0024 31.0258 55.0024 31.0258C55.0024 31.0258 52.3944 33.3116 50.0487 34.3461C47.7031 35.3806 43.3582 34.1234 43.3582 34.1234C43.3582 34.1234 47.2756 36.415 50.2332 35.6442Z" fill="#671009"/>
<g filter="url(#filter3_d_107_159)">
<ellipse rx="13.5968" ry="17.6542" transform="matrix(-0.948446 -0.316939 -0.271384 0.962471 100.171 25.1755)" fill="white"/>
<path d="M87.7499 21.0246C85.1437 30.2674 88.7635 39.4294 95.5161 41.6859C102.269 43.9424 109.987 38.5692 112.593 29.3264C115.199 20.0835 111.579 10.9215 104.827 8.66504C98.0743 6.40856 90.3561 11.7817 87.7499 21.0246Z" stroke="#5E5C5C"/>
</g>
<path d="M96.9099 35.4845C99.5495 36.2654 103.784 33.9295 103.784 33.9295C103.784 33.9295 99.7118 34.8425 97.2598 34.1448C94.9743 33.4946 92.1234 30.8839 92.1234 30.8839C92.1234 30.8839 94.4231 34.7489 96.9099 35.4845Z" fill="#C4C4C4"/>
<g filter="url(#filter4_d_107_159)">
<path d="M203.7 23.2V60H196.45V45.05H180V60H172.75V23.2H180V38.05H196.45V23.2H203.7ZM222.78 60.6C220.113 60.6 217.846 60.1 215.98 59.1C214.146 58.1 212.746 56.7167 211.78 54.95C210.813 53.1833 210.33 51.15 210.33 48.85C210.33 46.65 210.896 44.6667 212.03 42.9C213.163 41.1333 214.68 39.7333 216.58 38.7C218.48 37.6333 220.596 37.1 222.93 37.1C226.063 37.1 228.63 38.0167 230.63 39.85C232.663 41.65 233.98 44.2667 234.58 47.7L217.58 53.1L216.03 49.3L228.33 45.15L226.88 45.8C226.613 44.9333 226.13 44.1833 225.43 43.55C224.763 42.8833 223.746 42.55 222.38 42.55C221.346 42.55 220.43 42.8 219.63 43.3C218.863 43.7667 218.263 44.45 217.83 45.35C217.43 46.2167 217.23 47.25 217.23 48.45C217.23 49.8167 217.48 50.9667 217.98 51.9C218.48 52.8 219.163 53.4833 220.03 53.95C220.896 54.4167 221.863 54.65 222.93 54.65C223.696 54.65 224.43 54.5167 225.13 54.25C225.863 53.9833 226.58 53.6333 227.28 53.2L230.38 58.4C229.213 59.0667 227.946 59.6 226.58 60C225.246 60.4 223.98 60.6 222.78 60.6ZM246.016 38.15L246.566 42L246.466 41.7C247.333 40.2333 248.416 39.1 249.716 38.3C251.016 37.4667 252.583 37.05 254.416 37.05C255.616 37.05 256.666 37.2167 257.566 37.55C258.5 37.8833 259.283 38.3833 259.916 39.05C260.55 39.6833 260.983 40.5167 261.216 41.55L260.966 41.6C261.9 40.2333 263.016 39.1333 264.316 38.3C265.65 37.4667 267.033 37.05 268.466 37.05C270.633 37.05 272.35 37.6667 273.616 38.9C274.916 40.1 275.583 41.6667 275.616 43.6V60H268.666V46.5C268.633 45.5333 268.483 44.75 268.216 44.15C267.95 43.5167 267.333 43.1667 266.366 43.1C265.233 43.1 264.266 43.5 263.466 44.3C262.7 45.0667 262.116 46.0667 261.716 47.3C261.35 48.5 261.166 49.75 261.166 51.05V60H254.166V46.5C254.133 45.5333 253.95 44.75 253.616 44.15C253.316 43.5167 252.683 43.1667 251.716 43.1C250.616 43.1 249.683 43.5 248.916 44.3C248.183 45.0667 247.616 46.05 247.216 47.25C246.85 48.45 246.666 49.6833 246.666 50.95V60H239.666V38.15H246.016ZM281.13 48.8C281.13 46.5667 281.647 44.5667 282.68 42.8C283.747 41.0333 285.23 39.65 287.13 38.65C289.03 37.6167 291.214 37.1 293.68 37.1C296.18 37.1 298.347 37.6167 300.18 38.65C302.014 39.65 303.414 41.0333 304.38 42.8C305.38 44.5667 305.88 46.5667 305.88 48.8C305.88 51.0333 305.38 53.05 304.38 54.85C303.414 56.6167 302.014 58.0167 300.18 59.05C298.347 60.0833 296.147 60.6 293.58 60.6C291.18 60.6 289.03 60.1333 287.13 59.2C285.264 58.2667 283.797 56.9167 282.73 55.15C281.664 53.3833 281.13 51.2667 281.13 48.8ZM288.18 48.85C288.18 49.9833 288.414 51.0167 288.88 51.95C289.347 52.85 289.98 53.5667 290.78 54.1C291.58 54.6333 292.48 54.9 293.48 54.9C294.58 54.9 295.53 54.6333 296.33 54.1C297.13 53.5667 297.747 52.85 298.18 51.95C298.614 51.0167 298.83 49.9833 298.83 48.85C298.83 47.6833 298.614 46.65 298.18 45.75C297.747 44.85 297.13 44.1333 296.33 43.6C295.53 43.0667 294.58 42.8 293.48 42.8C292.48 42.8 291.58 43.0667 290.78 43.6C289.98 44.1333 289.347 44.85 288.88 45.75C288.414 46.65 288.18 47.6833 288.18 48.85ZM325.095 60.6C323.795 60.6 322.512 60.3667 321.245 59.9C320.012 59.4 318.978 58.7 318.145 57.8L318.345 55.75V70.5H311.395V37.65H317.395L318.395 41.9L317.845 40.4C318.978 39.4333 320.245 38.6333 321.645 38C323.045 37.3667 324.662 37.05 326.495 37.05C328.528 37.05 330.345 37.5333 331.945 38.5C333.545 39.4333 334.795 40.8 335.695 42.6C336.628 44.3667 337.095 46.5 337.095 49C337.095 51.4667 336.578 53.5667 335.545 55.3C334.512 57.0333 333.095 58.35 331.295 59.25C329.495 60.15 327.428 60.6 325.095 60.6ZM323.695 55.1C324.828 55.1 325.862 54.85 326.795 54.35C327.762 53.85 328.528 53.15 329.095 52.25C329.695 51.3167 329.995 50.2667 329.995 49.1C329.995 47.8667 329.728 46.8 329.195 45.9C328.695 44.9667 327.995 44.25 327.095 43.75C326.228 43.2167 325.262 42.95 324.195 42.95C323.262 42.95 322.428 43.0833 321.695 43.35C320.995 43.5833 320.362 43.95 319.795 44.45C319.262 44.9167 318.795 45.5167 318.395 46.25V51.6C318.662 52.3 319.045 52.9167 319.545 53.45C320.045 53.9833 320.645 54.4 321.345 54.7C322.078 54.9667 322.862 55.1 323.695 55.1ZM342.596 60V20.55H349.446V42.55L349.396 41.7C350.163 40.3333 351.246 39.2333 352.646 38.4C354.046 37.5333 355.763 37.1 357.796 37.1C359.863 37.1 361.579 37.7167 362.946 38.95C364.346 40.15 365.063 41.7167 365.096 43.65V60H358.096V46.25C358.063 45.2833 357.796 44.5167 357.296 43.95C356.829 43.35 356.029 43.05 354.896 43.05C353.829 43.05 352.896 43.4 352.096 44.1C351.296 44.8 350.679 45.75 350.246 46.95C349.813 48.15 349.596 49.5333 349.596 51.1V60H342.596ZM372.284 38.15H379.284V60H372.284V38.15ZM372.134 30.4C372.134 29.3667 372.534 28.5167 373.334 27.85C374.167 27.1833 375.05 26.85 375.984 26.85C376.917 26.85 377.767 27.1833 378.534 27.85C379.334 28.5167 379.734 29.3667 379.734 30.4C379.734 31.4333 379.334 32.2833 378.534 32.95C377.767 33.5833 376.917 33.9 375.984 33.9C375.05 33.9 374.167 33.5833 373.334 32.95C372.534 32.2833 372.134 31.4333 372.134 30.4ZM386.493 20.55H393.493V60H386.493V20.55ZM400.702 38.15H407.702V60H400.702V38.15ZM400.552 30.4C400.552 29.3667 400.952 28.5167 401.752 27.85C402.585 27.1833 403.468 26.85 404.402 26.85C405.335 26.85 406.185 27.1833 406.952 27.85C407.752 28.5167 408.152 29.3667 408.152 30.4C408.152 31.4333 407.752 32.2833 406.952 32.95C406.185 33.5833 405.335 33.9 404.402 33.9C403.468 33.9 402.585 33.5833 401.752 32.95C400.952 32.2833 400.552 31.4333 400.552 30.4ZM424.111 60.6C422.077 60.6 420.227 60.2 418.561 59.4C416.927 58.5667 415.627 57.3 414.661 55.6C413.694 53.9 413.211 51.7333 413.211 49.1C413.211 46.6333 413.711 44.5 414.711 42.7C415.711 40.9 417.027 39.5167 418.661 38.55C420.294 37.55 422.027 37.05 423.861 37.05C426.027 37.05 427.661 37.4167 428.761 38.15C429.894 38.85 430.827 39.6333 431.561 40.5L431.261 41.35L431.911 38.15H438.411V60H431.411V55.25L431.961 56.75C431.894 56.75 431.694 56.95 431.361 57.35C431.027 57.7167 430.527 58.1667 429.861 58.7C429.227 59.2 428.427 59.6333 427.461 60C426.527 60.4 425.411 60.6 424.111 60.6ZM426.111 54.9C426.944 54.9 427.694 54.7833 428.361 54.55C429.027 54.2833 429.611 53.9167 430.111 53.45C430.611 52.95 431.044 52.3333 431.411 51.6V46.25C431.144 45.5167 430.744 44.9 430.211 44.4C429.677 43.8667 429.044 43.4667 428.311 43.2C427.577 42.9 426.761 42.75 425.861 42.75C424.861 42.75 423.927 43.0167 423.061 43.55C422.227 44.05 421.561 44.75 421.061 45.65C420.561 46.55 420.311 47.5833 420.311 48.75C420.311 49.9167 420.577 50.9667 421.111 51.9C421.644 52.8333 422.344 53.5667 423.211 54.1C424.111 54.6333 425.077 54.9 426.111 54.9Z" fill="#060606"/>
</g>
<g filter="url(#filter5_d_107_159)">
<path d="M189.52 85.68C188.4 85.0667 187.253 84.56 186.08 84.16C184.933 83.76 183.853 83.56 182.84 83.56C181.587 83.56 180.6 83.8133 179.88 84.32C179.16 84.8267 178.8 85.5867 178.8 86.6C178.8 87.2933 179.067 87.92 179.6 88.48C180.16 89.0133 180.867 89.4933 181.72 89.92C182.6 90.3467 183.507 90.7333 184.44 91.08C185.293 91.4 186.133 91.7867 186.96 92.24C187.813 92.6667 188.573 93.2133 189.24 93.88C189.907 94.52 190.44 95.3333 190.84 96.32C191.24 97.28 191.44 98.4667 191.44 99.88C191.44 101.373 191.053 102.76 190.28 104.04C189.507 105.32 188.373 106.36 186.88 107.16C185.387 107.933 183.547 108.32 181.36 108.32C180.24 108.32 179.093 108.213 177.92 108C176.773 107.76 175.64 107.413 174.52 106.96C173.4 106.48 172.32 105.88 171.28 105.16L173.84 100.64C174.533 101.147 175.28 101.6 176.08 102C176.907 102.373 177.733 102.667 178.56 102.88C179.387 103.093 180.147 103.2 180.84 103.2C181.533 103.2 182.227 103.107 182.92 102.92C183.64 102.707 184.227 102.36 184.68 101.88C185.16 101.4 185.4 100.733 185.4 99.88C185.4 99.2933 185.2 98.76 184.8 98.28C184.427 97.8 183.907 97.36 183.24 96.96C182.6 96.56 181.893 96.2133 181.12 95.92C180.213 95.5733 179.28 95.1733 178.32 94.72C177.36 94.2667 176.453 93.72 175.6 93.08C174.773 92.4133 174.093 91.6 173.56 90.64C173.053 89.6533 172.8 88.4533 172.8 87.04C172.8 85.3333 173.173 83.8533 173.92 82.6C174.693 81.3467 175.773 80.36 177.16 79.64C178.547 78.8933 180.147 78.48 181.96 78.4C184.333 78.4 186.253 78.68 187.72 79.24C189.213 79.8 190.547 80.4667 191.72 81.24L189.52 85.68ZM194.84 99.04C194.84 97.2533 195.254 95.6533 196.08 94.24C196.934 92.8267 198.12 91.72 199.64 90.92C201.16 90.0933 202.907 89.68 204.88 89.68C206.88 89.68 208.614 90.0933 210.08 90.92C211.547 91.72 212.667 92.8267 213.44 94.24C214.24 95.6533 214.64 97.2533 214.64 99.04C214.64 100.827 214.24 102.44 213.44 103.88C212.667 105.293 211.547 106.413 210.08 107.24C208.614 108.067 206.854 108.48 204.8 108.48C202.88 108.48 201.16 108.107 199.64 107.36C198.147 106.613 196.974 105.533 196.12 104.12C195.267 102.707 194.84 101.013 194.84 99.04ZM200.48 99.08C200.48 99.9867 200.667 100.813 201.04 101.56C201.414 102.28 201.92 102.853 202.56 103.28C203.2 103.707 203.92 103.92 204.72 103.92C205.6 103.92 206.36 103.707 207 103.28C207.64 102.853 208.134 102.28 208.48 101.56C208.827 100.813 209 99.9867 209 99.08C209 98.1467 208.827 97.32 208.48 96.6C208.134 95.88 207.64 95.3067 207 94.88C206.36 94.4533 205.6 94.24 204.72 94.24C203.92 94.24 203.2 94.4533 202.56 94.88C201.92 95.3067 201.414 95.88 201.04 96.6C200.667 97.32 200.48 98.1467 200.48 99.08ZM233.892 106.44C233.119 107.053 232.145 107.547 230.972 107.92C229.825 108.293 228.692 108.48 227.572 108.48C225.572 108.48 223.825 108.12 222.332 107.4C220.865 106.653 219.719 105.6 218.892 104.24C218.092 102.853 217.692 101.187 217.692 99.24C217.692 97.2933 218.132 95.64 219.012 94.28C219.892 92.8933 221.039 91.84 222.452 91.12C223.892 90.4 225.399 90.04 226.972 90.04C228.545 90.04 229.905 90.2533 231.052 90.68C232.225 91.1067 233.225 91.6667 234.052 92.36L231.332 95.96C230.959 95.6667 230.439 95.3733 229.772 95.08C229.132 94.76 228.372 94.6 227.492 94.6C226.719 94.6 226.012 94.8 225.372 95.2C224.732 95.6 224.225 96.1467 223.852 96.84C223.479 97.5333 223.292 98.3333 223.292 99.24C223.292 100.093 223.492 100.88 223.892 101.6C224.292 102.32 224.839 102.893 225.532 103.32C226.252 103.72 227.092 103.92 228.052 103.92C228.665 103.92 229.225 103.84 229.732 103.68C230.265 103.493 230.719 103.24 231.092 102.92L233.892 106.44ZM238.193 90.52H243.793V108H238.193V90.52ZM238.073 84.32C238.073 83.4933 238.393 82.8133 239.033 82.28C239.699 81.7467 240.406 81.48 241.153 81.48C241.899 81.48 242.579 81.7467 243.193 82.28C243.833 82.8133 244.153 83.4933 244.153 84.32C244.153 85.1467 243.833 85.8267 243.193 86.36C242.579 86.8667 241.899 87.12 241.153 87.12C240.406 87.12 239.699 86.8667 239.033 86.36C238.393 85.8267 238.073 85.1467 238.073 84.32ZM258.16 108.48C256.026 108.48 254.213 108.08 252.72 107.28C251.253 106.48 250.133 105.373 249.36 103.96C248.586 102.547 248.2 100.92 248.2 99.08C248.2 97.32 248.653 95.7333 249.56 94.32C250.466 92.9067 251.68 91.7867 253.2 90.96C254.72 90.1067 256.413 89.68 258.28 89.68C260.786 89.68 262.84 90.4133 264.44 91.88C266.066 93.32 267.12 95.4133 267.6 98.16L254 102.48L252.76 99.44L262.6 96.12L261.44 96.64C261.226 95.9467 260.84 95.3467 260.28 94.84C259.746 94.3067 258.933 94.04 257.84 94.04C257.013 94.04 256.28 94.24 255.64 94.64C255.026 95.0133 254.546 95.56 254.2 96.28C253.88 96.9733 253.72 97.8 253.72 98.76C253.72 99.8533 253.92 100.773 254.32 101.52C254.72 102.24 255.266 102.787 255.96 103.16C256.653 103.533 257.426 103.72 258.28 103.72C258.893 103.72 259.48 103.613 260.04 103.4C260.626 103.187 261.2 102.907 261.76 102.56L264.24 106.72C263.306 107.253 262.293 107.68 261.2 108C260.133 108.32 259.12 108.48 258.16 108.48ZM273.309 82.84H278.909V90.44H283.149V94.8H278.909V108H273.309V94.8H270.589V90.44H273.309V82.84ZM288.811 116.4L300.451 90.52H305.491L294.211 116.4H288.811ZM293.491 108.08L284.931 90.52H291.211L297.811 105.28L293.491 108.08Z" fill="#050505"/>
</g>
<g filter="url(#filter6_d_107_159)">
<path d="M339.144 109.08L319.056 90.936L320.604 91.8L320.712 108H315.42V80.46H315.636L335.292 98.532L334.14 98.028L334.032 81.504H339.288V109.08H339.144ZM351.907 108.432C350.443 108.432 349.111 108.144 347.911 107.568C346.735 106.968 345.799 106.056 345.103 104.832C344.407 103.608 344.059 102.048 344.059 100.152C344.059 98.376 344.419 96.84 345.139 95.544C345.859 94.248 346.807 93.252 347.983 92.556C349.159 91.836 350.407 91.476 351.727 91.476C353.287 91.476 354.463 91.74 355.255 92.268C356.071 92.772 356.743 93.336 357.271 93.96L357.055 94.572L357.523 92.268H362.203V108H357.163V104.58L357.559 105.66C357.511 105.66 357.367 105.804 357.127 106.092C356.887 106.356 356.527 106.68 356.047 107.064C355.591 107.424 355.015 107.736 354.319 108C353.647 108.288 352.843 108.432 351.907 108.432ZM353.347 104.328C353.947 104.328 354.487 104.244 354.967 104.076C355.447 103.884 355.867 103.62 356.227 103.284C356.587 102.924 356.899 102.48 357.163 101.952V98.1C356.971 97.572 356.683 97.128 356.299 96.768C355.915 96.384 355.459 96.096 354.931 95.904C354.403 95.688 353.815 95.58 353.167 95.58C352.447 95.58 351.775 95.772 351.151 96.156C350.551 96.516 350.071 97.02 349.711 97.668C349.351 98.316 349.171 99.06 349.171 99.9C349.171 100.74 349.363 101.496 349.747 102.168C350.131 102.84 350.635 103.368 351.259 103.752C351.907 104.136 352.603 104.328 353.347 104.328ZM375.533 115.92C374.117 115.92 372.917 115.752 371.933 115.416C370.973 115.08 370.157 114.672 369.485 114.192C368.813 113.712 368.213 113.256 367.685 112.824L370.637 109.368C371.189 109.872 371.825 110.352 372.545 110.808C373.289 111.288 374.261 111.528 375.461 111.528C376.253 111.528 376.985 111.384 377.657 111.096C378.353 110.832 378.905 110.436 379.313 109.908C379.745 109.38 379.961 108.72 379.961 107.928V104.472L380.141 105.372C379.757 106.188 379.061 106.908 378.053 107.532C377.045 108.132 375.725 108.432 374.093 108.432C372.677 108.432 371.357 108.072 370.133 107.352C368.933 106.608 367.973 105.612 367.253 104.364C366.533 103.092 366.173 101.652 366.173 100.044C366.173 98.388 366.557 96.924 367.325 95.652C368.093 94.356 369.089 93.336 370.313 92.592C371.537 91.848 372.833 91.476 374.201 91.476C375.569 91.476 376.745 91.68 377.729 92.088C378.737 92.472 379.493 92.952 379.997 93.528L379.817 93.996L380.357 92.268H385.001V108C385.001 109.536 384.569 110.892 383.705 112.068C382.841 113.268 381.689 114.204 380.249 114.876C378.833 115.572 377.261 115.92 375.533 115.92ZM371.249 99.9C371.249 100.74 371.441 101.496 371.825 102.168C372.209 102.84 372.725 103.368 373.373 103.752C374.045 104.136 374.789 104.328 375.605 104.328C376.301 104.328 376.913 104.244 377.441 104.076C377.993 103.884 378.473 103.62 378.881 103.284C379.313 102.924 379.673 102.48 379.961 101.952V98.1C379.745 97.572 379.421 97.128 378.989 96.768C378.557 96.384 378.053 96.096 377.477 95.904C376.925 95.688 376.301 95.58 375.605 95.58C374.789 95.58 374.045 95.772 373.373 96.156C372.725 96.516 372.209 97.02 371.825 97.668C371.441 98.316 371.249 99.06 371.249 99.9ZM400.042 108.432C399.106 108.432 398.182 108.264 397.27 107.928C396.382 107.568 395.638 107.064 395.038 106.416L395.182 104.94V115.56H390.178V91.908H394.498L395.218 94.968L394.822 93.888C395.638 93.192 396.55 92.616 397.558 92.16C398.566 91.704 399.73 91.476 401.05 91.476C402.514 91.476 403.822 91.824 404.974 92.52C406.126 93.192 407.026 94.176 407.674 95.472C408.346 96.744 408.682 98.28 408.682 100.08C408.682 101.856 408.31 103.368 407.566 104.616C406.822 105.864 405.802 106.812 404.506 107.46C403.21 108.108 401.722 108.432 400.042 108.432ZM399.034 104.472C399.85 104.472 400.594 104.292 401.266 103.932C401.962 103.572 402.514 103.068 402.922 102.42C403.354 101.748 403.57 100.992 403.57 100.152C403.57 99.264 403.378 98.496 402.994 97.848C402.634 97.176 402.13 96.66 401.482 96.3C400.858 95.916 400.162 95.724 399.394 95.724C398.722 95.724 398.122 95.82 397.594 96.012C397.09 96.18 396.634 96.444 396.226 96.804C395.842 97.14 395.506 97.572 395.218 98.1V101.952C395.41 102.456 395.686 102.9 396.046 103.284C396.406 103.668 396.838 103.968 397.342 104.184C397.87 104.376 398.434 104.472 399.034 104.472ZM417.719 108.756C416.303 108.756 415.115 108.324 414.155 107.46C413.195 106.572 412.691 105.432 412.643 104.04V92.268H417.683V102.168C417.731 102.864 417.911 103.428 418.223 103.86C418.535 104.268 419.063 104.472 419.807 104.472C420.551 104.472 421.187 104.22 421.715 103.716C422.267 103.212 422.687 102.528 422.975 101.664C423.287 100.776 423.443 99.78 423.443 98.676V92.268H428.483V108H423.911L423.515 105.12L423.587 105.444C423.227 106.092 422.771 106.668 422.219 107.172C421.667 107.676 421.007 108.06 420.239 108.324C419.495 108.612 418.655 108.756 417.719 108.756ZM438.202 92.268L438.67 96.588L438.562 95.94C439.018 95.004 439.642 94.212 440.434 93.564C441.226 92.892 442.006 92.376 442.774 92.016C443.566 91.656 444.166 91.476 444.574 91.476L444.322 96.516C443.146 96.372 442.138 96.564 441.298 97.092C440.458 97.62 439.81 98.316 439.354 99.18C438.898 100.044 438.67 100.932 438.67 101.844V108H433.666V92.268H438.202Z" fill="#FE5019"/>
</g>
<g filter="url(#filter7_d_107_159)">
<path d="M156 12L156 133" stroke="#FE5019" stroke-width="7" stroke-linecap="round"/>
</g>
<defs>
<filter id="filter0_d_107_159" x="49.5605" y="16.6353" width="102.772" height="126.276" filterUnits="userSpaceOnUse" color-interpolation-filters="sRGB">
<feFlood flood-opacity="0" result="BackgroundImageFix"/>
<feColorMatrix in="SourceAlpha" type="matrix" values="0 0 0 0 0 0 0 0 0 0 0 0 0 0 0 0 0 0 127 0" result="hardAlpha"/>
<feOffset dy="4"/>
<feGaussianBlur stdDeviation="2"/>
<feComposite in2="hardAlpha" operator="out"/>
<feColorMatrix type="matrix" values="0 0 0 0 0 0 0 0 0 0 0 0 0 0 0 0 0 0 0.25 0"/>
<feBlend mode="normal" in2="BackgroundImageFix" result="effect1_dropShadow_107_159"/>
<feBlend mode="normal" in="SourceGraphic" in2="effect1_dropShadow_107_159" result="shape"/>
</filter>
<filter id="filter1_d_107_159" x="0.26709" y="15.083" width="96.2451" height="128" filterUnits="userSpaceOnUse" color-interpolation-filters="sRGB">
<feFlood flood-opacity="0" result="BackgroundImageFix"/>
<feColorMatrix in="SourceAlpha" type="matrix" values="0 0 0 0 0 0 0 0 0 0 0 0 0 0 0 0 0 0 127 0" result="hardAlpha"/>
<feOffset dy="4"/>
<feGaussianBlur stdDeviation="2"/>
<feComposite in2="hardAlpha" operator="out"/>
<feColorMatrix type="matrix" values="0 0 0 0 0 0 0 0 0 0 0 0 0 0 0 0 0 0 0.25 0"/>
<feBlend mode="normal" in2="BackgroundImageFix" result="effect1_dropShadow_107_159"/>
<feBlend mode="normal" in="SourceGraphic" in2="effect1_dropShadow_107_159" result="shape"/>
</filter>
<filter id="filter2_d_107_159" x="29.4839" y="6.58496" width="35.7017" height="42.917" filterUnits="userSpaceOnUse" color-interpolation-filters="sRGB">
<feFlood flood-opacity="0" result="BackgroundImageFix"/>
<feColorMatrix in="SourceAlpha" type="matrix" values="0 0 0 0 0 0 0 0 0 0 0 0 0 0 0 0 0 0 127 0" result="hardAlpha"/>
<feOffset dy="4"/>
<feGaussianBlur stdDeviation="2"/>
<feComposite in2="hardAlpha" operator="out"/>
<feColorMatrix type="matrix" values="0 0 0 0 0 0 0 0 0 0 0 0 0 0 0 0 0 0 0.25 0"/>
<feBlend mode="normal" in2="BackgroundImageFix" result="effect1_dropShadow_107_159"/>
<feBlend mode="normal" in="SourceGraphic" in2="effect1_dropShadow_107_159" result="shape"/>
</filter>
<filter id="filter3_d_107_159" x="82.4106" y="7.6416" width="35.5215" height="43.0676" filterUnits="userSpaceOnUse" color-interpolation-filters="sRGB">
<feFlood flood-opacity="0" result="BackgroundImageFix"/>
<feColorMatrix in="SourceAlpha" type="matrix" values="0 0 0 0 0 0 0 0 0 0 0 0 0 0 0 0 0 0 127 0" result="hardAlpha"/>
<feOffset dy="4"/>
<feGaussianBlur stdDeviation="2"/>
<feComposite in2="hardAlpha" operator="out"/>
<feColorMatrix type="matrix" values="0 0 0 0 0 0 0 0 0 0 0 0 0 0 0 0 0 0 0.25 0"/>
<feBlend mode="normal" in2="BackgroundImageFix" result="effect1_dropShadow_107_159"/>
<feBlend mode="normal" in="SourceGraphic" in2="effect1_dropShadow_107_159" result="shape"/>
</filter>
<filter id="filter4_d_107_159" x="168.75" y="20.55" width="273.661" height="57.95" filterUnits="userSpaceOnUse" color-interpolation-filters="sRGB">
<feFlood flood-opacity="0" result="BackgroundImageFix"/>
<feColorMatrix in="SourceAlpha" type="matrix" values="0 0 0 0 0 0 0 0 0 0 0 0 0 0 0 0 0 0 127 0" result="hardAlpha"/>
<feOffset dy="4"/>
<feGaussianBlur stdDeviation="2"/>
<feComposite in2="hardAlpha" operator="out"/>
<feColorMatrix type="matrix" values="0 0 0 0 0 0 0 0 0 0 0 0 0 0 0 0 0 0 0.25 0"/>
<feBlend mode="normal" in2="BackgroundImageFix" result="effect1_dropShadow_107_159"/>
<feBlend mode="normal" in="SourceGraphic" in2="effect1_dropShadow_107_159" result="shape"/>
</filter>
<filter id="filter5_d_107_159" x="167.28" y="78.3999" width="142.211" height="46" filterUnits="userSpaceOnUse" color-interpolation-filters="sRGB">
<feFlood flood-opacity="0" result="BackgroundImageFix"/>
<feColorMatrix in="SourceAlpha" type="matrix" values="0 0 0 0 0 0 0 0 0 0 0 0 0 0 0 0 0 0 127 0" result="hardAlpha"/>
<feOffset dy="4"/>
<feGaussianBlur stdDeviation="2"/>
<feComposite in2="hardAlpha" operator="out"/>
<feColorMatrix type="matrix" values="0 0 0 0 0 0 0 0 0 0 0 0 0 0 0 0 0 0 0.25 0"/>
<feBlend mode="normal" in2="BackgroundImageFix" result="effect1_dropShadow_107_159"/>
<feBlend mode="normal" in="SourceGraphic" in2="effect1_dropShadow_107_159" result="shape"/>
</filter>
<filter id="filter6_d_107_159" x="311.42" y="80.46" width="137.154" height="43.46" filterUnits="userSpaceOnUse" color-interpolation-filters="sRGB">
<feFlood flood-opacity="0" result="BackgroundImageFix"/>
<feColorMatrix in="SourceAlpha" type="matrix" values="0 0 0 0 0 0 0 0 0 0 0 0 0 0 0 0 0 0 127 0" result="hardAlpha"/>
<feOffset dy="4"/>
<feGaussianBlur stdDeviation="2"/>
<feComposite in2="hardAlpha" operator="out"/>
<feColorMatrix type="matrix" values="0 0 0 0 0 0 0 0 0 0 0 0 0 0 0 0 0 0 0.25 0"/>
<feBlend mode="normal" in2="BackgroundImageFix" result="effect1_dropShadow_107_159"/>
<feBlend mode="normal" in="SourceGraphic" in2="effect1_dropShadow_107_159" result="shape"/>
</filter>
<filter id="filter7_d_107_159" x="148.5" y="8.5" width="15" height="136" filterUnits="userSpaceOnUse" color-interpolation-filters="sRGB">
<feFlood flood-opacity="0" result="BackgroundImageFix"/>
<feColorMatrix in="SourceAlpha" type="matrix" values="0 0 0 0 0 0 0 0 0 0 0 0 0 0 0 0 0 0 127 0" result="hardAlpha"/>
<feOffset dy="4"/>
<feGaussianBlur stdDeviation="2"/>
<feComposite in2="hardAlpha" operator="out"/>
<feColorMatrix type="matrix" values="0 0 0 0 0 0 0 0 0 0 0 0 0 0 0 0 0 0 0.25 0"/>
<feBlend mode="normal" in2="BackgroundImageFix" result="effect1_dropShadow_107_159"/>
<feBlend mode="normal" in="SourceGraphic" in2="effect1_dropShadow_107_159" result="shape"/>
</filter>
</defs>
</svg>
