<svg width="466" height="144" viewBox="0 0 466 144" fill="none" xmlns="http://www.w3.org/2000/svg">
<g id="logoorange">
<g id="Group 13">
<g id="body white" filter="url(#filter0_d_108_160)">
<path d="M148.333 16.6353C148.333 16.6353 113.128 46.5487 97.7191 45.6299C82.3104 44.7111 71.708 27.3993 67.0076 22.1734C62.3073 16.9476 85.3654 52.6932 83.8627 71.1297C82.3601 89.5662 53.5606 120.492 53.5606 120.492C53.5606 120.492 78.0509 98.2225 96.6921 101.571C115.333 104.919 149.973 146.109 139.391 131.965C128.808 117.821 109.576 95.6976 111.518 73.1211C113.459 50.5445 148.333 16.6353 148.333 16.6353Z" fill="white"/>
<path d="M130.262 36.1013C134.648 30.5702 138.976 25.7149 142.255 22.1947C138.772 24.9232 134.144 28.4185 129.087 31.8894C123.714 35.5778 117.846 39.2459 112.348 41.9362C106.871 44.6161 101.68 46.367 97.6894 46.129C89.8043 45.6588 83.1918 40.9994 77.9966 35.8727C75.394 33.3045 73.1323 30.6043 71.2318 28.2261C70.6025 27.4386 70.0157 26.6903 69.4701 25.9945C68.9194 25.2923 68.4108 24.6437 67.9429 24.0624C68.0587 24.2931 68.1829 24.5387 68.3153 24.7989C68.6103 25.379 68.9425 26.0259 69.3052 26.7323C70.7542 29.5541 72.6898 33.3238 74.6884 37.565C77.1873 42.8681 79.7919 48.9235 81.6783 54.815C83.5612 60.6958 84.7448 66.4621 84.3611 71.1703C83.9771 75.8811 81.8577 81.3427 78.9359 86.8546C76.0089 92.3761 72.2528 97.9919 68.5508 103.021C64.8478 108.051 61.1929 112.503 58.4641 115.697C58.3582 115.82 58.2538 115.942 58.1507 116.063C60.6794 114.109 64.0378 111.687 67.8758 109.349C72.122 106.762 76.9667 104.272 81.9323 102.64C86.895 101.008 92.0096 100.222 96.7805 101.079C101.559 101.937 107.297 105.199 113.008 109.316C118.736 113.444 124.5 118.481 129.34 122.96C132.458 125.846 135.22 128.529 137.329 130.576C137.853 131.085 138.337 131.555 138.776 131.979C137.729 130.583 136.598 129.109 135.412 127.564C130.645 121.348 124.993 113.979 120.325 105.957C114.417 95.8012 110.035 84.5177 111.019 73.0782C111.514 67.3304 114.097 60.9049 117.652 54.5272C121.213 48.1414 125.772 41.763 130.262 36.1013Z" stroke="#5E5C5C"/>
</g>
<g id="body red" filter="url(#filter1_d_108_160)">
<path d="M5 15.8032C5 15.8032 36.3552 45.999 50.1478 45.2044C57.7458 44.7667 64.0632 39.3426 68.9126 33.6915C72.8661 29.0844 75.8439 24.3264 77.7444 21.9965C81.9761 16.8087 62.324 49.5101 63.8209 71.531C65.3177 93.552 91.8031 120.182 91.8031 120.182C91.8031 120.182 67.8772 98.8331 50.7917 101.151C33.7063 103.469 2.89586 145.257 12.4348 131.2C21.9737 117.142 38.9849 93.4716 38.7456 72.6768C38.5062 51.882 5 15.8032 5 15.8032Z" fill="#D20F00"/>
<path d="M5 15.8032L5.34683 15.4431L4.63363 16.1435L5 15.8032ZM5 15.8032C5.34683 15.4431 5.34691 15.4431 5.34711 15.4433L5.3481 15.4443L5.35222 15.4483L5.36895 15.4643L5.43585 15.5284C5.49513 15.585 5.58353 15.6693 5.69955 15.7793C5.93158 15.9994 6.27409 16.3223 6.71512 16.7334C7.59721 17.5554 8.87329 18.7294 10.4479 20.136C13.5976 22.9497 17.9391 26.6915 22.709 30.4073C27.4811 34.1249 32.6708 37.8075 37.5181 40.5089C42.3903 43.2242 46.8257 44.895 50.119 44.7052C57.4999 44.28 63.6991 38.9992 68.5332 33.3659C70.4958 31.0788 72.2187 28.7513 73.6922 26.6985C74.0562 26.1914 74.4061 25.6994 74.7412 25.2282C75.7547 23.8029 76.633 22.5679 77.3569 21.6804C77.493 21.5136 77.6123 21.3759 77.7137 21.2714C77.7971 21.1855 77.9216 21.0641 78.0634 21.0001C78.1264 20.9717 78.3389 20.8879 78.5656 21.0155C78.7963 21.1453 78.8323 21.3751 78.8394 21.4466C78.855 21.6023 78.81 21.769 78.7794 21.8732C78.6372 22.3573 78.2021 23.3366 77.5984 24.6587C77.4254 25.0375 77.2369 25.448 77.0347 25.8882C75.8042 28.5677 74.0693 32.3451 72.2711 36.7495C68.0744 47.0283 63.5799 60.613 64.3197 71.4971C65.0579 82.3564 71.9763 94.4199 78.7784 103.821C82.1708 108.51 85.5175 112.514 88.0163 115.346C89.2654 116.762 90.3021 117.884 91.0259 118.652C91.3878 119.035 91.6714 119.331 91.8642 119.529C91.9606 119.629 92.0343 119.704 92.0837 119.754L92.1394 119.811L92.1533 119.825L92.1566 119.828L92.1574 119.829C92.1575 119.829 92.1576 119.829 91.8031 120.182M5 15.8032C4.63363 16.1435 4.63371 16.1436 4.63391 16.1438L4.63497 16.1449L4.63935 16.1496L4.65715 16.1689L4.72821 16.2459C4.79108 16.3143 4.88463 16.4162 5.00681 16.5503C5.25116 16.8184 5.61004 17.2148 6.06714 17.727C6.98136 18.7514 8.28836 20.2388 9.8578 22.0889C12.9971 25.7896 17.1844 30.9389 21.3779 36.735C25.5727 42.5329 29.7669 48.9684 32.9253 55.2423C36.0893 61.5275 38.1871 67.599 38.2456 72.6826C38.3638 82.9544 34.2175 93.981 28.8147 104.231C24.025 113.319 18.2759 121.746 13.7046 128.447C13.1229 129.299 12.5602 130.124 12.021 130.919C11.4243 131.798 10.9819 132.464 10.6832 132.937C10.5341 133.173 10.4172 133.367 10.3338 133.517C10.2922 133.592 10.2558 133.662 10.2272 133.725C10.2025 133.78 10.1683 133.861 10.152 133.948C10.1446 133.987 10.1301 134.08 10.1574 134.189C10.1917 134.327 10.2971 134.493 10.502 134.558C10.6592 134.609 10.7909 134.569 10.8372 134.554C10.896 134.534 10.9432 134.507 10.9727 134.489C11.0798 134.424 11.2017 134.314 11.314 134.207C11.558 133.973 11.917 133.592 12.3696 133.099C12.8348 132.592 13.4078 131.956 14.0749 131.216C16.0226 129.055 18.773 126.003 21.9893 122.663C26.3057 118.18 31.442 113.198 36.5573 109.195C41.6928 105.176 46.7306 102.207 50.8589 101.646C55.0193 101.082 59.6317 101.956 64.238 103.617C68.8396 105.277 73.3995 107.709 77.4404 110.222C81.4796 112.734 84.9892 115.319 87.4894 117.276C88.7392 118.255 89.7359 119.076 90.4195 119.651C90.7613 119.939 91.0247 120.166 91.2024 120.32C91.2224 120.338 91.2414 120.354 91.2592 120.37C91.3204 120.423 91.3687 120.465 91.4035 120.496L91.454 120.541L91.4664 120.552L91.4694 120.554L91.47 120.555C91.4701 120.555 91.4702 120.555 91.8031 120.182M91.8031 120.182L92.1576 119.829L91.4702 120.555L91.8031 120.182Z" stroke="#312F2F"/>
</g>
<g id="red face">
<g id="Ellipse 1" filter="url(#filter2_d_108_160)">
<ellipse rx="13.5967" ry="17.6533" transform="matrix(0.990999 -0.133867 0.180937 0.983495 47.3349 24.0435)" fill="#D20F00"/>
<path d="M60.3137 22.2902C62.0512 31.7345 57.4941 39.9605 50.4386 40.9136C43.3831 41.8667 36.0936 35.2409 34.3561 25.7967C32.6187 16.3525 37.1758 8.12639 44.2312 7.17331C51.2867 6.22024 58.5762 12.846 60.3137 22.2902Z" stroke="#353434"/>
</g>
<path id="Polygon 3" d="M50.2332 35.6442C52.8964 34.95 55.0024 31.0258 55.0024 31.0258C55.0024 31.0258 52.3944 33.3116 50.0487 34.3461C47.7031 35.3806 43.3582 34.1234 43.3582 34.1234C43.3582 34.1234 47.2756 36.415 50.2332 35.6442Z" fill="#671009"/>
</g>
<g id="white face">
<g id="face white" filter="url(#filter3_d_108_160)">
<ellipse rx="13.5968" ry="17.6542" transform="matrix(-0.948446 -0.316939 -0.271384 0.962471 100.171 25.1755)" fill="white"/>
<path d="M87.7499 21.0246C85.1437 30.2674 88.7635 39.4294 95.5161 41.6859C102.269 43.9424 109.987 38.5692 112.593 29.3264C115.199 20.0835 111.579 10.9215 104.827 8.66504C98.0743 6.40856 90.3561 11.7817 87.7499 21.0246Z" stroke="#5E5C5C"/>
</g>
<path id="Polygon 2" d="M96.9099 35.4845C99.5495 36.2654 103.784 33.9295 103.784 33.9295C103.784 33.9295 99.7118 34.8425 97.2598 34.1448C94.9743 33.4946 92.1234 30.8839 92.1234 30.8839C92.1234 30.8839 94.4231 34.7489 96.9099 35.4845Z" fill="#C4C4C4"/>
</g>
</g>
<g id="Hemophilia" filter="url(#filter4_d_108_160)">
<path d="M185.7 25.2V62H178.45V47.05H162V62H154.75V25.2H162V40.05H178.45V25.2H185.7ZM204.78 62.6C202.113 62.6 199.846 62.1 197.98 61.1C196.146 60.1 194.746 58.7167 193.78 56.95C192.813 55.1833 192.33 53.15 192.33 50.85C192.33 48.65 192.896 46.6667 194.03 44.9C195.163 43.1333 196.68 41.7333 198.58 40.7C200.48 39.6333 202.596 39.1 204.93 39.1C208.063 39.1 210.63 40.0167 212.63 41.85C214.663 43.65 215.98 46.2667 216.58 49.7L199.58 55.1L198.03 51.3L210.33 47.15L208.88 47.8C208.613 46.9333 208.13 46.1833 207.43 45.55C206.763 44.8833 205.746 44.55 204.38 44.55C203.346 44.55 202.43 44.8 201.63 45.3C200.863 45.7667 200.263 46.45 199.83 47.35C199.43 48.2167 199.23 49.25 199.23 50.45C199.23 51.8167 199.48 52.9667 199.98 53.9C200.48 54.8 201.163 55.4833 202.03 55.95C202.896 56.4167 203.863 56.65 204.93 56.65C205.696 56.65 206.43 56.5167 207.13 56.25C207.863 55.9833 208.58 55.6333 209.28 55.2L212.38 60.4C211.213 61.0667 209.946 61.6 208.58 62C207.246 62.4 205.98 62.6 204.78 62.6ZM228.016 40.15L228.566 44L228.466 43.7C229.333 42.2333 230.416 41.1 231.716 40.3C233.016 39.4667 234.583 39.05 236.416 39.05C237.616 39.05 238.666 39.2167 239.566 39.55C240.5 39.8833 241.283 40.3833 241.916 41.05C242.55 41.6833 242.983 42.5167 243.216 43.55L242.966 43.6C243.9 42.2333 245.016 41.1333 246.316 40.3C247.65 39.4667 249.033 39.05 250.466 39.05C252.633 39.05 254.35 39.6667 255.616 40.9C256.916 42.1 257.583 43.6667 257.616 45.6V62H250.666V48.5C250.633 47.5333 250.483 46.75 250.216 46.15C249.95 45.5167 249.333 45.1667 248.366 45.1C247.233 45.1 246.266 45.5 245.466 46.3C244.7 47.0667 244.116 48.0667 243.716 49.3C243.35 50.5 243.166 51.75 243.166 53.05V62H236.166V48.5C236.133 47.5333 235.95 46.75 235.616 46.15C235.316 45.5167 234.683 45.1667 233.716 45.1C232.616 45.1 231.683 45.5 230.916 46.3C230.183 47.0667 229.616 48.05 229.216 49.25C228.85 50.45 228.666 51.6833 228.666 52.95V62H221.666V40.15H228.016ZM263.13 50.8C263.13 48.5667 263.647 46.5667 264.68 44.8C265.747 43.0333 267.23 41.65 269.13 40.65C271.03 39.6167 273.214 39.1 275.68 39.1C278.18 39.1 280.347 39.6167 282.18 40.65C284.014 41.65 285.414 43.0333 286.38 44.8C287.38 46.5667 287.88 48.5667 287.88 50.8C287.88 53.0333 287.38 55.05 286.38 56.85C285.414 58.6167 284.014 60.0167 282.18 61.05C280.347 62.0833 278.147 62.6 275.58 62.6C273.18 62.6 271.03 62.1333 269.13 61.2C267.264 60.2667 265.797 58.9167 264.73 57.15C263.664 55.3833 263.13 53.2667 263.13 50.8ZM270.18 50.85C270.18 51.9833 270.414 53.0167 270.88 53.95C271.347 54.85 271.98 55.5667 272.78 56.1C273.58 56.6333 274.48 56.9 275.48 56.9C276.58 56.9 277.53 56.6333 278.33 56.1C279.13 55.5667 279.747 54.85 280.18 53.95C280.614 53.0167 280.83 51.9833 280.83 50.85C280.83 49.6833 280.614 48.65 280.18 47.75C279.747 46.85 279.13 46.1333 278.33 45.6C277.53 45.0667 276.58 44.8 275.48 44.8C274.48 44.8 273.58 45.0667 272.78 45.6C271.98 46.1333 271.347 46.85 270.88 47.75C270.414 48.65 270.18 49.6833 270.18 50.85ZM307.095 62.6C305.795 62.6 304.512 62.3667 303.245 61.9C302.012 61.4 300.978 60.7 300.145 59.8L300.345 57.75V72.5H293.395V39.65H299.395L300.395 43.9L299.845 42.4C300.978 41.4333 302.245 40.6333 303.645 40C305.045 39.3667 306.662 39.05 308.495 39.05C310.528 39.05 312.345 39.5333 313.945 40.5C315.545 41.4333 316.795 42.8 317.695 44.6C318.628 46.3667 319.095 48.5 319.095 51C319.095 53.4667 318.578 55.5667 317.545 57.3C316.512 59.0333 315.095 60.35 313.295 61.25C311.495 62.15 309.428 62.6 307.095 62.6ZM305.695 57.1C306.828 57.1 307.862 56.85 308.795 56.35C309.762 55.85 310.528 55.15 311.095 54.25C311.695 53.3167 311.995 52.2667 311.995 51.1C311.995 49.8667 311.728 48.8 311.195 47.9C310.695 46.9667 309.995 46.25 309.095 45.75C308.228 45.2167 307.262 44.95 306.195 44.95C305.262 44.95 304.428 45.0833 303.695 45.35C302.995 45.5833 302.362 45.95 301.795 46.45C301.262 46.9167 300.795 47.5167 300.395 48.25V53.6C300.662 54.3 301.045 54.9167 301.545 55.45C302.045 55.9833 302.645 56.4 303.345 56.7C304.078 56.9667 304.862 57.1 305.695 57.1ZM324.596 62V22.55H331.446V44.55L331.396 43.7C332.163 42.3333 333.246 41.2333 334.646 40.4C336.046 39.5333 337.763 39.1 339.796 39.1C341.863 39.1 343.579 39.7167 344.946 40.95C346.346 42.15 347.063 43.7167 347.096 45.65V62H340.096V48.25C340.063 47.2833 339.796 46.5167 339.296 45.95C338.829 45.35 338.029 45.05 336.896 45.05C335.829 45.05 334.896 45.4 334.096 46.1C333.296 46.8 332.679 47.75 332.246 48.95C331.813 50.15 331.596 51.5333 331.596 53.1V62H324.596ZM354.284 40.15H361.284V62H354.284V40.15ZM354.134 32.4C354.134 31.3667 354.534 30.5167 355.334 29.85C356.167 29.1833 357.05 28.85 357.984 28.85C358.917 28.85 359.767 29.1833 360.534 29.85C361.334 30.5167 361.734 31.3667 361.734 32.4C361.734 33.4333 361.334 34.2833 360.534 34.95C359.767 35.5833 358.917 35.9 357.984 35.9C357.05 35.9 356.167 35.5833 355.334 34.95C354.534 34.2833 354.134 33.4333 354.134 32.4ZM368.493 22.55H375.493V62H368.493V22.55ZM382.702 40.15H389.702V62H382.702V40.15ZM382.552 32.4C382.552 31.3667 382.952 30.5167 383.752 29.85C384.585 29.1833 385.468 28.85 386.402 28.85C387.335 28.85 388.185 29.1833 388.952 29.85C389.752 30.5167 390.152 31.3667 390.152 32.4C390.152 33.4333 389.752 34.2833 388.952 34.95C388.185 35.5833 387.335 35.9 386.402 35.9C385.468 35.9 384.585 35.5833 383.752 34.95C382.952 34.2833 382.552 33.4333 382.552 32.4ZM406.111 62.6C404.077 62.6 402.227 62.2 400.561 61.4C398.927 60.5667 397.627 59.3 396.661 57.6C395.694 55.9 395.211 53.7333 395.211 51.1C395.211 48.6333 395.711 46.5 396.711 44.7C397.711 42.9 399.027 41.5167 400.661 40.55C402.294 39.55 404.027 39.05 405.861 39.05C408.027 39.05 409.661 39.4167 410.761 40.15C411.894 40.85 412.827 41.6333 413.561 42.5L413.261 43.35L413.911 40.15H420.411V62H413.411V57.25L413.961 58.75C413.894 58.75 413.694 58.95 413.361 59.35C413.027 59.7167 412.527 60.1667 411.861 60.7C411.227 61.2 410.427 61.6333 409.461 62C408.527 62.4 407.411 62.6 406.111 62.6ZM408.111 56.9C408.944 56.9 409.694 56.7833 410.361 56.55C411.027 56.2833 411.611 55.9167 412.111 55.45C412.611 54.95 413.044 54.3333 413.411 53.6V48.25C413.144 47.5167 412.744 46.9 412.211 46.4C411.677 45.8667 411.044 45.4667 410.311 45.2C409.577 44.9 408.761 44.75 407.861 44.75C406.861 44.75 405.927 45.0167 405.061 45.55C404.227 46.05 403.561 46.75 403.061 47.65C402.561 48.55 402.311 49.5833 402.311 50.75C402.311 51.9167 402.577 52.9667 403.111 53.9C403.644 54.8333 404.344 55.5667 405.211 56.1C406.111 56.6333 407.077 56.9 408.111 56.9Z" fill="#FE5019"/>
</g>
<g id="Society" filter="url(#filter5_d_108_160)">
<path d="M171.52 87.68C170.4 87.0667 169.253 86.56 168.08 86.16C166.933 85.76 165.853 85.56 164.84 85.56C163.587 85.56 162.6 85.8133 161.88 86.32C161.16 86.8267 160.8 87.5867 160.8 88.6C160.8 89.2933 161.067 89.92 161.6 90.48C162.16 91.0133 162.867 91.4933 163.72 91.92C164.6 92.3467 165.507 92.7333 166.44 93.08C167.293 93.4 168.133 93.7867 168.96 94.24C169.813 94.6667 170.573 95.2133 171.24 95.88C171.907 96.52 172.44 97.3333 172.84 98.32C173.24 99.28 173.44 100.467 173.44 101.88C173.44 103.373 173.053 104.76 172.28 106.04C171.507 107.32 170.373 108.36 168.88 109.16C167.387 109.933 165.547 110.32 163.36 110.32C162.24 110.32 161.093 110.213 159.92 110C158.773 109.76 157.64 109.413 156.52 108.96C155.4 108.48 154.32 107.88 153.28 107.16L155.84 102.64C156.533 103.147 157.28 103.6 158.08 104C158.907 104.373 159.733 104.667 160.56 104.88C161.387 105.093 162.147 105.2 162.84 105.2C163.533 105.2 164.227 105.107 164.92 104.92C165.64 104.707 166.227 104.36 166.68 103.88C167.16 103.4 167.4 102.733 167.4 101.88C167.4 101.293 167.2 100.76 166.8 100.28C166.427 99.8 165.907 99.36 165.24 98.96C164.6 98.56 163.893 98.2133 163.12 97.92C162.213 97.5733 161.28 97.1733 160.32 96.72C159.36 96.2667 158.453 95.72 157.6 95.08C156.773 94.4133 156.093 93.6 155.56 92.64C155.053 91.6533 154.8 90.4533 154.8 89.04C154.8 87.3333 155.173 85.8533 155.92 84.6C156.693 83.3467 157.773 82.36 159.16 81.64C160.547 80.8933 162.147 80.48 163.96 80.4C166.333 80.4 168.253 80.68 169.72 81.24C171.213 81.8 172.547 82.4667 173.72 83.24L171.52 87.68ZM176.84 101.04C176.84 99.2533 177.254 97.6533 178.08 96.24C178.934 94.8267 180.12 93.72 181.64 92.92C183.16 92.0933 184.907 91.68 186.88 91.68C188.88 91.68 190.614 92.0933 192.08 92.92C193.547 93.72 194.667 94.8267 195.44 96.24C196.24 97.6533 196.64 99.2533 196.64 101.04C196.64 102.827 196.24 104.44 195.44 105.88C194.667 107.293 193.547 108.413 192.08 109.24C190.614 110.067 188.854 110.48 186.8 110.48C184.88 110.48 183.16 110.107 181.64 109.36C180.147 108.613 178.974 107.533 178.12 106.12C177.267 104.707 176.84 103.013 176.84 101.04ZM182.48 101.08C182.48 101.987 182.667 102.813 183.04 103.56C183.414 104.28 183.92 104.853 184.56 105.28C185.2 105.707 185.92 105.92 186.72 105.92C187.6 105.92 188.36 105.707 189 105.28C189.64 104.853 190.134 104.28 190.48 103.56C190.827 102.813 191 101.987 191 101.08C191 100.147 190.827 99.32 190.48 98.6C190.134 97.88 189.64 97.3067 189 96.88C188.36 96.4533 187.6 96.24 186.72 96.24C185.92 96.24 185.2 96.4533 184.56 96.88C183.92 97.3067 183.414 97.88 183.04 98.6C182.667 99.32 182.48 100.147 182.48 101.08ZM215.892 108.44C215.119 109.053 214.145 109.547 212.972 109.92C211.825 110.293 210.692 110.48 209.572 110.48C207.572 110.48 205.825 110.12 204.332 109.4C202.865 108.653 201.719 107.6 200.892 106.24C200.092 104.853 199.692 103.187 199.692 101.24C199.692 99.2933 200.132 97.64 201.012 96.28C201.892 94.8933 203.039 93.84 204.452 93.12C205.892 92.4 207.399 92.04 208.972 92.04C210.545 92.04 211.905 92.2533 213.052 92.68C214.225 93.1067 215.225 93.6667 216.052 94.36L213.332 97.96C212.959 97.6667 212.439 97.3733 211.772 97.08C211.132 96.76 210.372 96.6 209.492 96.6C208.719 96.6 208.012 96.8 207.372 97.2C206.732 97.6 206.225 98.1467 205.852 98.84C205.479 99.5333 205.292 100.333 205.292 101.24C205.292 102.093 205.492 102.88 205.892 103.6C206.292 104.32 206.839 104.893 207.532 105.32C208.252 105.72 209.092 105.92 210.052 105.92C210.665 105.92 211.225 105.84 211.732 105.68C212.265 105.493 212.719 105.24 213.092 104.92L215.892 108.44ZM220.193 92.52H225.793V110H220.193V92.52ZM220.073 86.32C220.073 85.4933 220.393 84.8133 221.033 84.28C221.699 83.7467 222.406 83.48 223.153 83.48C223.899 83.48 224.579 83.7467 225.193 84.28C225.833 84.8133 226.153 85.4933 226.153 86.32C226.153 87.1467 225.833 87.8267 225.193 88.36C224.579 88.8667 223.899 89.12 223.153 89.12C222.406 89.12 221.699 88.8667 221.033 88.36C220.393 87.8267 220.073 87.1467 220.073 86.32ZM240.16 110.48C238.026 110.48 236.213 110.08 234.72 109.28C233.253 108.48 232.133 107.373 231.36 105.96C230.586 104.547 230.2 102.92 230.2 101.08C230.2 99.32 230.653 97.7333 231.56 96.32C232.466 94.9067 233.68 93.7867 235.2 92.96C236.72 92.1067 238.413 91.68 240.28 91.68C242.786 91.68 244.84 92.4133 246.44 93.88C248.066 95.32 249.12 97.4133 249.6 100.16L236 104.48L234.76 101.44L244.6 98.12L243.44 98.64C243.226 97.9467 242.84 97.3467 242.28 96.84C241.746 96.3067 240.933 96.04 239.84 96.04C239.013 96.04 238.28 96.24 237.64 96.64C237.026 97.0133 236.546 97.56 236.2 98.28C235.88 98.9733 235.72 99.8 235.72 100.76C235.72 101.853 235.92 102.773 236.32 103.52C236.72 104.24 237.266 104.787 237.96 105.16C238.653 105.533 239.426 105.72 240.28 105.72C240.893 105.72 241.48 105.613 242.04 105.4C242.626 105.187 243.2 104.907 243.76 104.56L246.24 108.72C245.306 109.253 244.293 109.68 243.2 110C242.133 110.32 241.12 110.48 240.16 110.48ZM255.309 84.84H260.909V92.44H265.149V96.8H260.909V110H255.309V96.8H252.589V92.44H255.309V84.84ZM270.811 118.4L282.451 92.52H287.491L276.211 118.4H270.811ZM275.491 110.08L266.931 92.52H273.211L279.811 107.28L275.491 110.08Z" fill="#FE5019"/>
</g>
<g id="Nagpur" filter="url(#filter6_d_108_160)">
<path d="M321.144 113.08L301.056 94.936L302.604 95.8L302.712 112H297.42V84.46H297.636L317.292 102.532L316.14 102.028L316.032 85.504H321.288V113.08H321.144ZM333.907 112.432C332.443 112.432 331.111 112.144 329.911 111.568C328.735 110.968 327.799 110.056 327.103 108.832C326.407 107.608 326.059 106.048 326.059 104.152C326.059 102.376 326.419 100.84 327.139 99.544C327.859 98.248 328.807 97.252 329.983 96.556C331.159 95.836 332.407 95.476 333.727 95.476C335.287 95.476 336.463 95.74 337.255 96.268C338.071 96.772 338.743 97.336 339.271 97.96L339.055 98.572L339.523 96.268H344.203V112H339.163V108.58L339.559 109.66C339.511 109.66 339.367 109.804 339.127 110.092C338.887 110.356 338.527 110.68 338.047 111.064C337.591 111.424 337.015 111.736 336.319 112C335.647 112.288 334.843 112.432 333.907 112.432ZM335.347 108.328C335.947 108.328 336.487 108.244 336.967 108.076C337.447 107.884 337.867 107.62 338.227 107.284C338.587 106.924 338.899 106.48 339.163 105.952V102.1C338.971 101.572 338.683 101.128 338.299 100.768C337.915 100.384 337.459 100.096 336.931 99.904C336.403 99.688 335.815 99.58 335.167 99.58C334.447 99.58 333.775 99.772 333.151 100.156C332.551 100.516 332.071 101.02 331.711 101.668C331.351 102.316 331.171 103.06 331.171 103.9C331.171 104.74 331.363 105.496 331.747 106.168C332.131 106.84 332.635 107.368 333.259 107.752C333.907 108.136 334.603 108.328 335.347 108.328ZM357.533 119.92C356.117 119.92 354.917 119.752 353.933 119.416C352.973 119.08 352.157 118.672 351.485 118.192C350.813 117.712 350.213 117.256 349.685 116.824L352.637 113.368C353.189 113.872 353.825 114.352 354.545 114.808C355.289 115.288 356.261 115.528 357.461 115.528C358.253 115.528 358.985 115.384 359.657 115.096C360.353 114.832 360.905 114.436 361.313 113.908C361.745 113.38 361.961 112.72 361.961 111.928V108.472L362.141 109.372C361.757 110.188 361.061 110.908 360.053 111.532C359.045 112.132 357.725 112.432 356.093 112.432C354.677 112.432 353.357 112.072 352.133 111.352C350.933 110.608 349.973 109.612 349.253 108.364C348.533 107.092 348.173 105.652 348.173 104.044C348.173 102.388 348.557 100.924 349.325 99.652C350.093 98.356 351.089 97.336 352.313 96.592C353.537 95.848 354.833 95.476 356.201 95.476C357.569 95.476 358.745 95.68 359.729 96.088C360.737 96.472 361.493 96.952 361.997 97.528L361.817 97.996L362.357 96.268H367.001V112C367.001 113.536 366.569 114.892 365.705 116.068C364.841 117.268 363.689 118.204 362.249 118.876C360.833 119.572 359.261 119.92 357.533 119.92ZM353.249 103.9C353.249 104.74 353.441 105.496 353.825 106.168C354.209 106.84 354.725 107.368 355.373 107.752C356.045 108.136 356.789 108.328 357.605 108.328C358.301 108.328 358.913 108.244 359.441 108.076C359.993 107.884 360.473 107.62 360.881 107.284C361.313 106.924 361.673 106.48 361.961 105.952V102.1C361.745 101.572 361.421 101.128 360.989 100.768C360.557 100.384 360.053 100.096 359.477 99.904C358.925 99.688 358.301 99.58 357.605 99.58C356.789 99.58 356.045 99.772 355.373 100.156C354.725 100.516 354.209 101.02 353.825 101.668C353.441 102.316 353.249 103.06 353.249 103.9ZM382.042 112.432C381.106 112.432 380.182 112.264 379.27 111.928C378.382 111.568 377.638 111.064 377.038 110.416L377.182 108.94V119.56H372.178V95.908H376.498L377.218 98.968L376.822 97.888C377.638 97.192 378.55 96.616 379.558 96.16C380.566 95.704 381.73 95.476 383.05 95.476C384.514 95.476 385.822 95.824 386.974 96.52C388.126 97.192 389.026 98.176 389.674 99.472C390.346 100.744 390.682 102.28 390.682 104.08C390.682 105.856 390.31 107.368 389.566 108.616C388.822 109.864 387.802 110.812 386.506 111.46C385.21 112.108 383.722 112.432 382.042 112.432ZM381.034 108.472C381.85 108.472 382.594 108.292 383.266 107.932C383.962 107.572 384.514 107.068 384.922 106.42C385.354 105.748 385.57 104.992 385.57 104.152C385.57 103.264 385.378 102.496 384.994 101.848C384.634 101.176 384.13 100.66 383.482 100.3C382.858 99.916 382.162 99.724 381.394 99.724C380.722 99.724 380.122 99.82 379.594 100.012C379.09 100.18 378.634 100.444 378.226 100.804C377.842 101.14 377.506 101.572 377.218 102.1V105.952C377.41 106.456 377.686 106.9 378.046 107.284C378.406 107.668 378.838 107.968 379.342 108.184C379.87 108.376 380.434 108.472 381.034 108.472ZM399.719 112.756C398.303 112.756 397.115 112.324 396.155 111.46C395.195 110.572 394.691 109.432 394.643 108.04V96.268H399.683V106.168C399.731 106.864 399.911 107.428 400.223 107.86C400.535 108.268 401.063 108.472 401.807 108.472C402.551 108.472 403.187 108.22 403.715 107.716C404.267 107.212 404.687 106.528 404.975 105.664C405.287 104.776 405.443 103.78 405.443 102.676V96.268H410.483V112H405.911L405.515 109.12L405.587 109.444C405.227 110.092 404.771 110.668 404.219 111.172C403.667 111.676 403.007 112.06 402.239 112.324C401.495 112.612 400.655 112.756 399.719 112.756ZM420.202 96.268L420.67 100.588L420.562 99.94C421.018 99.004 421.642 98.212 422.434 97.564C423.226 96.892 424.006 96.376 424.774 96.016C425.566 95.656 426.166 95.476 426.574 95.476L426.322 100.516C425.146 100.372 424.138 100.564 423.298 101.092C422.458 101.62 421.81 102.316 421.354 103.18C420.898 104.044 420.67 104.932 420.67 105.844V112H415.666V96.268H420.202Z" fill="#2B2B2B"/>
</g>
</g>
<defs>
<filter id="filter0_d_108_160" x="49.5605" y="16.6353" width="102.772" height="126.276" filterUnits="userSpaceOnUse" color-interpolation-filters="sRGB">
<feFlood flood-opacity="0" result="BackgroundImageFix"/>
<feColorMatrix in="SourceAlpha" type="matrix" values="0 0 0 0 0 0 0 0 0 0 0 0 0 0 0 0 0 0 127 0" result="hardAlpha"/>
<feOffset dy="4"/>
<feGaussianBlur stdDeviation="2"/>
<feComposite in2="hardAlpha" operator="out"/>
<feColorMatrix type="matrix" values="0 0 0 0 0 0 0 0 0 0 0 0 0 0 0 0 0 0 0.25 0"/>
<feBlend mode="normal" in2="BackgroundImageFix" result="effect1_dropShadow_108_160"/>
<feBlend mode="normal" in="SourceGraphic" in2="effect1_dropShadow_108_160" result="shape"/>
</filter>
<filter id="filter1_d_108_160" x="0.26709" y="15.083" width="96.2451" height="128" filterUnits="userSpaceOnUse" color-interpolation-filters="sRGB">
<feFlood flood-opacity="0" result="BackgroundImageFix"/>
<feColorMatrix in="SourceAlpha" type="matrix" values="0 0 0 0 0 0 0 0 0 0 0 0 0 0 0 0 0 0 127 0" result="hardAlpha"/>
<feOffset dy="4"/>
<feGaussianBlur stdDeviation="2"/>
<feComposite in2="hardAlpha" operator="out"/>
<feColorMatrix type="matrix" values="0 0 0 0 0 0 0 0 0 0 0 0 0 0 0 0 0 0 0.25 0"/>
<feBlend mode="normal" in2="BackgroundImageFix" result="effect1_dropShadow_108_160"/>
<feBlend mode="normal" in="SourceGraphic" in2="effect1_dropShadow_108_160" result="shape"/>
</filter>
<filter id="filter2_d_108_160" x="29.4839" y="6.58496" width="35.7017" height="42.917" filterUnits="userSpaceOnUse" color-interpolation-filters="sRGB">
<feFlood flood-opacity="0" result="BackgroundImageFix"/>
<feColorMatrix in="SourceAlpha" type="matrix" values="0 0 0 0 0 0 0 0 0 0 0 0 0 0 0 0 0 0 127 0" result="hardAlpha"/>
<feOffset dy="4"/>
<feGaussianBlur stdDeviation="2"/>
<feComposite in2="hardAlpha" operator="out"/>
<feColorMatrix type="matrix" values="0 0 0 0 0 0 0 0 0 0 0 0 0 0 0 0 0 0 0.25 0"/>
<feBlend mode="normal" in2="BackgroundImageFix" result="effect1_dropShadow_108_160"/>
<feBlend mode="normal" in="SourceGraphic" in2="effect1_dropShadow_108_160" result="shape"/>
</filter>
<filter id="filter3_d_108_160" x="82.4106" y="7.6416" width="35.5215" height="43.0676" filterUnits="userSpaceOnUse" color-interpolation-filters="sRGB">
<feFlood flood-opacity="0" result="BackgroundImageFix"/>
<feColorMatrix in="SourceAlpha" type="matrix" values="0 0 0 0 0 0 0 0 0 0 0 0 0 0 0 0 0 0 127 0" result="hardAlpha"/>
<feOffset dy="4"/>
<feGaussianBlur stdDeviation="2"/>
<feComposite in2="hardAlpha" operator="out"/>
<feColorMatrix type="matrix" values="0 0 0 0 0 0 0 0 0 0 0 0 0 0 0 0 0 0 0.25 0"/>
<feBlend mode="normal" in2="BackgroundImageFix" result="effect1_dropShadow_108_160"/>
<feBlend mode="normal" in="SourceGraphic" in2="effect1_dropShadow_108_160" result="shape"/>
</filter>
<filter id="filter4_d_108_160" x="150.75" y="22.55" width="273.661" height="57.95" filterUnits="userSpaceOnUse" color-interpolation-filters="sRGB">
<feFlood flood-opacity="0" result="BackgroundImageFix"/>
<feColorMatrix in="SourceAlpha" type="matrix" values="0 0 0 0 0 0 0 0 0 0 0 0 0 0 0 0 0 0 127 0" result="hardAlpha"/>
<feOffset dy="4"/>
<feGaussianBlur stdDeviation="2"/>
<feComposite in2="hardAlpha" operator="out"/>
<feColorMatrix type="matrix" values="0 0 0 0 0 0 0 0 0 0 0 0 0 0 0 0 0 0 0.25 0"/>
<feBlend mode="normal" in2="BackgroundImageFix" result="effect1_dropShadow_108_160"/>
<feBlend mode="normal" in="SourceGraphic" in2="effect1_dropShadow_108_160" result="shape"/>
</filter>
<filter id="filter5_d_108_160" x="149.28" y="80.3999" width="142.211" height="46" filterUnits="userSpaceOnUse" color-interpolation-filters="sRGB">
<feFlood flood-opacity="0" result="BackgroundImageFix"/>
<feColorMatrix in="SourceAlpha" type="matrix" values="0 0 0 0 0 0 0 0 0 0 0 0 0 0 0 0 0 0 127 0" result="hardAlpha"/>
<feOffset dy="4"/>
<feGaussianBlur stdDeviation="2"/>
<feComposite in2="hardAlpha" operator="out"/>
<feColorMatrix type="matrix" values="0 0 0 0 0 0 0 0 0 0 0 0 0 0 0 0 0 0 0.25 0"/>
<feBlend mode="normal" in2="BackgroundImageFix" result="effect1_dropShadow_108_160"/>
<feBlend mode="normal" in="SourceGraphic" in2="effect1_dropShadow_108_160" result="shape"/>
</filter>
<filter id="filter6_d_108_160" x="293.42" y="84.46" width="137.154" height="43.46" filterUnits="userSpaceOnUse" color-interpolation-filters="sRGB">
<feFlood flood-opacity="0" result="BackgroundImageFix"/>
<feColorMatrix in="SourceAlpha" type="matrix" values="0 0 0 0 0 0 0 0 0 0 0 0 0 0 0 0 0 0 127 0" result="hardAlpha"/>
<feOffset dy="4"/>
<feGaussianBlur stdDeviation="2"/>
<feComposite in2="hardAlpha" operator="out"/>
<feColorMatrix type="matrix" values="0 0 0 0 0 0 0 0 0 0 0 0 0 0 0 0 0 0 0.25 0"/>
<feBlend mode="normal" in2="BackgroundImageFix" result="effect1_dropShadow_108_160"/>
<feBlend mode="normal" in="SourceGraphic" in2="effect1_dropShadow_108_160" result="shape"/>
</filter>
</defs>
</svg>
