<svg width="" height="" viewBox="0 0 68 67" fill="none" xmlns="http://www.w3.org/2000/svg">
<path d="M24.4804 56.7034C25.6785 55.7817 27.251 54.652 29.0421 53.561C31.0712 52.325 33.3866 51.1351 35.76 50.3546C38.132 49.5747 40.5775 49.1986 42.8593 49.6085C45.1449 50.019 47.8881 51.5787 50.6168 53.5457C53.3538 55.5186 56.108 57.9251 58.4203 60.0654C59.9098 61.4441 61.2303 62.7261 62.2377 63.7043C62.4485 63.9089 62.6455 64.1002 62.8275 64.2763C62.3511 63.6432 61.8399 62.9767 61.3053 62.2798C59.0275 59.3101 56.3266 55.7891 54.0963 51.9555C51.2731 47.1029 49.1785 41.7097 49.6489 36.2411C49.8853 33.4928 51.1202 30.4213 52.8193 27.3738C54.5206 24.3223 56.6991 21.2744 58.8444 18.5692C60.8978 15.9801 62.9241 13.7009 64.479 12.0278C62.8278 13.3184 60.661 14.9513 58.2984 16.573C55.731 18.3353 52.9271 20.0881 50.2996 21.3738C47.6828 22.6542 45.2007 23.4919 43.2909 23.378C39.5197 23.1532 36.3581 20.9248 33.8754 18.4748C32.6315 17.2474 31.5507 15.957 30.6426 14.8207C30.3417 14.4441 30.0612 14.0865 29.8006 13.754C29.5632 13.4514 29.3423 13.1697 29.1373 12.9136C29.1787 12.9958 29.2223 13.0818 29.2678 13.1713C29.4087 13.4484 29.5674 13.7574 29.7407 14.0948C30.4329 15.443 31.3578 17.2442 32.3127 19.2707C33.5067 21.8045 34.7513 24.698 35.6527 27.5133C36.5524 30.3233 37.1185 33.0799 36.935 35.3315C36.7513 37.5843 35.7379 40.1952 34.3418 42.829C32.9431 45.4676 31.1482 48.1511 29.3794 50.554C27.6101 52.9575 25.8637 55.0845 24.5599 56.6104C24.5332 56.6417 24.5067 56.6726 24.4804 56.7034Z" fill="white" stroke="#5E5C5C" stroke-width="0.5"/>
<path d="M37.1878 57.6409C36.188 56.7117 34.9094 55.6006 33.4589 54.5167C31.711 53.2107 29.7072 51.9394 27.6363 51.0756C25.5671 50.2124 23.4125 49.7484 21.3719 50.0814C19.3288 50.4148 16.8484 51.8851 14.3749 53.7557C11.8916 55.6338 9.37859 57.9443 7.26518 60.0034C5.90388 61.3297 4.69426 62.5661 3.7717 63.509C3.64739 63.6361 3.52829 63.7578 3.41474 63.8737C4.04153 63.0086 4.72909 62.0982 5.44986 61.1438C7.38306 58.5842 9.55513 55.7082 11.4342 52.5407C14.1301 47.9962 16.25 42.812 16.25 37C16.25 34.0754 15.3011 30.8464 13.8935 27.6604C12.4845 24.4714 10.6081 21.308 8.73513 18.5099C7.18138 16.1887 5.62797 14.1159 4.34189 12.4847C5.6319 13.6951 7.19519 15.1106 8.87765 16.5231C11.0815 18.3733 13.4952 20.2231 15.7704 21.6001C18.0332 22.9696 20.2045 23.9002 21.91 23.8519C25.2653 23.7569 28.14 21.6272 30.4123 19.2667C31.5523 18.0825 32.5503 16.8299 33.3905 15.7257C33.669 15.3597 33.9287 15.0118 34.1702 14.6886C34.447 14.318 34.6996 13.9797 34.9287 13.6833C34.8613 13.8465 34.7848 14.0281 34.6997 14.2277C34.5626 14.5491 34.4052 14.913 34.2316 15.3141C33.6457 16.6682 32.8758 18.4476 32.0842 20.4566C31.0577 23.0615 29.9915 26.0603 29.2359 29.0375C28.481 32.0116 28.0316 34.9809 28.2509 37.5215C28.6876 42.5804 31.4063 48.2647 33.9951 52.6638C35.1511 54.6281 36.2854 56.343 37.1878 57.6409Z" fill="#D20F00" stroke="#1A1919" stroke-width="0.5"/>
<path d="M26.6609 12.3992C27.1838 16.9538 24.7476 20.7198 21.3624 20.9457C17.9772 21.1717 14.7198 17.7857 14.1968 13.2311C13.6739 8.67659 16.1101 4.9106 19.4953 4.68465C22.8805 4.4587 26.1379 7.84466 26.6609 12.3992Z" fill="#D20F00" stroke="#0E0E0E" stroke-width="0.5"/>
<path d="M37.6685 12.6999C37.4048 17.2771 40.035 21.1705 43.409 21.5269C46.783 21.8832 49.8275 18.5892 50.0913 14.0121C50.3551 9.43495 47.7248 5.54155 44.3508 5.18517C40.9768 4.82879 37.9323 8.12279 37.6685 12.6999Z" fill="white" stroke="#5E5C5C" stroke-width="0.5"/>
</svg>
